G75*
%MOIN*%
%OFA0B0*%
%FSLAX25Y25*%
%IPPOS*%
%LPD*%
%AMOC8*
5,1,8,0,0,1.08239X$1,22.5*
%
%ADD10R,0.06000X0.06000*%
%ADD11OC8,0.06000*%
%ADD12C,0.06000*%
%ADD13C,0.04559*%
%ADD14C,0.05118*%
%ADD15C,0.00591*%
%ADD16R,0.04331X0.03937*%
%ADD17R,0.03937X0.04331*%
%ADD18R,0.02000X0.02400*%
%ADD19R,0.03150X0.03150*%
%ADD20R,0.03740X0.04060*%
%ADD21R,0.04060X0.03740*%
%ADD22C,0.00600*%
%ADD23C,0.02600*%
%ADD24C,0.01000*%
%ADD25C,0.03200*%
D10*
X0414568Y0069198D03*
X0414568Y0169198D03*
D11*
X0414568Y0179198D03*
X0424568Y0179198D03*
X0434568Y0179198D03*
X0444568Y0179198D03*
X0454568Y0179198D03*
X0464568Y0179198D03*
X0474568Y0179198D03*
X0484568Y0179198D03*
X0494568Y0179198D03*
X0504568Y0179198D03*
X0514568Y0179198D03*
X0524568Y0179198D03*
X0534568Y0179198D03*
X0544568Y0179198D03*
X0554568Y0179198D03*
X0564568Y0179198D03*
X0574568Y0179198D03*
X0584568Y0179198D03*
X0584568Y0169198D03*
X0574568Y0169198D03*
X0564568Y0169198D03*
X0554568Y0169198D03*
X0544568Y0169198D03*
X0534568Y0169198D03*
X0524568Y0169198D03*
X0514568Y0169198D03*
X0504568Y0169198D03*
X0494568Y0169198D03*
X0484568Y0169198D03*
X0474568Y0169198D03*
X0464568Y0169198D03*
X0454568Y0169198D03*
X0444568Y0169198D03*
X0434568Y0169198D03*
X0424568Y0169198D03*
X0424568Y0079198D03*
X0434568Y0079198D03*
X0444568Y0079198D03*
X0454568Y0079198D03*
X0464568Y0079198D03*
X0474568Y0079198D03*
X0484568Y0079198D03*
X0494568Y0079198D03*
X0504568Y0079198D03*
X0514568Y0079198D03*
X0524568Y0079198D03*
X0534568Y0079198D03*
X0544568Y0079198D03*
X0554568Y0079198D03*
X0564568Y0079198D03*
X0574568Y0079198D03*
X0584568Y0079198D03*
X0584568Y0069198D03*
X0574568Y0069198D03*
X0564568Y0069198D03*
X0554568Y0069198D03*
X0544568Y0069198D03*
X0534568Y0069198D03*
X0524568Y0069198D03*
X0514568Y0069198D03*
X0504568Y0069198D03*
X0494568Y0069198D03*
X0484568Y0069198D03*
X0474568Y0069198D03*
X0464568Y0069198D03*
X0454568Y0069198D03*
X0444568Y0069198D03*
X0434568Y0069198D03*
X0424568Y0069198D03*
X0414568Y0079198D03*
D12*
X0416300Y0301300D03*
X0406300Y0301300D03*
X0426300Y0301300D03*
X0436300Y0301300D03*
X0446300Y0301300D03*
X0456300Y0301300D03*
X0216300Y0301300D03*
X0206300Y0301300D03*
X0196300Y0301300D03*
X0186300Y0301300D03*
X0176300Y0301300D03*
X0166300Y0301300D03*
D13*
X0336300Y0261891D03*
X0336300Y0236300D03*
D14*
X0235513Y0135985D03*
X0235513Y0116300D03*
X0186300Y0116300D03*
X0163013Y0116800D03*
X0163013Y0136485D03*
X0186300Y0135985D03*
X0113800Y0136485D03*
X0095513Y0140985D03*
X0095513Y0121300D03*
X0113800Y0116800D03*
X0116300Y0075985D03*
X0116300Y0056300D03*
X0165513Y0056300D03*
X0165513Y0075985D03*
X0046300Y0121300D03*
X0046300Y0140985D03*
X0116300Y0181300D03*
X0116300Y0200985D03*
X0165513Y0200985D03*
X0165513Y0181300D03*
X0521300Y0241300D03*
X0521300Y0260985D03*
X0570513Y0260985D03*
X0570513Y0241300D03*
D15*
X0331092Y0143533D02*
X0329320Y0143533D01*
X0329320Y0143729D01*
X0331092Y0143729D01*
X0331092Y0143533D01*
X0331092Y0142154D02*
X0329320Y0142154D01*
X0331092Y0142154D02*
X0331092Y0141958D01*
X0329320Y0141958D01*
X0329320Y0142154D01*
X0329320Y0140579D02*
X0331092Y0140579D01*
X0331092Y0140383D01*
X0329320Y0140383D01*
X0329320Y0140579D01*
X0329320Y0139004D02*
X0331092Y0139004D01*
X0331092Y0138808D01*
X0329320Y0138808D01*
X0329320Y0139004D01*
X0329320Y0137429D02*
X0331092Y0137429D01*
X0331092Y0137233D01*
X0329320Y0137233D01*
X0329320Y0137429D01*
X0329320Y0135855D02*
X0331092Y0135855D01*
X0331092Y0135659D01*
X0329320Y0135659D01*
X0329320Y0135855D01*
X0328335Y0134674D02*
X0328335Y0132902D01*
X0328139Y0132902D01*
X0328139Y0134674D01*
X0328335Y0134674D01*
X0328335Y0133492D02*
X0328139Y0133492D01*
X0328139Y0134082D02*
X0328335Y0134082D01*
X0328335Y0134672D02*
X0328139Y0134672D01*
X0326760Y0134674D02*
X0326760Y0132902D01*
X0326564Y0132902D01*
X0326564Y0134674D01*
X0326760Y0134674D01*
X0326760Y0133492D02*
X0326564Y0133492D01*
X0326564Y0134082D02*
X0326760Y0134082D01*
X0326760Y0134672D02*
X0326564Y0134672D01*
X0325185Y0134674D02*
X0325185Y0132902D01*
X0324989Y0132902D01*
X0324989Y0134674D01*
X0325185Y0134674D01*
X0325185Y0133492D02*
X0324989Y0133492D01*
X0324989Y0134082D02*
X0325185Y0134082D01*
X0325185Y0134672D02*
X0324989Y0134672D01*
X0323611Y0134674D02*
X0323611Y0132902D01*
X0323415Y0132902D01*
X0323415Y0134674D01*
X0323611Y0134674D01*
X0323611Y0133492D02*
X0323415Y0133492D01*
X0323415Y0134082D02*
X0323611Y0134082D01*
X0323611Y0134672D02*
X0323415Y0134672D01*
X0322036Y0134674D02*
X0322036Y0132902D01*
X0321840Y0132902D01*
X0321840Y0134674D01*
X0322036Y0134674D01*
X0322036Y0133492D02*
X0321840Y0133492D01*
X0321840Y0134082D02*
X0322036Y0134082D01*
X0322036Y0134672D02*
X0321840Y0134672D01*
X0320461Y0134674D02*
X0320461Y0132902D01*
X0320265Y0132902D01*
X0320265Y0134674D01*
X0320461Y0134674D01*
X0320461Y0133492D02*
X0320265Y0133492D01*
X0320265Y0134082D02*
X0320461Y0134082D01*
X0320461Y0134672D02*
X0320265Y0134672D01*
X0319280Y0135659D02*
X0317508Y0135659D01*
X0317508Y0135855D01*
X0319280Y0135855D01*
X0319280Y0135659D01*
X0319280Y0137233D02*
X0317508Y0137233D01*
X0317508Y0137429D01*
X0319280Y0137429D01*
X0319280Y0137233D01*
X0319280Y0138808D02*
X0317508Y0138808D01*
X0317508Y0139004D01*
X0319280Y0139004D01*
X0319280Y0138808D01*
X0319280Y0140383D02*
X0317508Y0140383D01*
X0317508Y0140579D01*
X0319280Y0140579D01*
X0319280Y0140383D01*
X0319280Y0141958D02*
X0317508Y0141958D01*
X0317508Y0142154D01*
X0319280Y0142154D01*
X0319280Y0141958D01*
X0319280Y0143533D02*
X0317508Y0143533D01*
X0317508Y0143729D01*
X0319280Y0143729D01*
X0319280Y0143533D01*
X0320461Y0144713D02*
X0320461Y0146485D01*
X0320461Y0144713D02*
X0320265Y0144713D01*
X0320265Y0146485D01*
X0320461Y0146485D01*
X0320461Y0145303D02*
X0320265Y0145303D01*
X0320265Y0145893D02*
X0320461Y0145893D01*
X0320461Y0146483D02*
X0320265Y0146483D01*
X0322036Y0146485D02*
X0322036Y0144713D01*
X0321840Y0144713D01*
X0321840Y0146485D01*
X0322036Y0146485D01*
X0322036Y0145303D02*
X0321840Y0145303D01*
X0321840Y0145893D02*
X0322036Y0145893D01*
X0322036Y0146483D02*
X0321840Y0146483D01*
X0323611Y0146485D02*
X0323611Y0144713D01*
X0323415Y0144713D01*
X0323415Y0146485D01*
X0323611Y0146485D01*
X0323611Y0145303D02*
X0323415Y0145303D01*
X0323415Y0145893D02*
X0323611Y0145893D01*
X0323611Y0146483D02*
X0323415Y0146483D01*
X0325185Y0146485D02*
X0325185Y0144713D01*
X0324989Y0144713D01*
X0324989Y0146485D01*
X0325185Y0146485D01*
X0325185Y0145303D02*
X0324989Y0145303D01*
X0324989Y0145893D02*
X0325185Y0145893D01*
X0325185Y0146483D02*
X0324989Y0146483D01*
X0326760Y0146485D02*
X0326760Y0144713D01*
X0326564Y0144713D01*
X0326564Y0146485D01*
X0326760Y0146485D01*
X0326760Y0145303D02*
X0326564Y0145303D01*
X0326564Y0145893D02*
X0326760Y0145893D01*
X0326760Y0146483D02*
X0326564Y0146483D01*
X0328335Y0146485D02*
X0328335Y0144713D01*
X0328139Y0144713D01*
X0328139Y0146485D01*
X0328335Y0146485D01*
X0328335Y0145303D02*
X0328139Y0145303D01*
X0328139Y0145893D02*
X0328335Y0145893D01*
X0328335Y0146483D02*
X0328139Y0146483D01*
D16*
X0329646Y0121300D03*
X0322954Y0121300D03*
D17*
X0349300Y0136954D03*
X0349300Y0143646D03*
D18*
X0302300Y0140500D03*
X0302300Y0136100D03*
D19*
X0375394Y0271300D03*
X0381300Y0271300D03*
X0381300Y0281300D03*
X0375394Y0281300D03*
X0375394Y0291300D03*
X0381300Y0291300D03*
D20*
X0063150Y0056300D03*
X0069450Y0056300D03*
X0178150Y0166300D03*
X0184450Y0166300D03*
X0203150Y0206300D03*
X0209450Y0206300D03*
X0084450Y0206300D03*
X0078150Y0206300D03*
X0054450Y0186300D03*
X0048150Y0186300D03*
X0348150Y0286300D03*
X0354450Y0286300D03*
X0359650Y0291300D03*
X0365950Y0291300D03*
X0363150Y0276300D03*
X0369450Y0276300D03*
D21*
X0325300Y0169450D03*
X0325300Y0163150D03*
X0313300Y0163150D03*
X0313300Y0169450D03*
D22*
X0315300Y0161300D02*
X0320175Y0156425D01*
X0320363Y0156237D01*
X0320363Y0145599D01*
X0321938Y0145599D02*
X0321938Y0155938D01*
X0324925Y0158925D01*
X0325300Y0159300D01*
X0325300Y0163150D01*
X0325300Y0149300D02*
X0323513Y0147513D01*
X0323513Y0145599D01*
X0326662Y0145599D02*
X0326662Y0147662D01*
X0328300Y0149300D01*
X0330206Y0143631D02*
X0331631Y0143631D01*
X0334300Y0146300D01*
X0335300Y0138300D02*
X0332757Y0135757D01*
X0330206Y0135757D01*
X0328237Y0133788D02*
X0328237Y0132363D01*
X0330300Y0130300D01*
X0332550Y0130300D01*
X0333300Y0130300D01*
X0329646Y0126954D02*
X0325087Y0131513D01*
X0325087Y0133788D01*
X0323513Y0133788D02*
X0323513Y0131087D01*
X0324300Y0128300D01*
X0321938Y0131938D02*
X0319300Y0130300D01*
X0321938Y0131938D02*
X0321938Y0133788D01*
X0329646Y0126954D02*
X0329646Y0121300D01*
X0318394Y0143631D02*
X0314969Y0143631D01*
X0314300Y0144300D01*
D23*
X0314300Y0144300D03*
X0325300Y0149300D03*
X0328300Y0149300D03*
X0334300Y0146300D03*
X0335300Y0138300D03*
X0324300Y0128300D03*
X0319300Y0130300D03*
D24*
X0323800Y0127550D02*
X0324300Y0128300D01*
X0323800Y0127550D02*
X0323800Y0121300D01*
X0322954Y0121300D01*
X0311300Y0126300D02*
X0373800Y0063800D01*
X0526300Y0063800D01*
X0530050Y0067550D01*
X0530050Y0073800D01*
X0535050Y0078800D01*
X0534568Y0079198D01*
X0530050Y0077550D02*
X0530050Y0081300D01*
X0532550Y0083800D01*
X0540050Y0083800D01*
X0543800Y0080050D01*
X0544568Y0079198D01*
X0550050Y0081300D02*
X0550050Y0067550D01*
X0543800Y0061300D01*
X0186300Y0061300D01*
X0116300Y0131300D01*
X0105050Y0131300D01*
X0096300Y0140050D01*
X0095513Y0140985D01*
X0095050Y0141300D01*
X0046300Y0141300D01*
X0046300Y0140985D01*
X0046300Y0141300D02*
X0047550Y0142550D01*
X0047550Y0186300D01*
X0048150Y0186300D01*
X0054450Y0186300D02*
X0057550Y0186300D01*
X0066300Y0195050D01*
X0077550Y0206300D01*
X0078150Y0206300D01*
X0077550Y0206300D02*
X0107550Y0176300D01*
X0178800Y0176300D01*
X0178800Y0166300D01*
X0178150Y0166300D01*
X0183800Y0166300D02*
X0184450Y0166300D01*
X0183800Y0166300D02*
X0183800Y0157550D01*
X0163800Y0137550D01*
X0163013Y0136485D01*
X0162550Y0137550D01*
X0113800Y0137550D01*
X0113800Y0136485D01*
X0178800Y0176300D02*
X0178800Y0182550D01*
X0202550Y0206300D01*
X0203150Y0206300D01*
X0208800Y0206300D02*
X0209450Y0206300D01*
X0208800Y0206300D02*
X0208800Y0162550D01*
X0235050Y0136300D01*
X0235513Y0135985D01*
X0255050Y0135050D02*
X0236300Y0116300D01*
X0235513Y0116300D01*
X0255050Y0135050D02*
X0302550Y0135050D01*
X0302300Y0136100D01*
X0302300Y0140500D02*
X0302550Y0141300D01*
X0302550Y0148800D01*
X0302550Y0158800D01*
X0312550Y0168800D01*
X0313300Y0169450D01*
X0313800Y0170050D01*
X0325050Y0170050D01*
X0325300Y0169450D01*
X0315300Y0161300D02*
X0315050Y0161300D01*
X0313800Y0162550D01*
X0313300Y0163150D01*
X0320175Y0156425D02*
X0311300Y0147550D01*
X0311300Y0126300D01*
X0332550Y0130050D02*
X0332550Y0130300D01*
X0336300Y0137550D02*
X0335300Y0138300D01*
X0336300Y0137550D02*
X0348800Y0137550D01*
X0349300Y0136954D01*
X0349300Y0143646D02*
X0348800Y0143800D01*
X0337550Y0143800D01*
X0335050Y0146300D01*
X0334300Y0146300D01*
X0325050Y0158800D02*
X0324925Y0158925D01*
X0325050Y0158800D02*
X0362550Y0158800D01*
X0440050Y0081300D01*
X0440050Y0076300D01*
X0442550Y0073800D01*
X0526300Y0073800D01*
X0530050Y0077550D01*
X0524568Y0079198D02*
X0523800Y0080050D01*
X0523800Y0103800D01*
X0475050Y0152550D01*
X0475050Y0168800D01*
X0474568Y0169198D01*
X0473800Y0170050D01*
X0471300Y0170050D01*
X0467550Y0173800D01*
X0452550Y0173800D01*
X0450050Y0176300D01*
X0450050Y0257550D01*
X0406300Y0301300D01*
X0426300Y0301300D02*
X0460050Y0267550D01*
X0460050Y0183800D01*
X0465050Y0180050D02*
X0464568Y0179198D01*
X0465050Y0180050D02*
X0465050Y0203800D01*
X0521300Y0260050D01*
X0521300Y0260985D01*
X0521300Y0261300D01*
X0570050Y0261300D01*
X0570513Y0260985D01*
X0575050Y0262550D02*
X0575050Y0186300D01*
X0570050Y0181300D01*
X0570050Y0175050D01*
X0565050Y0170050D01*
X0564568Y0169198D01*
X0504568Y0169198D02*
X0503800Y0170050D01*
X0503800Y0172550D01*
X0500050Y0176300D01*
X0500050Y0181300D01*
X0492550Y0188800D01*
X0470050Y0188800D01*
X0494568Y0179198D02*
X0495050Y0178800D01*
X0495050Y0176300D01*
X0500050Y0171300D01*
X0500050Y0131300D01*
X0550050Y0081300D01*
X0464568Y0079198D02*
X0463800Y0080050D01*
X0463800Y0111300D01*
X0386300Y0188800D01*
X0311300Y0188800D01*
X0198800Y0301300D01*
X0196300Y0301300D01*
X0193800Y0306300D02*
X0531300Y0306300D01*
X0575050Y0262550D01*
X0443800Y0233800D02*
X0443800Y0180050D01*
X0444568Y0179198D01*
X0414568Y0169198D02*
X0413800Y0170050D01*
X0336300Y0247550D01*
X0336300Y0261891D01*
X0331300Y0262550D02*
X0331300Y0241300D01*
X0336300Y0236300D01*
X0331300Y0262550D02*
X0347550Y0278800D01*
X0347550Y0286300D01*
X0348150Y0286300D01*
X0348800Y0286300D01*
X0348800Y0287550D01*
X0352550Y0291300D01*
X0359650Y0291300D01*
X0360050Y0291300D01*
X0362550Y0288800D01*
X0362550Y0276300D01*
X0363150Y0276300D01*
X0369450Y0276300D02*
X0370050Y0276300D01*
X0375050Y0271300D01*
X0375394Y0271300D01*
X0381300Y0271300D02*
X0388800Y0271300D01*
X0390050Y0275050D02*
X0381300Y0275050D01*
X0376300Y0280050D01*
X0376300Y0281300D01*
X0375394Y0281300D01*
X0381300Y0281300D02*
X0391300Y0281300D01*
X0390050Y0275050D02*
X0392550Y0272550D01*
X0392550Y0270050D01*
X0390050Y0267550D01*
X0365050Y0267550D01*
X0355050Y0277550D01*
X0355050Y0286300D01*
X0354450Y0286300D01*
X0365950Y0291300D02*
X0375394Y0291300D01*
X0381300Y0291300D02*
X0386300Y0291300D01*
X0443800Y0233800D01*
X0385050Y0185050D02*
X0443800Y0126300D01*
X0443800Y0080050D01*
X0444568Y0079198D01*
X0208800Y0158800D02*
X0186300Y0136300D01*
X0186300Y0135985D01*
X0208800Y0158800D02*
X0208800Y0162550D01*
X0165513Y0200985D02*
X0165050Y0201300D01*
X0116300Y0201300D01*
X0116300Y0200985D01*
X0116300Y0201300D02*
X0111300Y0206300D01*
X0084450Y0206300D01*
X0186300Y0301300D02*
X0188800Y0301300D01*
X0193800Y0306300D01*
X0165050Y0076300D02*
X0116300Y0076300D01*
X0116300Y0075985D01*
X0116300Y0075050D01*
X0078800Y0075050D01*
X0063800Y0060050D01*
X0063800Y0056300D01*
X0063150Y0056300D01*
X0069450Y0056300D02*
X0070050Y0056300D01*
X0070050Y0061300D01*
X0165050Y0076300D02*
X0165513Y0075985D01*
D25*
X0070050Y0061300D03*
X0066300Y0195050D03*
X0302550Y0148800D03*
X0332550Y0130050D03*
X0385050Y0185050D03*
X0460050Y0183800D03*
X0470050Y0188800D03*
X0388800Y0271300D03*
X0391300Y0281300D03*
M02*
