G75*
%MOIN*%
%OFA0B0*%
%FSLAX25Y25*%
%IPPOS*%
%LPD*%
%AMOC8*
5,1,8,0,0,1.08239X$1,22.5*
%
%ADD10R,0.06600X0.06600*%
%ADD11OC8,0.06600*%
%ADD12C,0.06600*%
%ADD13C,0.05159*%
%ADD14C,0.05718*%
%ADD15C,0.01041*%
%ADD16R,0.04931X0.04537*%
%ADD17R,0.04537X0.04931*%
%ADD18R,0.02600X0.03000*%
%ADD19R,0.03750X0.03750*%
%ADD20R,0.04340X0.04660*%
%ADD21R,0.04660X0.04340*%
D10*
X0414568Y0069198D03*
X0414568Y0169198D03*
D11*
X0414568Y0179198D03*
X0424568Y0179198D03*
X0434568Y0179198D03*
X0444568Y0179198D03*
X0454568Y0179198D03*
X0464568Y0179198D03*
X0474568Y0179198D03*
X0484568Y0179198D03*
X0494568Y0179198D03*
X0504568Y0179198D03*
X0514568Y0179198D03*
X0524568Y0179198D03*
X0534568Y0179198D03*
X0544568Y0179198D03*
X0554568Y0179198D03*
X0564568Y0179198D03*
X0574568Y0179198D03*
X0584568Y0179198D03*
X0584568Y0169198D03*
X0574568Y0169198D03*
X0564568Y0169198D03*
X0554568Y0169198D03*
X0544568Y0169198D03*
X0534568Y0169198D03*
X0524568Y0169198D03*
X0514568Y0169198D03*
X0504568Y0169198D03*
X0494568Y0169198D03*
X0484568Y0169198D03*
X0474568Y0169198D03*
X0464568Y0169198D03*
X0454568Y0169198D03*
X0444568Y0169198D03*
X0434568Y0169198D03*
X0424568Y0169198D03*
X0424568Y0079198D03*
X0434568Y0079198D03*
X0444568Y0079198D03*
X0454568Y0079198D03*
X0464568Y0079198D03*
X0474568Y0079198D03*
X0484568Y0079198D03*
X0494568Y0079198D03*
X0504568Y0079198D03*
X0514568Y0079198D03*
X0524568Y0079198D03*
X0534568Y0079198D03*
X0544568Y0079198D03*
X0554568Y0079198D03*
X0564568Y0079198D03*
X0574568Y0079198D03*
X0584568Y0079198D03*
X0584568Y0069198D03*
X0574568Y0069198D03*
X0564568Y0069198D03*
X0554568Y0069198D03*
X0544568Y0069198D03*
X0534568Y0069198D03*
X0524568Y0069198D03*
X0514568Y0069198D03*
X0504568Y0069198D03*
X0494568Y0069198D03*
X0484568Y0069198D03*
X0474568Y0069198D03*
X0464568Y0069198D03*
X0454568Y0069198D03*
X0444568Y0069198D03*
X0434568Y0069198D03*
X0424568Y0069198D03*
X0414568Y0079198D03*
D12*
X0416300Y0301300D03*
X0406300Y0301300D03*
X0426300Y0301300D03*
X0436300Y0301300D03*
X0446300Y0301300D03*
X0456300Y0301300D03*
X0216300Y0301300D03*
X0206300Y0301300D03*
X0196300Y0301300D03*
X0186300Y0301300D03*
X0176300Y0301300D03*
X0166300Y0301300D03*
D13*
X0336300Y0261891D03*
X0336300Y0236300D03*
D14*
X0235513Y0135985D03*
X0235513Y0116300D03*
X0186300Y0116300D03*
X0163013Y0116800D03*
X0163013Y0136485D03*
X0186300Y0135985D03*
X0113800Y0136485D03*
X0095513Y0140985D03*
X0095513Y0121300D03*
X0113800Y0116800D03*
X0116300Y0075985D03*
X0116300Y0056300D03*
X0165513Y0056300D03*
X0165513Y0075985D03*
X0046300Y0121300D03*
X0046300Y0140985D03*
X0116300Y0181300D03*
X0116300Y0200985D03*
X0165513Y0200985D03*
X0165513Y0181300D03*
X0521300Y0241300D03*
X0521300Y0260985D03*
X0570513Y0260985D03*
X0570513Y0241300D03*
D15*
X0331167Y0143458D02*
X0329245Y0143458D01*
X0329245Y0143804D01*
X0331167Y0143804D01*
X0331167Y0143458D01*
X0331167Y0142229D02*
X0329245Y0142229D01*
X0331167Y0142229D02*
X0331167Y0141883D01*
X0329245Y0141883D01*
X0329245Y0142229D01*
X0329245Y0140654D02*
X0331167Y0140654D01*
X0331167Y0140308D01*
X0329245Y0140308D01*
X0329245Y0140654D01*
X0329245Y0139079D02*
X0331167Y0139079D01*
X0331167Y0138733D01*
X0329245Y0138733D01*
X0329245Y0139079D01*
X0329245Y0137504D02*
X0331167Y0137504D01*
X0331167Y0137158D01*
X0329245Y0137158D01*
X0329245Y0137504D01*
X0329245Y0135930D02*
X0331167Y0135930D01*
X0331167Y0135584D01*
X0329245Y0135584D01*
X0329245Y0135930D01*
X0328410Y0134749D02*
X0328410Y0132827D01*
X0328064Y0132827D01*
X0328064Y0134749D01*
X0328410Y0134749D01*
X0328410Y0133867D02*
X0328064Y0133867D01*
X0326835Y0134749D02*
X0326835Y0132827D01*
X0326489Y0132827D01*
X0326489Y0134749D01*
X0326835Y0134749D01*
X0326835Y0133867D02*
X0326489Y0133867D01*
X0325260Y0134749D02*
X0325260Y0132827D01*
X0324914Y0132827D01*
X0324914Y0134749D01*
X0325260Y0134749D01*
X0325260Y0133867D02*
X0324914Y0133867D01*
X0323686Y0134749D02*
X0323686Y0132827D01*
X0323340Y0132827D01*
X0323340Y0134749D01*
X0323686Y0134749D01*
X0323686Y0133867D02*
X0323340Y0133867D01*
X0322111Y0134749D02*
X0322111Y0132827D01*
X0321765Y0132827D01*
X0321765Y0134749D01*
X0322111Y0134749D01*
X0322111Y0133867D02*
X0321765Y0133867D01*
X0320536Y0134749D02*
X0320536Y0132827D01*
X0320190Y0132827D01*
X0320190Y0134749D01*
X0320536Y0134749D01*
X0320536Y0133867D02*
X0320190Y0133867D01*
X0319355Y0135584D02*
X0317433Y0135584D01*
X0317433Y0135930D01*
X0319355Y0135930D01*
X0319355Y0135584D01*
X0319355Y0137158D02*
X0317433Y0137158D01*
X0317433Y0137504D01*
X0319355Y0137504D01*
X0319355Y0137158D01*
X0319355Y0138733D02*
X0317433Y0138733D01*
X0317433Y0139079D01*
X0319355Y0139079D01*
X0319355Y0138733D01*
X0319355Y0140308D02*
X0317433Y0140308D01*
X0317433Y0140654D01*
X0319355Y0140654D01*
X0319355Y0140308D01*
X0319355Y0141883D02*
X0317433Y0141883D01*
X0317433Y0142229D01*
X0319355Y0142229D01*
X0319355Y0141883D01*
X0319355Y0143458D02*
X0317433Y0143458D01*
X0317433Y0143804D01*
X0319355Y0143804D01*
X0319355Y0143458D01*
X0320536Y0144638D02*
X0320536Y0146560D01*
X0320536Y0144638D02*
X0320190Y0144638D01*
X0320190Y0146560D01*
X0320536Y0146560D01*
X0320536Y0145678D02*
X0320190Y0145678D01*
X0322111Y0146560D02*
X0322111Y0144638D01*
X0321765Y0144638D01*
X0321765Y0146560D01*
X0322111Y0146560D01*
X0322111Y0145678D02*
X0321765Y0145678D01*
X0323686Y0146560D02*
X0323686Y0144638D01*
X0323340Y0144638D01*
X0323340Y0146560D01*
X0323686Y0146560D01*
X0323686Y0145678D02*
X0323340Y0145678D01*
X0325260Y0146560D02*
X0325260Y0144638D01*
X0324914Y0144638D01*
X0324914Y0146560D01*
X0325260Y0146560D01*
X0325260Y0145678D02*
X0324914Y0145678D01*
X0326835Y0146560D02*
X0326835Y0144638D01*
X0326489Y0144638D01*
X0326489Y0146560D01*
X0326835Y0146560D01*
X0326835Y0145678D02*
X0326489Y0145678D01*
X0328410Y0146560D02*
X0328410Y0144638D01*
X0328064Y0144638D01*
X0328064Y0146560D01*
X0328410Y0146560D01*
X0328410Y0145678D02*
X0328064Y0145678D01*
D16*
X0329646Y0121300D03*
X0322954Y0121300D03*
D17*
X0349300Y0136954D03*
X0349300Y0143646D03*
D18*
X0302300Y0140500D03*
X0302300Y0136100D03*
D19*
X0375394Y0271300D03*
X0381300Y0271300D03*
X0381300Y0281300D03*
X0375394Y0281300D03*
X0375394Y0291300D03*
X0381300Y0291300D03*
D20*
X0063150Y0056300D03*
X0069450Y0056300D03*
X0178150Y0166300D03*
X0184450Y0166300D03*
X0203150Y0206300D03*
X0209450Y0206300D03*
X0084450Y0206300D03*
X0078150Y0206300D03*
X0054450Y0186300D03*
X0048150Y0186300D03*
X0348150Y0286300D03*
X0354450Y0286300D03*
X0359650Y0291300D03*
X0365950Y0291300D03*
X0363150Y0276300D03*
X0369450Y0276300D03*
D21*
X0325300Y0169450D03*
X0325300Y0163150D03*
X0313300Y0163150D03*
X0313300Y0169450D03*
M02*
