G75*
%MOIN*%
%OFA0B0*%
%FSLAX25Y25*%
%IPPOS*%
%LPD*%
%AMOC8*
5,1,8,0,0,1.08239X$1,22.5*
%
%ADD10R,0.06600X0.06600*%
%ADD11OC8,0.06600*%
%ADD12C,0.06600*%
%ADD13C,0.05159*%
%ADD14C,0.05718*%
D10*
X0414568Y0069198D03*
X0414568Y0169198D03*
D11*
X0414568Y0179198D03*
X0424568Y0179198D03*
X0434568Y0179198D03*
X0444568Y0179198D03*
X0454568Y0179198D03*
X0464568Y0179198D03*
X0474568Y0179198D03*
X0484568Y0179198D03*
X0494568Y0179198D03*
X0504568Y0179198D03*
X0514568Y0179198D03*
X0524568Y0179198D03*
X0534568Y0179198D03*
X0544568Y0179198D03*
X0554568Y0179198D03*
X0564568Y0179198D03*
X0574568Y0179198D03*
X0584568Y0179198D03*
X0584568Y0169198D03*
X0574568Y0169198D03*
X0564568Y0169198D03*
X0554568Y0169198D03*
X0544568Y0169198D03*
X0534568Y0169198D03*
X0524568Y0169198D03*
X0514568Y0169198D03*
X0504568Y0169198D03*
X0494568Y0169198D03*
X0484568Y0169198D03*
X0474568Y0169198D03*
X0464568Y0169198D03*
X0454568Y0169198D03*
X0444568Y0169198D03*
X0434568Y0169198D03*
X0424568Y0169198D03*
X0424568Y0079198D03*
X0434568Y0079198D03*
X0444568Y0079198D03*
X0454568Y0079198D03*
X0464568Y0079198D03*
X0474568Y0079198D03*
X0484568Y0079198D03*
X0494568Y0079198D03*
X0504568Y0079198D03*
X0514568Y0079198D03*
X0524568Y0079198D03*
X0534568Y0079198D03*
X0544568Y0079198D03*
X0554568Y0079198D03*
X0564568Y0079198D03*
X0574568Y0079198D03*
X0584568Y0079198D03*
X0584568Y0069198D03*
X0574568Y0069198D03*
X0564568Y0069198D03*
X0554568Y0069198D03*
X0544568Y0069198D03*
X0534568Y0069198D03*
X0524568Y0069198D03*
X0514568Y0069198D03*
X0504568Y0069198D03*
X0494568Y0069198D03*
X0484568Y0069198D03*
X0474568Y0069198D03*
X0464568Y0069198D03*
X0454568Y0069198D03*
X0444568Y0069198D03*
X0434568Y0069198D03*
X0424568Y0069198D03*
X0414568Y0079198D03*
D12*
X0416300Y0301300D03*
X0406300Y0301300D03*
X0426300Y0301300D03*
X0436300Y0301300D03*
X0446300Y0301300D03*
X0456300Y0301300D03*
X0216300Y0301300D03*
X0206300Y0301300D03*
X0196300Y0301300D03*
X0186300Y0301300D03*
X0176300Y0301300D03*
X0166300Y0301300D03*
D13*
X0336300Y0261891D03*
X0336300Y0236300D03*
D14*
X0116300Y0056300D03*
X0116300Y0075985D03*
X0165513Y0075985D03*
X0165513Y0056300D03*
X0163013Y0116800D03*
X0186300Y0116300D03*
X0186300Y0135985D03*
X0163013Y0136485D03*
X0113800Y0136485D03*
X0095513Y0140985D03*
X0095513Y0121300D03*
X0113800Y0116800D03*
X0046300Y0121300D03*
X0046300Y0140985D03*
X0116300Y0181300D03*
X0116300Y0200985D03*
X0165513Y0200985D03*
X0165513Y0181300D03*
X0235513Y0135985D03*
X0235513Y0116300D03*
X0521300Y0241300D03*
X0521300Y0260985D03*
X0570513Y0260985D03*
X0570513Y0241300D03*
M02*
