G75*
%MOIN*%
%OFA0B0*%
%FSLAX25Y25*%
%IPPOS*%
%LPD*%
%AMOC8*
5,1,8,0,0,1.08239X$1,22.5*
%
%ADD10C,0.00591*%
%ADD11R,0.04331X0.03937*%
%ADD12R,0.03937X0.04331*%
%ADD13R,0.02000X0.02400*%
%ADD14R,0.03150X0.03150*%
%ADD15R,0.03740X0.04060*%
%ADD16R,0.04060X0.03740*%
D10*
X0317508Y0135659D02*
X0319280Y0135659D01*
X0317508Y0135659D02*
X0317508Y0135855D01*
X0319280Y0135855D01*
X0319280Y0135659D01*
X0319280Y0137233D02*
X0317508Y0137233D01*
X0317508Y0137429D01*
X0319280Y0137429D01*
X0319280Y0137233D01*
X0319280Y0138808D02*
X0317508Y0138808D01*
X0317508Y0139004D01*
X0319280Y0139004D01*
X0319280Y0138808D01*
X0319280Y0140383D02*
X0317508Y0140383D01*
X0317508Y0140579D01*
X0319280Y0140579D01*
X0319280Y0140383D01*
X0319280Y0141958D02*
X0317508Y0141958D01*
X0317508Y0142154D01*
X0319280Y0142154D01*
X0319280Y0141958D01*
X0319280Y0143533D02*
X0317508Y0143533D01*
X0317508Y0143729D01*
X0319280Y0143729D01*
X0319280Y0143533D01*
X0320461Y0144713D02*
X0320461Y0146485D01*
X0320461Y0144713D02*
X0320265Y0144713D01*
X0320265Y0146485D01*
X0320461Y0146485D01*
X0320461Y0145303D02*
X0320265Y0145303D01*
X0320265Y0145893D02*
X0320461Y0145893D01*
X0320461Y0146483D02*
X0320265Y0146483D01*
X0322036Y0146485D02*
X0322036Y0144713D01*
X0321840Y0144713D01*
X0321840Y0146485D01*
X0322036Y0146485D01*
X0322036Y0145303D02*
X0321840Y0145303D01*
X0321840Y0145893D02*
X0322036Y0145893D01*
X0322036Y0146483D02*
X0321840Y0146483D01*
X0323611Y0146485D02*
X0323611Y0144713D01*
X0323415Y0144713D01*
X0323415Y0146485D01*
X0323611Y0146485D01*
X0323611Y0145303D02*
X0323415Y0145303D01*
X0323415Y0145893D02*
X0323611Y0145893D01*
X0323611Y0146483D02*
X0323415Y0146483D01*
X0325185Y0146485D02*
X0325185Y0144713D01*
X0324989Y0144713D01*
X0324989Y0146485D01*
X0325185Y0146485D01*
X0325185Y0145303D02*
X0324989Y0145303D01*
X0324989Y0145893D02*
X0325185Y0145893D01*
X0325185Y0146483D02*
X0324989Y0146483D01*
X0326760Y0146485D02*
X0326760Y0144713D01*
X0326564Y0144713D01*
X0326564Y0146485D01*
X0326760Y0146485D01*
X0326760Y0145303D02*
X0326564Y0145303D01*
X0326564Y0145893D02*
X0326760Y0145893D01*
X0326760Y0146483D02*
X0326564Y0146483D01*
X0328335Y0146485D02*
X0328335Y0144713D01*
X0328139Y0144713D01*
X0328139Y0146485D01*
X0328335Y0146485D01*
X0328335Y0145303D02*
X0328139Y0145303D01*
X0328139Y0145893D02*
X0328335Y0145893D01*
X0328335Y0146483D02*
X0328139Y0146483D01*
X0329320Y0143533D02*
X0331092Y0143533D01*
X0329320Y0143533D02*
X0329320Y0143729D01*
X0331092Y0143729D01*
X0331092Y0143533D01*
X0331092Y0142154D02*
X0329320Y0142154D01*
X0331092Y0142154D02*
X0331092Y0141958D01*
X0329320Y0141958D01*
X0329320Y0142154D01*
X0329320Y0140579D02*
X0331092Y0140579D01*
X0331092Y0140383D01*
X0329320Y0140383D01*
X0329320Y0140579D01*
X0329320Y0139004D02*
X0331092Y0139004D01*
X0331092Y0138808D01*
X0329320Y0138808D01*
X0329320Y0139004D01*
X0329320Y0137429D02*
X0331092Y0137429D01*
X0331092Y0137233D01*
X0329320Y0137233D01*
X0329320Y0137429D01*
X0329320Y0135855D02*
X0331092Y0135855D01*
X0331092Y0135659D01*
X0329320Y0135659D01*
X0329320Y0135855D01*
X0328335Y0134674D02*
X0328335Y0132902D01*
X0328139Y0132902D01*
X0328139Y0134674D01*
X0328335Y0134674D01*
X0328335Y0133492D02*
X0328139Y0133492D01*
X0328139Y0134082D02*
X0328335Y0134082D01*
X0328335Y0134672D02*
X0328139Y0134672D01*
X0326760Y0134674D02*
X0326760Y0132902D01*
X0326564Y0132902D01*
X0326564Y0134674D01*
X0326760Y0134674D01*
X0326760Y0133492D02*
X0326564Y0133492D01*
X0326564Y0134082D02*
X0326760Y0134082D01*
X0326760Y0134672D02*
X0326564Y0134672D01*
X0325185Y0134674D02*
X0325185Y0132902D01*
X0324989Y0132902D01*
X0324989Y0134674D01*
X0325185Y0134674D01*
X0325185Y0133492D02*
X0324989Y0133492D01*
X0324989Y0134082D02*
X0325185Y0134082D01*
X0325185Y0134672D02*
X0324989Y0134672D01*
X0323611Y0134674D02*
X0323611Y0132902D01*
X0323415Y0132902D01*
X0323415Y0134674D01*
X0323611Y0134674D01*
X0323611Y0133492D02*
X0323415Y0133492D01*
X0323415Y0134082D02*
X0323611Y0134082D01*
X0323611Y0134672D02*
X0323415Y0134672D01*
X0322036Y0134674D02*
X0322036Y0132902D01*
X0321840Y0132902D01*
X0321840Y0134674D01*
X0322036Y0134674D01*
X0322036Y0133492D02*
X0321840Y0133492D01*
X0321840Y0134082D02*
X0322036Y0134082D01*
X0322036Y0134672D02*
X0321840Y0134672D01*
X0320461Y0134674D02*
X0320461Y0132902D01*
X0320265Y0132902D01*
X0320265Y0134674D01*
X0320461Y0134674D01*
X0320461Y0133492D02*
X0320265Y0133492D01*
X0320265Y0134082D02*
X0320461Y0134082D01*
X0320461Y0134672D02*
X0320265Y0134672D01*
D11*
X0322954Y0121300D03*
X0329646Y0121300D03*
D12*
X0349300Y0136954D03*
X0349300Y0143646D03*
D13*
X0302300Y0140500D03*
X0302300Y0136100D03*
D14*
X0375394Y0271300D03*
X0381300Y0271300D03*
X0381300Y0281300D03*
X0375394Y0281300D03*
X0375394Y0291300D03*
X0381300Y0291300D03*
D15*
X0063150Y0056300D03*
X0069450Y0056300D03*
X0178150Y0166300D03*
X0184450Y0166300D03*
X0203150Y0206300D03*
X0209450Y0206300D03*
X0084450Y0206300D03*
X0078150Y0206300D03*
X0054450Y0186300D03*
X0048150Y0186300D03*
X0348150Y0286300D03*
X0354450Y0286300D03*
X0359650Y0291300D03*
X0365950Y0291300D03*
X0363150Y0276300D03*
X0369450Y0276300D03*
D16*
X0325300Y0169450D03*
X0325300Y0163150D03*
X0313300Y0163150D03*
X0313300Y0169450D03*
M02*
