%
M48
M72
T01C0.0060
T02C0.0120
T03C0.0256
T04C0.0350
T05C0.0400
%
T01
X31430Y14430
X32530Y14930
X32830Y14930
X33430Y14630
X33530Y13830
X32430Y12830
X31930Y13030
T02
X7005Y6130
X6630Y19505
X30255Y14880
X33255Y13005
X38505Y18505
X46005Y18380
X47005Y18880
X38880Y27130
X39130Y28130
T03
X33630Y26189
X33630Y23630
X23551Y13599
X23551Y11630
X18630Y11630
X16301Y11680
X16301Y13649
X18630Y13599
X11380Y13649
X9551Y14099
X9551Y12130
X11380Y11680
X11630Y7599
X11630Y5630
X16551Y5630
X16551Y7599
X4630Y12130
X4630Y14099
X11630Y18130
X11630Y20099
X16551Y20099
X16551Y18130
X52130Y24130
X52130Y26099
X57051Y26099
X57051Y24130
T04
X57457Y17920
X58457Y17920
X58457Y16920
X57457Y16920
X56457Y16920
X55457Y16920
X55457Y17920
X56457Y17920
X54457Y17920
X53457Y17920
X52457Y17920
X51457Y17920
X50457Y17920
X49457Y17920
X48457Y17920
X47457Y17920
X46457Y17920
X45457Y17920
X44457Y17920
X43457Y17920
X42457Y17920
X41457Y17920
X41457Y16920
X42457Y16920
X43457Y16920
X44457Y16920
X45457Y16920
X46457Y16920
X47457Y16920
X48457Y16920
X49457Y16920
X50457Y16920
X51457Y16920
X52457Y16920
X53457Y16920
X54457Y16920
X54457Y7920
X53457Y7920
X52457Y7920
X51457Y7920
X50457Y7920
X49457Y7920
X48457Y7920
X47457Y7920
X46457Y7920
X45457Y7920
X44457Y7920
X43457Y7920
X42457Y7920
X41457Y7920
X41457Y6920
X42457Y6920
X43457Y6920
X44457Y6920
X45457Y6920
X46457Y6920
X47457Y6920
X48457Y6920
X49457Y6920
X50457Y6920
X51457Y6920
X52457Y6920
X53457Y6920
X54457Y6920
X55457Y6920
X56457Y6920
X57457Y6920
X58457Y6920
X58457Y7920
X57457Y7920
X56457Y7920
X55457Y7920
T05
X45630Y30130
X44630Y30130
X43630Y30130
X42630Y30130
X41630Y30130
X40630Y30130
X21630Y30130
X20630Y30130
X19630Y30130
X18630Y30130
X17630Y30130
X16630Y30130
M30
