G75*
%MOIN*%
%OFA0B0*%
%FSLAX25Y25*%
%IPPOS*%
%LPD*%
%AMOC8*
5,1,8,0,0,1.08239X$1,22.5*
%
%ADD10C,0.05500*%
%ADD11C,0.06000*%
%ADD12C,0.04559*%
%ADD13C,0.02600*%
%ADD14C,0.03200*%
%ADD15C,0.00600*%
D10*
X0414568Y0069198D03*
X0424568Y0069198D03*
X0434568Y0069198D03*
X0444568Y0069198D03*
X0454568Y0069198D03*
X0464568Y0069198D03*
X0474568Y0069198D03*
X0484568Y0069198D03*
X0494568Y0069198D03*
X0504568Y0069198D03*
X0514568Y0069198D03*
X0524568Y0069198D03*
X0534568Y0069198D03*
X0544568Y0069198D03*
X0554568Y0069198D03*
X0564568Y0069198D03*
X0574568Y0069198D03*
X0584568Y0069198D03*
X0584568Y0079198D03*
X0574568Y0079198D03*
X0564568Y0079198D03*
X0554568Y0079198D03*
X0544568Y0079198D03*
X0534568Y0079198D03*
X0524568Y0079198D03*
X0514568Y0079198D03*
X0504568Y0079198D03*
X0494568Y0079198D03*
X0484568Y0079198D03*
X0474568Y0079198D03*
X0464568Y0079198D03*
X0454568Y0079198D03*
X0444568Y0079198D03*
X0434568Y0079198D03*
X0424568Y0079198D03*
X0414568Y0079198D03*
X0414568Y0169198D03*
X0414568Y0179198D03*
X0424568Y0179198D03*
X0434568Y0179198D03*
X0444568Y0179198D03*
X0454568Y0179198D03*
X0464568Y0179198D03*
X0474568Y0179198D03*
X0484568Y0179198D03*
X0494568Y0179198D03*
X0504568Y0179198D03*
X0514568Y0179198D03*
X0524568Y0179198D03*
X0534568Y0179198D03*
X0544568Y0179198D03*
X0554568Y0179198D03*
X0564568Y0179198D03*
X0574568Y0179198D03*
X0584568Y0179198D03*
X0584568Y0169198D03*
X0574568Y0169198D03*
X0564568Y0169198D03*
X0554568Y0169198D03*
X0544568Y0169198D03*
X0534568Y0169198D03*
X0524568Y0169198D03*
X0514568Y0169198D03*
X0504568Y0169198D03*
X0494568Y0169198D03*
X0484568Y0169198D03*
X0474568Y0169198D03*
X0464568Y0169198D03*
X0454568Y0169198D03*
X0444568Y0169198D03*
X0434568Y0169198D03*
X0424568Y0169198D03*
D11*
X0426300Y0301300D03*
X0436300Y0301300D03*
X0446300Y0301300D03*
X0456300Y0301300D03*
X0416300Y0301300D03*
X0406300Y0301300D03*
X0216300Y0301300D03*
X0206300Y0301300D03*
X0196300Y0301300D03*
X0186300Y0301300D03*
X0176300Y0301300D03*
X0166300Y0301300D03*
D12*
X0165513Y0200985D03*
X0165513Y0181300D03*
X0116300Y0181300D03*
X0116300Y0200985D03*
X0095513Y0140985D03*
X0113800Y0136485D03*
X0095513Y0121300D03*
X0113800Y0116800D03*
X0163013Y0116800D03*
X0186300Y0116300D03*
X0186300Y0135985D03*
X0163013Y0136485D03*
X0235513Y0135985D03*
X0235513Y0116300D03*
X0165513Y0075985D03*
X0165513Y0056300D03*
X0116300Y0056300D03*
X0116300Y0075985D03*
X0046300Y0121300D03*
X0046300Y0140985D03*
X0336300Y0236300D03*
X0336300Y0261891D03*
X0521300Y0260985D03*
X0521300Y0241300D03*
X0570513Y0241300D03*
X0570513Y0260985D03*
D13*
X0334300Y0146300D03*
X0328300Y0149300D03*
X0325300Y0149300D03*
X0314300Y0144300D03*
X0319300Y0130300D03*
X0324300Y0128300D03*
X0335300Y0138300D03*
D14*
X0332550Y0130050D03*
X0302550Y0148800D03*
X0385050Y0185050D03*
X0460050Y0183800D03*
X0470050Y0188800D03*
X0388800Y0271300D03*
X0391300Y0281300D03*
X0066300Y0195050D03*
X0070050Y0061300D03*
D15*
X0022600Y0022600D02*
X0022600Y0320000D01*
X0620000Y0320000D01*
X0620000Y0022600D01*
X0022600Y0022600D01*
X0022600Y0023096D02*
X0620000Y0023096D01*
X0620000Y0023694D02*
X0022600Y0023694D01*
X0022600Y0024293D02*
X0620000Y0024293D01*
X0620000Y0024891D02*
X0022600Y0024891D01*
X0022600Y0025490D02*
X0620000Y0025490D01*
X0620000Y0026088D02*
X0022600Y0026088D01*
X0022600Y0026687D02*
X0620000Y0026687D01*
X0620000Y0027285D02*
X0022600Y0027285D01*
X0022600Y0027884D02*
X0620000Y0027884D01*
X0620000Y0028482D02*
X0022600Y0028482D01*
X0022600Y0029081D02*
X0620000Y0029081D01*
X0620000Y0029679D02*
X0022600Y0029679D01*
X0022600Y0030278D02*
X0620000Y0030278D01*
X0620000Y0030876D02*
X0022600Y0030876D01*
X0022600Y0031475D02*
X0620000Y0031475D01*
X0620000Y0032073D02*
X0022600Y0032073D01*
X0022600Y0032672D02*
X0620000Y0032672D01*
X0620000Y0033270D02*
X0022600Y0033270D01*
X0022600Y0033869D02*
X0620000Y0033869D01*
X0620000Y0034467D02*
X0022600Y0034467D01*
X0022600Y0035066D02*
X0620000Y0035066D01*
X0620000Y0035664D02*
X0022600Y0035664D01*
X0022600Y0036263D02*
X0620000Y0036263D01*
X0620000Y0036861D02*
X0022600Y0036861D01*
X0022600Y0037460D02*
X0620000Y0037460D01*
X0620000Y0038058D02*
X0022600Y0038058D01*
X0022600Y0038657D02*
X0620000Y0038657D01*
X0620000Y0039255D02*
X0022600Y0039255D01*
X0022600Y0039854D02*
X0620000Y0039854D01*
X0620000Y0040452D02*
X0022600Y0040452D01*
X0022600Y0041051D02*
X0620000Y0041051D01*
X0620000Y0041649D02*
X0022600Y0041649D01*
X0022600Y0042248D02*
X0620000Y0042248D01*
X0620000Y0042846D02*
X0022600Y0042846D01*
X0022600Y0043445D02*
X0620000Y0043445D01*
X0620000Y0044043D02*
X0022600Y0044043D01*
X0022600Y0044642D02*
X0620000Y0044642D01*
X0620000Y0045240D02*
X0022600Y0045240D01*
X0022600Y0045839D02*
X0620000Y0045839D01*
X0620000Y0046437D02*
X0022600Y0046437D01*
X0022600Y0047036D02*
X0620000Y0047036D01*
X0620000Y0047634D02*
X0022600Y0047634D01*
X0022600Y0048233D02*
X0620000Y0048233D01*
X0620000Y0048832D02*
X0022600Y0048832D01*
X0022600Y0049430D02*
X0620000Y0049430D01*
X0620000Y0050029D02*
X0022600Y0050029D01*
X0022600Y0050627D02*
X0620000Y0050627D01*
X0620000Y0051226D02*
X0022600Y0051226D01*
X0022600Y0051824D02*
X0620000Y0051824D01*
X0620000Y0052423D02*
X0022600Y0052423D01*
X0022600Y0053021D02*
X0114862Y0053021D01*
X0114604Y0053128D02*
X0115256Y0052858D01*
X0115947Y0052720D01*
X0116000Y0052720D01*
X0116000Y0056000D01*
X0116600Y0056000D01*
X0116600Y0056600D01*
X0119880Y0056600D01*
X0119880Y0056653D01*
X0119742Y0057344D01*
X0119472Y0057996D01*
X0119080Y0058582D01*
X0118582Y0059080D01*
X0117996Y0059472D01*
X0117344Y0059742D01*
X0116653Y0059880D01*
X0116600Y0059880D01*
X0116600Y0056600D01*
X0116000Y0056600D01*
X0116000Y0059880D01*
X0115947Y0059880D01*
X0115256Y0059742D01*
X0114604Y0059472D01*
X0114018Y0059080D01*
X0113520Y0058582D01*
X0113128Y0057996D01*
X0112858Y0057344D01*
X0112720Y0056653D01*
X0112720Y0056600D01*
X0116000Y0056600D01*
X0116000Y0056000D01*
X0112720Y0056000D01*
X0112720Y0055947D01*
X0112858Y0055256D01*
X0113128Y0054604D01*
X0113520Y0054018D01*
X0114018Y0053520D01*
X0114604Y0053128D01*
X0113918Y0053620D02*
X0022600Y0053620D01*
X0022600Y0054218D02*
X0113386Y0054218D01*
X0113040Y0054817D02*
X0022600Y0054817D01*
X0022600Y0055415D02*
X0112826Y0055415D01*
X0112720Y0056612D02*
X0022600Y0056612D01*
X0022600Y0056014D02*
X0116000Y0056014D01*
X0116000Y0056612D02*
X0116600Y0056612D01*
X0116600Y0056014D02*
X0165213Y0056014D01*
X0165213Y0056000D02*
X0161933Y0056000D01*
X0161933Y0055947D01*
X0162071Y0055256D01*
X0162340Y0054604D01*
X0162732Y0054018D01*
X0163231Y0053520D01*
X0163817Y0053128D01*
X0164468Y0052858D01*
X0165160Y0052720D01*
X0165213Y0052720D01*
X0165213Y0056000D01*
X0165813Y0056000D01*
X0165813Y0056600D01*
X0169092Y0056600D01*
X0169092Y0056653D01*
X0168955Y0057344D01*
X0168685Y0057996D01*
X0168293Y0058582D01*
X0167794Y0059080D01*
X0167208Y0059472D01*
X0166557Y0059742D01*
X0165865Y0059880D01*
X0165813Y0059880D01*
X0165813Y0056600D01*
X0165213Y0056600D01*
X0165213Y0059880D01*
X0165160Y0059880D01*
X0164468Y0059742D01*
X0163817Y0059472D01*
X0163231Y0059080D01*
X0162732Y0058582D01*
X0162340Y0057996D01*
X0162071Y0057344D01*
X0161933Y0056653D01*
X0161933Y0056600D01*
X0165213Y0056600D01*
X0165213Y0056000D01*
X0165213Y0055415D02*
X0165813Y0055415D01*
X0165813Y0056000D02*
X0165813Y0052720D01*
X0165865Y0052720D01*
X0166557Y0052858D01*
X0167208Y0053128D01*
X0167794Y0053520D01*
X0168293Y0054018D01*
X0168685Y0054604D01*
X0168955Y0055256D01*
X0169092Y0055947D01*
X0169092Y0056000D01*
X0165813Y0056000D01*
X0165813Y0056014D02*
X0620000Y0056014D01*
X0620000Y0056612D02*
X0169092Y0056612D01*
X0168981Y0057211D02*
X0620000Y0057211D01*
X0620000Y0057809D02*
X0168762Y0057809D01*
X0168409Y0058408D02*
X0620000Y0058408D01*
X0620000Y0059006D02*
X0167869Y0059006D01*
X0166888Y0059605D02*
X0620000Y0059605D01*
X0620000Y0060203D02*
X0072735Y0060203D01*
X0072950Y0060723D02*
X0072508Y0059657D01*
X0071693Y0058841D01*
X0070627Y0058400D01*
X0069473Y0058400D01*
X0068407Y0058841D01*
X0067591Y0059657D01*
X0067150Y0060723D01*
X0067150Y0061877D01*
X0067591Y0062943D01*
X0068407Y0063758D01*
X0069473Y0064200D01*
X0070627Y0064200D01*
X0071693Y0063758D01*
X0072508Y0062943D01*
X0072950Y0061877D01*
X0072950Y0060723D01*
X0072950Y0060802D02*
X0620000Y0060802D01*
X0620000Y0061400D02*
X0072950Y0061400D01*
X0072899Y0061999D02*
X0620000Y0061999D01*
X0620000Y0062597D02*
X0072652Y0062597D01*
X0072255Y0063196D02*
X0620000Y0063196D01*
X0620000Y0063794D02*
X0071606Y0063794D01*
X0068494Y0063794D02*
X0022600Y0063794D01*
X0022600Y0063196D02*
X0067845Y0063196D01*
X0067448Y0062597D02*
X0022600Y0062597D01*
X0022600Y0061999D02*
X0067201Y0061999D01*
X0067150Y0061400D02*
X0022600Y0061400D01*
X0022600Y0060802D02*
X0067150Y0060802D01*
X0067365Y0060203D02*
X0022600Y0060203D01*
X0022600Y0059605D02*
X0067644Y0059605D01*
X0068243Y0059006D02*
X0022600Y0059006D01*
X0022600Y0058408D02*
X0069455Y0058408D01*
X0070645Y0058408D02*
X0113403Y0058408D01*
X0113051Y0057809D02*
X0022600Y0057809D01*
X0022600Y0057211D02*
X0112831Y0057211D01*
X0113944Y0059006D02*
X0071857Y0059006D01*
X0072456Y0059605D02*
X0114925Y0059605D01*
X0116000Y0059605D02*
X0116600Y0059605D01*
X0116600Y0059006D02*
X0116000Y0059006D01*
X0116000Y0058408D02*
X0116600Y0058408D01*
X0116600Y0057809D02*
X0116000Y0057809D01*
X0116000Y0057211D02*
X0116600Y0057211D01*
X0116600Y0056000D02*
X0119880Y0056000D01*
X0119880Y0055947D01*
X0119742Y0055256D01*
X0119472Y0054604D01*
X0119080Y0054018D01*
X0118582Y0053520D01*
X0117996Y0053128D01*
X0117344Y0052858D01*
X0116653Y0052720D01*
X0116600Y0052720D01*
X0116600Y0056000D01*
X0116600Y0055415D02*
X0116000Y0055415D01*
X0116000Y0054817D02*
X0116600Y0054817D01*
X0116600Y0054218D02*
X0116000Y0054218D01*
X0116000Y0053620D02*
X0116600Y0053620D01*
X0116600Y0053021D02*
X0116000Y0053021D01*
X0117738Y0053021D02*
X0164075Y0053021D01*
X0163131Y0053620D02*
X0118682Y0053620D01*
X0119214Y0054218D02*
X0162599Y0054218D01*
X0162253Y0054817D02*
X0119560Y0054817D01*
X0119774Y0055415D02*
X0162039Y0055415D01*
X0161933Y0056612D02*
X0119880Y0056612D01*
X0119769Y0057211D02*
X0162044Y0057211D01*
X0162263Y0057809D02*
X0119549Y0057809D01*
X0119197Y0058408D02*
X0162616Y0058408D01*
X0163157Y0059006D02*
X0118656Y0059006D01*
X0117675Y0059605D02*
X0164137Y0059605D01*
X0165213Y0059605D02*
X0165813Y0059605D01*
X0165813Y0059006D02*
X0165213Y0059006D01*
X0165213Y0058408D02*
X0165813Y0058408D01*
X0165813Y0057809D02*
X0165213Y0057809D01*
X0165213Y0057211D02*
X0165813Y0057211D01*
X0165813Y0056612D02*
X0165213Y0056612D01*
X0165213Y0054817D02*
X0165813Y0054817D01*
X0165813Y0054218D02*
X0165213Y0054218D01*
X0165213Y0053620D02*
X0165813Y0053620D01*
X0165813Y0053021D02*
X0165213Y0053021D01*
X0166950Y0053021D02*
X0620000Y0053021D01*
X0620000Y0053620D02*
X0167894Y0053620D01*
X0168427Y0054218D02*
X0620000Y0054218D01*
X0620000Y0054817D02*
X0168773Y0054817D01*
X0168986Y0055415D02*
X0620000Y0055415D01*
X0620000Y0064393D02*
X0022600Y0064393D01*
X0022600Y0064991D02*
X0620000Y0064991D01*
X0620000Y0065590D02*
X0586441Y0065590D01*
X0586862Y0065764D02*
X0588001Y0066903D01*
X0588618Y0068392D01*
X0588618Y0070003D01*
X0588001Y0071492D01*
X0586862Y0072631D01*
X0585373Y0073248D01*
X0583762Y0073248D01*
X0582274Y0072631D01*
X0581134Y0071492D01*
X0580518Y0070003D01*
X0580518Y0068392D01*
X0581134Y0066903D01*
X0582274Y0065764D01*
X0583762Y0065148D01*
X0585373Y0065148D01*
X0586862Y0065764D01*
X0587286Y0066188D02*
X0620000Y0066188D01*
X0620000Y0066787D02*
X0587884Y0066787D01*
X0588201Y0067385D02*
X0620000Y0067385D01*
X0620000Y0067984D02*
X0588449Y0067984D01*
X0588618Y0068582D02*
X0620000Y0068582D01*
X0620000Y0069181D02*
X0588618Y0069181D01*
X0588618Y0069779D02*
X0620000Y0069779D01*
X0620000Y0070378D02*
X0588463Y0070378D01*
X0588215Y0070976D02*
X0620000Y0070976D01*
X0620000Y0071575D02*
X0587918Y0071575D01*
X0587319Y0072173D02*
X0620000Y0072173D01*
X0620000Y0072772D02*
X0586522Y0072772D01*
X0585418Y0075166D02*
X0620000Y0075166D01*
X0620000Y0074568D02*
X0168800Y0074568D01*
X0169048Y0075166D02*
X0413718Y0075166D01*
X0413762Y0075148D02*
X0415373Y0075148D01*
X0416862Y0075764D01*
X0418001Y0076903D01*
X0418618Y0078392D01*
X0418618Y0080003D01*
X0418001Y0081492D01*
X0416862Y0082631D01*
X0415373Y0083248D01*
X0413762Y0083248D01*
X0412274Y0082631D01*
X0411134Y0081492D01*
X0410518Y0080003D01*
X0410518Y0078392D01*
X0411134Y0076903D01*
X0412274Y0075764D01*
X0413762Y0075148D01*
X0412273Y0075765D02*
X0169092Y0075765D01*
X0169092Y0075273D02*
X0168547Y0073957D01*
X0167540Y0072950D01*
X0166225Y0072406D01*
X0164801Y0072406D01*
X0163485Y0072950D01*
X0162478Y0073957D01*
X0161933Y0075273D01*
X0161933Y0076697D01*
X0162478Y0078013D01*
X0163485Y0079020D01*
X0164801Y0079565D01*
X0166225Y0079565D01*
X0167540Y0079020D01*
X0168547Y0078013D01*
X0169092Y0076697D01*
X0169092Y0075273D01*
X0169092Y0076363D02*
X0411675Y0076363D01*
X0411110Y0076962D02*
X0168983Y0076962D01*
X0168735Y0077560D02*
X0410862Y0077560D01*
X0410614Y0078159D02*
X0168401Y0078159D01*
X0167803Y0078757D02*
X0410518Y0078757D01*
X0410518Y0079356D02*
X0166729Y0079356D01*
X0164296Y0079356D02*
X0117516Y0079356D01*
X0117012Y0079565D02*
X0115588Y0079565D01*
X0114272Y0079020D01*
X0113265Y0078013D01*
X0112720Y0076697D01*
X0112720Y0075273D01*
X0113265Y0073957D01*
X0114272Y0072950D01*
X0115588Y0072406D01*
X0117012Y0072406D01*
X0118328Y0072950D01*
X0119335Y0073957D01*
X0119880Y0075273D01*
X0119880Y0076697D01*
X0119335Y0078013D01*
X0118328Y0079020D01*
X0117012Y0079565D01*
X0118590Y0078757D02*
X0163222Y0078757D01*
X0162624Y0078159D02*
X0119189Y0078159D01*
X0119522Y0077560D02*
X0162291Y0077560D01*
X0162043Y0076962D02*
X0119770Y0076962D01*
X0119880Y0076363D02*
X0161933Y0076363D01*
X0161933Y0075765D02*
X0119880Y0075765D01*
X0119835Y0075166D02*
X0161977Y0075166D01*
X0162225Y0074568D02*
X0119587Y0074568D01*
X0119339Y0073969D02*
X0162473Y0073969D01*
X0163065Y0073370D02*
X0118748Y0073370D01*
X0117897Y0072772D02*
X0163916Y0072772D01*
X0167109Y0072772D02*
X0412614Y0072772D01*
X0412274Y0072631D02*
X0411134Y0071492D01*
X0410518Y0070003D01*
X0410518Y0068392D01*
X0411134Y0066903D01*
X0412274Y0065764D01*
X0413762Y0065148D01*
X0415373Y0065148D01*
X0416862Y0065764D01*
X0418001Y0066903D01*
X0418618Y0068392D01*
X0418618Y0070003D01*
X0418001Y0071492D01*
X0416862Y0072631D01*
X0415373Y0073248D01*
X0413762Y0073248D01*
X0412274Y0072631D01*
X0411816Y0072173D02*
X0022600Y0072173D01*
X0022600Y0071575D02*
X0411217Y0071575D01*
X0410921Y0070976D02*
X0022600Y0070976D01*
X0022600Y0070378D02*
X0410673Y0070378D01*
X0410518Y0069779D02*
X0022600Y0069779D01*
X0022600Y0069181D02*
X0410518Y0069181D01*
X0410518Y0068582D02*
X0022600Y0068582D01*
X0022600Y0067984D02*
X0410687Y0067984D01*
X0410935Y0067385D02*
X0022600Y0067385D01*
X0022600Y0066787D02*
X0411251Y0066787D01*
X0411849Y0066188D02*
X0022600Y0066188D01*
X0022600Y0065590D02*
X0412695Y0065590D01*
X0416441Y0065590D02*
X0422695Y0065590D01*
X0422274Y0065764D02*
X0423762Y0065148D01*
X0425373Y0065148D01*
X0426862Y0065764D01*
X0428001Y0066903D01*
X0428618Y0068392D01*
X0428618Y0070003D01*
X0428001Y0071492D01*
X0426862Y0072631D01*
X0425373Y0073248D01*
X0423762Y0073248D01*
X0422274Y0072631D01*
X0421134Y0071492D01*
X0420518Y0070003D01*
X0420518Y0068392D01*
X0421134Y0066903D01*
X0422274Y0065764D01*
X0421849Y0066188D02*
X0417286Y0066188D01*
X0417884Y0066787D02*
X0421251Y0066787D01*
X0420935Y0067385D02*
X0418201Y0067385D01*
X0418449Y0067984D02*
X0420687Y0067984D01*
X0420518Y0068582D02*
X0418618Y0068582D01*
X0418618Y0069181D02*
X0420518Y0069181D01*
X0420518Y0069779D02*
X0418618Y0069779D01*
X0418463Y0070378D02*
X0420673Y0070378D01*
X0420921Y0070976D02*
X0418215Y0070976D01*
X0417918Y0071575D02*
X0421217Y0071575D01*
X0421816Y0072173D02*
X0417319Y0072173D01*
X0416522Y0072772D02*
X0422614Y0072772D01*
X0423718Y0075166D02*
X0415418Y0075166D01*
X0416862Y0075765D02*
X0422273Y0075765D01*
X0422274Y0075764D02*
X0423762Y0075148D01*
X0425373Y0075148D01*
X0426862Y0075764D01*
X0428001Y0076903D01*
X0428618Y0078392D01*
X0428618Y0080003D01*
X0428001Y0081492D01*
X0426862Y0082631D01*
X0425373Y0083248D01*
X0423762Y0083248D01*
X0422274Y0082631D01*
X0421134Y0081492D01*
X0420518Y0080003D01*
X0420518Y0078392D01*
X0421134Y0076903D01*
X0422274Y0075764D01*
X0421675Y0076363D02*
X0417461Y0076363D01*
X0418025Y0076962D02*
X0421110Y0076962D01*
X0420862Y0077560D02*
X0418273Y0077560D01*
X0418521Y0078159D02*
X0420614Y0078159D01*
X0420518Y0078757D02*
X0418618Y0078757D01*
X0418618Y0079356D02*
X0420518Y0079356D01*
X0420518Y0079954D02*
X0418618Y0079954D01*
X0418390Y0080553D02*
X0420745Y0080553D01*
X0420993Y0081151D02*
X0418142Y0081151D01*
X0417743Y0081750D02*
X0421392Y0081750D01*
X0421991Y0082348D02*
X0417145Y0082348D01*
X0416100Y0082947D02*
X0423036Y0082947D01*
X0426100Y0082947D02*
X0433036Y0082947D01*
X0433762Y0083248D02*
X0432274Y0082631D01*
X0431134Y0081492D01*
X0430518Y0080003D01*
X0430518Y0078392D01*
X0431134Y0076903D01*
X0432274Y0075764D01*
X0433762Y0075148D01*
X0435373Y0075148D01*
X0436862Y0075764D01*
X0438001Y0076903D01*
X0438618Y0078392D01*
X0438618Y0080003D01*
X0438001Y0081492D01*
X0436862Y0082631D01*
X0435373Y0083248D01*
X0433762Y0083248D01*
X0431991Y0082348D02*
X0427145Y0082348D01*
X0427743Y0081750D02*
X0431392Y0081750D01*
X0430993Y0081151D02*
X0428142Y0081151D01*
X0428390Y0080553D02*
X0430745Y0080553D01*
X0430518Y0079954D02*
X0428618Y0079954D01*
X0428618Y0079356D02*
X0430518Y0079356D01*
X0430518Y0078757D02*
X0428618Y0078757D01*
X0428521Y0078159D02*
X0430614Y0078159D01*
X0430862Y0077560D02*
X0428273Y0077560D01*
X0428025Y0076962D02*
X0431110Y0076962D01*
X0431675Y0076363D02*
X0427461Y0076363D01*
X0426862Y0075765D02*
X0432273Y0075765D01*
X0433718Y0075166D02*
X0425418Y0075166D01*
X0426522Y0072772D02*
X0432614Y0072772D01*
X0432274Y0072631D02*
X0431134Y0071492D01*
X0430518Y0070003D01*
X0430518Y0068392D01*
X0431134Y0066903D01*
X0432274Y0065764D01*
X0433762Y0065148D01*
X0435373Y0065148D01*
X0436862Y0065764D01*
X0438001Y0066903D01*
X0438618Y0068392D01*
X0438618Y0070003D01*
X0438001Y0071492D01*
X0436862Y0072631D01*
X0435373Y0073248D01*
X0433762Y0073248D01*
X0432274Y0072631D01*
X0431816Y0072173D02*
X0427319Y0072173D01*
X0427918Y0071575D02*
X0431217Y0071575D01*
X0430921Y0070976D02*
X0428215Y0070976D01*
X0428463Y0070378D02*
X0430673Y0070378D01*
X0430518Y0069779D02*
X0428618Y0069779D01*
X0428618Y0069181D02*
X0430518Y0069181D01*
X0430518Y0068582D02*
X0428618Y0068582D01*
X0428449Y0067984D02*
X0430687Y0067984D01*
X0430935Y0067385D02*
X0428201Y0067385D01*
X0427884Y0066787D02*
X0431251Y0066787D01*
X0431849Y0066188D02*
X0427286Y0066188D01*
X0426441Y0065590D02*
X0432695Y0065590D01*
X0436441Y0065590D02*
X0442695Y0065590D01*
X0442274Y0065764D02*
X0443762Y0065148D01*
X0445373Y0065148D01*
X0446862Y0065764D01*
X0448001Y0066903D01*
X0448618Y0068392D01*
X0448618Y0070003D01*
X0448001Y0071492D01*
X0446862Y0072631D01*
X0445373Y0073248D01*
X0443762Y0073248D01*
X0442274Y0072631D01*
X0441134Y0071492D01*
X0440518Y0070003D01*
X0440518Y0068392D01*
X0441134Y0066903D01*
X0442274Y0065764D01*
X0441849Y0066188D02*
X0437286Y0066188D01*
X0437884Y0066787D02*
X0441251Y0066787D01*
X0440935Y0067385D02*
X0438201Y0067385D01*
X0438449Y0067984D02*
X0440687Y0067984D01*
X0440518Y0068582D02*
X0438618Y0068582D01*
X0438618Y0069181D02*
X0440518Y0069181D01*
X0440518Y0069779D02*
X0438618Y0069779D01*
X0438463Y0070378D02*
X0440673Y0070378D01*
X0440921Y0070976D02*
X0438215Y0070976D01*
X0437918Y0071575D02*
X0441217Y0071575D01*
X0441816Y0072173D02*
X0437319Y0072173D01*
X0436522Y0072772D02*
X0442614Y0072772D01*
X0443718Y0075166D02*
X0435418Y0075166D01*
X0436862Y0075765D02*
X0442273Y0075765D01*
X0442274Y0075764D02*
X0443762Y0075148D01*
X0445373Y0075148D01*
X0446862Y0075764D01*
X0448001Y0076903D01*
X0448618Y0078392D01*
X0448618Y0080003D01*
X0448001Y0081492D01*
X0446862Y0082631D01*
X0445373Y0083248D01*
X0443762Y0083248D01*
X0442274Y0082631D01*
X0441134Y0081492D01*
X0440518Y0080003D01*
X0440518Y0078392D01*
X0441134Y0076903D01*
X0442274Y0075764D01*
X0441675Y0076363D02*
X0437461Y0076363D01*
X0438025Y0076962D02*
X0441110Y0076962D01*
X0440862Y0077560D02*
X0438273Y0077560D01*
X0438521Y0078159D02*
X0440614Y0078159D01*
X0440518Y0078757D02*
X0438618Y0078757D01*
X0438618Y0079356D02*
X0440518Y0079356D01*
X0440518Y0079954D02*
X0438618Y0079954D01*
X0438390Y0080553D02*
X0440745Y0080553D01*
X0440993Y0081151D02*
X0438142Y0081151D01*
X0437743Y0081750D02*
X0441392Y0081750D01*
X0441991Y0082348D02*
X0437145Y0082348D01*
X0436100Y0082947D02*
X0443036Y0082947D01*
X0446100Y0082947D02*
X0453036Y0082947D01*
X0453762Y0083248D02*
X0452274Y0082631D01*
X0451134Y0081492D01*
X0450518Y0080003D01*
X0450518Y0078392D01*
X0451134Y0076903D01*
X0452274Y0075764D01*
X0453762Y0075148D01*
X0455373Y0075148D01*
X0456862Y0075764D01*
X0458001Y0076903D01*
X0458618Y0078392D01*
X0458618Y0080003D01*
X0458001Y0081492D01*
X0456862Y0082631D01*
X0455373Y0083248D01*
X0453762Y0083248D01*
X0451991Y0082348D02*
X0447145Y0082348D01*
X0447743Y0081750D02*
X0451392Y0081750D01*
X0450993Y0081151D02*
X0448142Y0081151D01*
X0448390Y0080553D02*
X0450745Y0080553D01*
X0450518Y0079954D02*
X0448618Y0079954D01*
X0448618Y0079356D02*
X0450518Y0079356D01*
X0450518Y0078757D02*
X0448618Y0078757D01*
X0448521Y0078159D02*
X0450614Y0078159D01*
X0450862Y0077560D02*
X0448273Y0077560D01*
X0448025Y0076962D02*
X0451110Y0076962D01*
X0451675Y0076363D02*
X0447461Y0076363D01*
X0446862Y0075765D02*
X0452273Y0075765D01*
X0453718Y0075166D02*
X0445418Y0075166D01*
X0446522Y0072772D02*
X0452614Y0072772D01*
X0452274Y0072631D02*
X0451134Y0071492D01*
X0450518Y0070003D01*
X0450518Y0068392D01*
X0451134Y0066903D01*
X0452274Y0065764D01*
X0453762Y0065148D01*
X0455373Y0065148D01*
X0456862Y0065764D01*
X0458001Y0066903D01*
X0458618Y0068392D01*
X0458618Y0070003D01*
X0458001Y0071492D01*
X0456862Y0072631D01*
X0455373Y0073248D01*
X0453762Y0073248D01*
X0452274Y0072631D01*
X0451816Y0072173D02*
X0447319Y0072173D01*
X0447918Y0071575D02*
X0451217Y0071575D01*
X0450921Y0070976D02*
X0448215Y0070976D01*
X0448463Y0070378D02*
X0450673Y0070378D01*
X0450518Y0069779D02*
X0448618Y0069779D01*
X0448618Y0069181D02*
X0450518Y0069181D01*
X0450518Y0068582D02*
X0448618Y0068582D01*
X0448449Y0067984D02*
X0450687Y0067984D01*
X0450935Y0067385D02*
X0448201Y0067385D01*
X0447884Y0066787D02*
X0451251Y0066787D01*
X0451849Y0066188D02*
X0447286Y0066188D01*
X0446441Y0065590D02*
X0452695Y0065590D01*
X0456441Y0065590D02*
X0462695Y0065590D01*
X0462274Y0065764D02*
X0463762Y0065148D01*
X0465373Y0065148D01*
X0466862Y0065764D01*
X0468001Y0066903D01*
X0468618Y0068392D01*
X0468618Y0070003D01*
X0468001Y0071492D01*
X0466862Y0072631D01*
X0465373Y0073248D01*
X0463762Y0073248D01*
X0462274Y0072631D01*
X0461134Y0071492D01*
X0460518Y0070003D01*
X0460518Y0068392D01*
X0461134Y0066903D01*
X0462274Y0065764D01*
X0461849Y0066188D02*
X0457286Y0066188D01*
X0457884Y0066787D02*
X0461251Y0066787D01*
X0460935Y0067385D02*
X0458201Y0067385D01*
X0458449Y0067984D02*
X0460687Y0067984D01*
X0460518Y0068582D02*
X0458618Y0068582D01*
X0458618Y0069181D02*
X0460518Y0069181D01*
X0460518Y0069779D02*
X0458618Y0069779D01*
X0458463Y0070378D02*
X0460673Y0070378D01*
X0460921Y0070976D02*
X0458215Y0070976D01*
X0457918Y0071575D02*
X0461217Y0071575D01*
X0461816Y0072173D02*
X0457319Y0072173D01*
X0456522Y0072772D02*
X0462614Y0072772D01*
X0463718Y0075166D02*
X0455418Y0075166D01*
X0456862Y0075765D02*
X0462273Y0075765D01*
X0462274Y0075764D02*
X0463762Y0075148D01*
X0465373Y0075148D01*
X0466862Y0075764D01*
X0468001Y0076903D01*
X0468618Y0078392D01*
X0468618Y0080003D01*
X0468001Y0081492D01*
X0466862Y0082631D01*
X0465373Y0083248D01*
X0463762Y0083248D01*
X0462274Y0082631D01*
X0461134Y0081492D01*
X0460518Y0080003D01*
X0460518Y0078392D01*
X0461134Y0076903D01*
X0462274Y0075764D01*
X0461675Y0076363D02*
X0457461Y0076363D01*
X0458025Y0076962D02*
X0461110Y0076962D01*
X0460862Y0077560D02*
X0458273Y0077560D01*
X0458521Y0078159D02*
X0460614Y0078159D01*
X0460518Y0078757D02*
X0458618Y0078757D01*
X0458618Y0079356D02*
X0460518Y0079356D01*
X0460518Y0079954D02*
X0458618Y0079954D01*
X0458390Y0080553D02*
X0460745Y0080553D01*
X0460993Y0081151D02*
X0458142Y0081151D01*
X0457743Y0081750D02*
X0461392Y0081750D01*
X0461991Y0082348D02*
X0457145Y0082348D01*
X0456100Y0082947D02*
X0463036Y0082947D01*
X0466100Y0082947D02*
X0473036Y0082947D01*
X0473762Y0083248D02*
X0472274Y0082631D01*
X0471134Y0081492D01*
X0470518Y0080003D01*
X0470518Y0078392D01*
X0471134Y0076903D01*
X0472274Y0075764D01*
X0473762Y0075148D01*
X0475373Y0075148D01*
X0476862Y0075764D01*
X0478001Y0076903D01*
X0478618Y0078392D01*
X0478618Y0080003D01*
X0478001Y0081492D01*
X0476862Y0082631D01*
X0475373Y0083248D01*
X0473762Y0083248D01*
X0471991Y0082348D02*
X0467145Y0082348D01*
X0467743Y0081750D02*
X0471392Y0081750D01*
X0470993Y0081151D02*
X0468142Y0081151D01*
X0468390Y0080553D02*
X0470745Y0080553D01*
X0470518Y0079954D02*
X0468618Y0079954D01*
X0468618Y0079356D02*
X0470518Y0079356D01*
X0470518Y0078757D02*
X0468618Y0078757D01*
X0468521Y0078159D02*
X0470614Y0078159D01*
X0470862Y0077560D02*
X0468273Y0077560D01*
X0468025Y0076962D02*
X0471110Y0076962D01*
X0471675Y0076363D02*
X0467461Y0076363D01*
X0466862Y0075765D02*
X0472273Y0075765D01*
X0473718Y0075166D02*
X0465418Y0075166D01*
X0466522Y0072772D02*
X0472614Y0072772D01*
X0472274Y0072631D02*
X0471134Y0071492D01*
X0470518Y0070003D01*
X0470518Y0068392D01*
X0471134Y0066903D01*
X0472274Y0065764D01*
X0473762Y0065148D01*
X0475373Y0065148D01*
X0476862Y0065764D01*
X0478001Y0066903D01*
X0478618Y0068392D01*
X0478618Y0070003D01*
X0478001Y0071492D01*
X0476862Y0072631D01*
X0475373Y0073248D01*
X0473762Y0073248D01*
X0472274Y0072631D01*
X0471816Y0072173D02*
X0467319Y0072173D01*
X0467918Y0071575D02*
X0471217Y0071575D01*
X0470921Y0070976D02*
X0468215Y0070976D01*
X0468463Y0070378D02*
X0470673Y0070378D01*
X0470518Y0069779D02*
X0468618Y0069779D01*
X0468618Y0069181D02*
X0470518Y0069181D01*
X0470518Y0068582D02*
X0468618Y0068582D01*
X0468449Y0067984D02*
X0470687Y0067984D01*
X0470935Y0067385D02*
X0468201Y0067385D01*
X0467884Y0066787D02*
X0471251Y0066787D01*
X0471849Y0066188D02*
X0467286Y0066188D01*
X0466441Y0065590D02*
X0472695Y0065590D01*
X0476441Y0065590D02*
X0482695Y0065590D01*
X0482274Y0065764D02*
X0483762Y0065148D01*
X0485373Y0065148D01*
X0486862Y0065764D01*
X0488001Y0066903D01*
X0488618Y0068392D01*
X0488618Y0070003D01*
X0488001Y0071492D01*
X0486862Y0072631D01*
X0485373Y0073248D01*
X0483762Y0073248D01*
X0482274Y0072631D01*
X0481134Y0071492D01*
X0480518Y0070003D01*
X0480518Y0068392D01*
X0481134Y0066903D01*
X0482274Y0065764D01*
X0481849Y0066188D02*
X0477286Y0066188D01*
X0477884Y0066787D02*
X0481251Y0066787D01*
X0480935Y0067385D02*
X0478201Y0067385D01*
X0478449Y0067984D02*
X0480687Y0067984D01*
X0480518Y0068582D02*
X0478618Y0068582D01*
X0478618Y0069181D02*
X0480518Y0069181D01*
X0480518Y0069779D02*
X0478618Y0069779D01*
X0478463Y0070378D02*
X0480673Y0070378D01*
X0480921Y0070976D02*
X0478215Y0070976D01*
X0477918Y0071575D02*
X0481217Y0071575D01*
X0481816Y0072173D02*
X0477319Y0072173D01*
X0476522Y0072772D02*
X0482614Y0072772D01*
X0483386Y0075303D02*
X0484169Y0075148D01*
X0484268Y0075148D01*
X0484268Y0078898D01*
X0480518Y0078898D01*
X0480518Y0078799D01*
X0480673Y0078016D01*
X0480979Y0077279D01*
X0481422Y0076616D01*
X0481986Y0076052D01*
X0482649Y0075609D01*
X0483386Y0075303D01*
X0484076Y0075166D02*
X0475418Y0075166D01*
X0476862Y0075765D02*
X0482416Y0075765D01*
X0481675Y0076363D02*
X0477461Y0076363D01*
X0478025Y0076962D02*
X0481191Y0076962D01*
X0480862Y0077560D02*
X0478273Y0077560D01*
X0478521Y0078159D02*
X0480645Y0078159D01*
X0480526Y0078757D02*
X0478618Y0078757D01*
X0478618Y0079356D02*
X0484268Y0079356D01*
X0484268Y0079498D02*
X0484268Y0078898D01*
X0484868Y0078898D01*
X0484868Y0079498D01*
X0484268Y0079498D01*
X0484268Y0083248D01*
X0484169Y0083248D01*
X0483386Y0083092D01*
X0482649Y0082787D01*
X0481986Y0082343D01*
X0481422Y0081779D01*
X0480979Y0081116D01*
X0480673Y0080379D01*
X0480518Y0079597D01*
X0480518Y0079498D01*
X0484268Y0079498D01*
X0484268Y0079954D02*
X0484868Y0079954D01*
X0484868Y0079498D02*
X0484868Y0083248D01*
X0484967Y0083248D01*
X0485749Y0083092D01*
X0486486Y0082787D01*
X0487149Y0082343D01*
X0487714Y0081779D01*
X0488157Y0081116D01*
X0488462Y0080379D01*
X0488618Y0079597D01*
X0488618Y0079498D01*
X0484868Y0079498D01*
X0484868Y0079356D02*
X0490518Y0079356D01*
X0490518Y0079954D02*
X0488547Y0079954D01*
X0488390Y0080553D02*
X0490745Y0080553D01*
X0490518Y0080003D02*
X0490518Y0078392D01*
X0491134Y0076903D01*
X0492274Y0075764D01*
X0493762Y0075148D01*
X0495373Y0075148D01*
X0496862Y0075764D01*
X0498001Y0076903D01*
X0498618Y0078392D01*
X0498618Y0080003D01*
X0498001Y0081492D01*
X0496862Y0082631D01*
X0495373Y0083248D01*
X0493762Y0083248D01*
X0492274Y0082631D01*
X0491134Y0081492D01*
X0490518Y0080003D01*
X0490993Y0081151D02*
X0488133Y0081151D01*
X0487733Y0081750D02*
X0491392Y0081750D01*
X0491991Y0082348D02*
X0487142Y0082348D01*
X0486100Y0082947D02*
X0493036Y0082947D01*
X0496100Y0082947D02*
X0503036Y0082947D01*
X0503762Y0083248D02*
X0502274Y0082631D01*
X0501134Y0081492D01*
X0500518Y0080003D01*
X0500518Y0078392D01*
X0501134Y0076903D01*
X0502274Y0075764D01*
X0503762Y0075148D01*
X0505373Y0075148D01*
X0506862Y0075764D01*
X0508001Y0076903D01*
X0508618Y0078392D01*
X0508618Y0080003D01*
X0508001Y0081492D01*
X0506862Y0082631D01*
X0505373Y0083248D01*
X0503762Y0083248D01*
X0501991Y0082348D02*
X0497145Y0082348D01*
X0497743Y0081750D02*
X0501392Y0081750D01*
X0500993Y0081151D02*
X0498142Y0081151D01*
X0498390Y0080553D02*
X0500745Y0080553D01*
X0500518Y0079954D02*
X0498618Y0079954D01*
X0498618Y0079356D02*
X0500518Y0079356D01*
X0500518Y0078757D02*
X0498618Y0078757D01*
X0498521Y0078159D02*
X0500614Y0078159D01*
X0500862Y0077560D02*
X0498273Y0077560D01*
X0498025Y0076962D02*
X0501110Y0076962D01*
X0501675Y0076363D02*
X0497461Y0076363D01*
X0496862Y0075765D02*
X0502273Y0075765D01*
X0503718Y0075166D02*
X0495418Y0075166D01*
X0493718Y0075166D02*
X0485059Y0075166D01*
X0484967Y0075148D02*
X0485749Y0075303D01*
X0486486Y0075609D01*
X0487149Y0076052D01*
X0487714Y0076616D01*
X0488157Y0077279D01*
X0488462Y0078016D01*
X0488618Y0078799D01*
X0488618Y0078898D01*
X0484868Y0078898D01*
X0484868Y0075148D01*
X0484967Y0075148D01*
X0484868Y0075166D02*
X0484268Y0075166D01*
X0484268Y0075765D02*
X0484868Y0075765D01*
X0484868Y0076363D02*
X0484268Y0076363D01*
X0484268Y0076962D02*
X0484868Y0076962D01*
X0484868Y0077560D02*
X0484268Y0077560D01*
X0484268Y0078159D02*
X0484868Y0078159D01*
X0484868Y0078757D02*
X0484268Y0078757D01*
X0484268Y0080553D02*
X0484868Y0080553D01*
X0484868Y0081151D02*
X0484268Y0081151D01*
X0484268Y0081750D02*
X0484868Y0081750D01*
X0484868Y0082348D02*
X0484268Y0082348D01*
X0484268Y0082947D02*
X0484868Y0082947D01*
X0483036Y0082947D02*
X0476100Y0082947D01*
X0477145Y0082348D02*
X0481993Y0082348D01*
X0481402Y0081750D02*
X0477743Y0081750D01*
X0478142Y0081151D02*
X0481002Y0081151D01*
X0480745Y0080553D02*
X0478390Y0080553D01*
X0478618Y0079954D02*
X0480589Y0079954D01*
X0486720Y0075765D02*
X0492273Y0075765D01*
X0491675Y0076363D02*
X0487461Y0076363D01*
X0487944Y0076962D02*
X0491110Y0076962D01*
X0490862Y0077560D02*
X0488273Y0077560D01*
X0488490Y0078159D02*
X0490614Y0078159D01*
X0490518Y0078757D02*
X0488609Y0078757D01*
X0486522Y0072772D02*
X0492614Y0072772D01*
X0492274Y0072631D02*
X0491134Y0071492D01*
X0490518Y0070003D01*
X0490518Y0068392D01*
X0491134Y0066903D01*
X0492274Y0065764D01*
X0493762Y0065148D01*
X0495373Y0065148D01*
X0496862Y0065764D01*
X0498001Y0066903D01*
X0498618Y0068392D01*
X0498618Y0070003D01*
X0498001Y0071492D01*
X0496862Y0072631D01*
X0495373Y0073248D01*
X0493762Y0073248D01*
X0492274Y0072631D01*
X0491816Y0072173D02*
X0487319Y0072173D01*
X0487918Y0071575D02*
X0491217Y0071575D01*
X0490921Y0070976D02*
X0488215Y0070976D01*
X0488463Y0070378D02*
X0490673Y0070378D01*
X0490518Y0069779D02*
X0488618Y0069779D01*
X0488618Y0069181D02*
X0490518Y0069181D01*
X0490518Y0068582D02*
X0488618Y0068582D01*
X0488449Y0067984D02*
X0490687Y0067984D01*
X0490935Y0067385D02*
X0488201Y0067385D01*
X0487884Y0066787D02*
X0491251Y0066787D01*
X0491849Y0066188D02*
X0487286Y0066188D01*
X0486441Y0065590D02*
X0492695Y0065590D01*
X0496441Y0065590D02*
X0502695Y0065590D01*
X0502274Y0065764D02*
X0503762Y0065148D01*
X0505373Y0065148D01*
X0506862Y0065764D01*
X0508001Y0066903D01*
X0508618Y0068392D01*
X0508618Y0070003D01*
X0508001Y0071492D01*
X0506862Y0072631D01*
X0505373Y0073248D01*
X0503762Y0073248D01*
X0502274Y0072631D01*
X0501134Y0071492D01*
X0500518Y0070003D01*
X0500518Y0068392D01*
X0501134Y0066903D01*
X0502274Y0065764D01*
X0501849Y0066188D02*
X0497286Y0066188D01*
X0497884Y0066787D02*
X0501251Y0066787D01*
X0500935Y0067385D02*
X0498201Y0067385D01*
X0498449Y0067984D02*
X0500687Y0067984D01*
X0500518Y0068582D02*
X0498618Y0068582D01*
X0498618Y0069181D02*
X0500518Y0069181D01*
X0500518Y0069779D02*
X0498618Y0069779D01*
X0498463Y0070378D02*
X0500673Y0070378D01*
X0500921Y0070976D02*
X0498215Y0070976D01*
X0497918Y0071575D02*
X0501217Y0071575D01*
X0501816Y0072173D02*
X0497319Y0072173D01*
X0496522Y0072772D02*
X0502614Y0072772D01*
X0505418Y0075166D02*
X0514076Y0075166D01*
X0514169Y0075148D02*
X0513386Y0075303D01*
X0512649Y0075609D01*
X0511986Y0076052D01*
X0511422Y0076616D01*
X0510979Y0077279D01*
X0510673Y0078016D01*
X0510518Y0078799D01*
X0510518Y0078898D01*
X0514268Y0078898D01*
X0514268Y0079498D01*
X0514268Y0083248D01*
X0514169Y0083248D01*
X0513386Y0083092D01*
X0512649Y0082787D01*
X0511986Y0082343D01*
X0511422Y0081779D01*
X0510979Y0081116D01*
X0510673Y0080379D01*
X0510518Y0079597D01*
X0510518Y0079498D01*
X0514268Y0079498D01*
X0514868Y0079498D01*
X0514868Y0083248D01*
X0514967Y0083248D01*
X0515749Y0083092D01*
X0516486Y0082787D01*
X0517149Y0082343D01*
X0517714Y0081779D01*
X0518157Y0081116D01*
X0518462Y0080379D01*
X0518618Y0079597D01*
X0518618Y0079498D01*
X0514868Y0079498D01*
X0514868Y0078898D01*
X0518618Y0078898D01*
X0518618Y0078799D01*
X0518462Y0078016D01*
X0518157Y0077279D01*
X0517714Y0076616D01*
X0517149Y0076052D01*
X0516486Y0075609D01*
X0515749Y0075303D01*
X0514967Y0075148D01*
X0514868Y0075148D01*
X0514868Y0078898D01*
X0514268Y0078898D01*
X0514268Y0075148D01*
X0514169Y0075148D01*
X0514268Y0075166D02*
X0514868Y0075166D01*
X0515059Y0075166D02*
X0523718Y0075166D01*
X0523762Y0075148D02*
X0525373Y0075148D01*
X0526862Y0075764D01*
X0528001Y0076903D01*
X0528618Y0078392D01*
X0528618Y0080003D01*
X0528001Y0081492D01*
X0526862Y0082631D01*
X0525373Y0083248D01*
X0523762Y0083248D01*
X0522274Y0082631D01*
X0521134Y0081492D01*
X0520518Y0080003D01*
X0520518Y0078392D01*
X0521134Y0076903D01*
X0522274Y0075764D01*
X0523762Y0075148D01*
X0522273Y0075765D02*
X0516720Y0075765D01*
X0517461Y0076363D02*
X0521675Y0076363D01*
X0521110Y0076962D02*
X0517944Y0076962D01*
X0518273Y0077560D02*
X0520862Y0077560D01*
X0520614Y0078159D02*
X0518490Y0078159D01*
X0518609Y0078757D02*
X0520518Y0078757D01*
X0520518Y0079356D02*
X0514868Y0079356D01*
X0514868Y0079954D02*
X0514268Y0079954D01*
X0514268Y0079356D02*
X0508618Y0079356D01*
X0508618Y0079954D02*
X0510589Y0079954D01*
X0510745Y0080553D02*
X0508390Y0080553D01*
X0508142Y0081151D02*
X0511002Y0081151D01*
X0511402Y0081750D02*
X0507743Y0081750D01*
X0507145Y0082348D02*
X0511993Y0082348D01*
X0513036Y0082947D02*
X0506100Y0082947D01*
X0508618Y0078757D02*
X0510526Y0078757D01*
X0510645Y0078159D02*
X0508521Y0078159D01*
X0508273Y0077560D02*
X0510862Y0077560D01*
X0511191Y0076962D02*
X0508025Y0076962D01*
X0507461Y0076363D02*
X0511675Y0076363D01*
X0512416Y0075765D02*
X0506862Y0075765D01*
X0506522Y0072772D02*
X0512614Y0072772D01*
X0512274Y0072631D02*
X0511134Y0071492D01*
X0510518Y0070003D01*
X0510518Y0068392D01*
X0511134Y0066903D01*
X0512274Y0065764D01*
X0513762Y0065148D01*
X0515373Y0065148D01*
X0516862Y0065764D01*
X0518001Y0066903D01*
X0518618Y0068392D01*
X0518618Y0070003D01*
X0518001Y0071492D01*
X0516862Y0072631D01*
X0515373Y0073248D01*
X0513762Y0073248D01*
X0512274Y0072631D01*
X0511816Y0072173D02*
X0507319Y0072173D01*
X0507918Y0071575D02*
X0511217Y0071575D01*
X0510921Y0070976D02*
X0508215Y0070976D01*
X0508463Y0070378D02*
X0510673Y0070378D01*
X0510518Y0069779D02*
X0508618Y0069779D01*
X0508618Y0069181D02*
X0510518Y0069181D01*
X0510518Y0068582D02*
X0508618Y0068582D01*
X0508449Y0067984D02*
X0510687Y0067984D01*
X0510935Y0067385D02*
X0508201Y0067385D01*
X0507884Y0066787D02*
X0511251Y0066787D01*
X0511849Y0066188D02*
X0507286Y0066188D01*
X0506441Y0065590D02*
X0512695Y0065590D01*
X0516441Y0065590D02*
X0522695Y0065590D01*
X0522274Y0065764D02*
X0523762Y0065148D01*
X0525373Y0065148D01*
X0526862Y0065764D01*
X0528001Y0066903D01*
X0528618Y0068392D01*
X0528618Y0070003D01*
X0528001Y0071492D01*
X0526862Y0072631D01*
X0525373Y0073248D01*
X0523762Y0073248D01*
X0522274Y0072631D01*
X0521134Y0071492D01*
X0520518Y0070003D01*
X0520518Y0068392D01*
X0521134Y0066903D01*
X0522274Y0065764D01*
X0521849Y0066188D02*
X0517286Y0066188D01*
X0517884Y0066787D02*
X0521251Y0066787D01*
X0520935Y0067385D02*
X0518201Y0067385D01*
X0518449Y0067984D02*
X0520687Y0067984D01*
X0520518Y0068582D02*
X0518618Y0068582D01*
X0518618Y0069181D02*
X0520518Y0069181D01*
X0520518Y0069779D02*
X0518618Y0069779D01*
X0518463Y0070378D02*
X0520673Y0070378D01*
X0520921Y0070976D02*
X0518215Y0070976D01*
X0517918Y0071575D02*
X0521217Y0071575D01*
X0521816Y0072173D02*
X0517319Y0072173D01*
X0516522Y0072772D02*
X0522614Y0072772D01*
X0525418Y0075166D02*
X0533718Y0075166D01*
X0533762Y0075148D02*
X0535373Y0075148D01*
X0536862Y0075764D01*
X0538001Y0076903D01*
X0538618Y0078392D01*
X0538618Y0080003D01*
X0538001Y0081492D01*
X0536862Y0082631D01*
X0535373Y0083248D01*
X0533762Y0083248D01*
X0532274Y0082631D01*
X0531134Y0081492D01*
X0530518Y0080003D01*
X0530518Y0078392D01*
X0531134Y0076903D01*
X0532274Y0075764D01*
X0533762Y0075148D01*
X0532273Y0075765D02*
X0526862Y0075765D01*
X0527461Y0076363D02*
X0531675Y0076363D01*
X0531110Y0076962D02*
X0528025Y0076962D01*
X0528273Y0077560D02*
X0530862Y0077560D01*
X0530614Y0078159D02*
X0528521Y0078159D01*
X0528618Y0078757D02*
X0530518Y0078757D01*
X0530518Y0079356D02*
X0528618Y0079356D01*
X0528618Y0079954D02*
X0530518Y0079954D01*
X0530745Y0080553D02*
X0528390Y0080553D01*
X0528142Y0081151D02*
X0530993Y0081151D01*
X0531392Y0081750D02*
X0527743Y0081750D01*
X0527145Y0082348D02*
X0531991Y0082348D01*
X0533036Y0082947D02*
X0526100Y0082947D01*
X0523036Y0082947D02*
X0516100Y0082947D01*
X0517142Y0082348D02*
X0521991Y0082348D01*
X0521392Y0081750D02*
X0517733Y0081750D01*
X0518133Y0081151D02*
X0520993Y0081151D01*
X0520745Y0080553D02*
X0518390Y0080553D01*
X0518547Y0079954D02*
X0520518Y0079954D01*
X0514868Y0080553D02*
X0514268Y0080553D01*
X0514268Y0081151D02*
X0514868Y0081151D01*
X0514868Y0081750D02*
X0514268Y0081750D01*
X0514268Y0082348D02*
X0514868Y0082348D01*
X0514868Y0082947D02*
X0514268Y0082947D01*
X0514268Y0078757D02*
X0514868Y0078757D01*
X0514868Y0078159D02*
X0514268Y0078159D01*
X0514268Y0077560D02*
X0514868Y0077560D01*
X0514868Y0076962D02*
X0514268Y0076962D01*
X0514268Y0076363D02*
X0514868Y0076363D01*
X0514868Y0075765D02*
X0514268Y0075765D01*
X0526522Y0072772D02*
X0532614Y0072772D01*
X0532274Y0072631D02*
X0531134Y0071492D01*
X0530518Y0070003D01*
X0530518Y0068392D01*
X0531134Y0066903D01*
X0532274Y0065764D01*
X0533762Y0065148D01*
X0535373Y0065148D01*
X0536862Y0065764D01*
X0538001Y0066903D01*
X0538618Y0068392D01*
X0538618Y0070003D01*
X0538001Y0071492D01*
X0536862Y0072631D01*
X0535373Y0073248D01*
X0533762Y0073248D01*
X0532274Y0072631D01*
X0531816Y0072173D02*
X0527319Y0072173D01*
X0527918Y0071575D02*
X0531217Y0071575D01*
X0530921Y0070976D02*
X0528215Y0070976D01*
X0528463Y0070378D02*
X0530673Y0070378D01*
X0530518Y0069779D02*
X0528618Y0069779D01*
X0528618Y0069181D02*
X0530518Y0069181D01*
X0530518Y0068582D02*
X0528618Y0068582D01*
X0528449Y0067984D02*
X0530687Y0067984D01*
X0530935Y0067385D02*
X0528201Y0067385D01*
X0527884Y0066787D02*
X0531251Y0066787D01*
X0531849Y0066188D02*
X0527286Y0066188D01*
X0526441Y0065590D02*
X0532695Y0065590D01*
X0536441Y0065590D02*
X0542695Y0065590D01*
X0542274Y0065764D02*
X0543762Y0065148D01*
X0545373Y0065148D01*
X0546862Y0065764D01*
X0548001Y0066903D01*
X0548618Y0068392D01*
X0548618Y0070003D01*
X0548001Y0071492D01*
X0546862Y0072631D01*
X0545373Y0073248D01*
X0543762Y0073248D01*
X0542274Y0072631D01*
X0541134Y0071492D01*
X0540518Y0070003D01*
X0540518Y0068392D01*
X0541134Y0066903D01*
X0542274Y0065764D01*
X0541849Y0066188D02*
X0537286Y0066188D01*
X0537884Y0066787D02*
X0541251Y0066787D01*
X0540935Y0067385D02*
X0538201Y0067385D01*
X0538449Y0067984D02*
X0540687Y0067984D01*
X0540518Y0068582D02*
X0538618Y0068582D01*
X0538618Y0069181D02*
X0540518Y0069181D01*
X0540518Y0069779D02*
X0538618Y0069779D01*
X0538463Y0070378D02*
X0540673Y0070378D01*
X0540921Y0070976D02*
X0538215Y0070976D01*
X0537918Y0071575D02*
X0541217Y0071575D01*
X0541816Y0072173D02*
X0537319Y0072173D01*
X0536522Y0072772D02*
X0542614Y0072772D01*
X0543718Y0075166D02*
X0535418Y0075166D01*
X0536862Y0075765D02*
X0542273Y0075765D01*
X0542274Y0075764D02*
X0543762Y0075148D01*
X0545373Y0075148D01*
X0546862Y0075764D01*
X0548001Y0076903D01*
X0548618Y0078392D01*
X0548618Y0080003D01*
X0548001Y0081492D01*
X0546862Y0082631D01*
X0545373Y0083248D01*
X0543762Y0083248D01*
X0542274Y0082631D01*
X0541134Y0081492D01*
X0540518Y0080003D01*
X0540518Y0078392D01*
X0541134Y0076903D01*
X0542274Y0075764D01*
X0541675Y0076363D02*
X0537461Y0076363D01*
X0538025Y0076962D02*
X0541110Y0076962D01*
X0540862Y0077560D02*
X0538273Y0077560D01*
X0538521Y0078159D02*
X0540614Y0078159D01*
X0540518Y0078757D02*
X0538618Y0078757D01*
X0538618Y0079356D02*
X0540518Y0079356D01*
X0540518Y0079954D02*
X0538618Y0079954D01*
X0538390Y0080553D02*
X0540745Y0080553D01*
X0540993Y0081151D02*
X0538142Y0081151D01*
X0537743Y0081750D02*
X0541392Y0081750D01*
X0541991Y0082348D02*
X0537145Y0082348D01*
X0536100Y0082947D02*
X0543036Y0082947D01*
X0546100Y0082947D02*
X0553036Y0082947D01*
X0553762Y0083248D02*
X0552274Y0082631D01*
X0551134Y0081492D01*
X0550518Y0080003D01*
X0550518Y0078392D01*
X0551134Y0076903D01*
X0552274Y0075764D01*
X0553762Y0075148D01*
X0555373Y0075148D01*
X0556862Y0075764D01*
X0558001Y0076903D01*
X0558618Y0078392D01*
X0558618Y0080003D01*
X0558001Y0081492D01*
X0556862Y0082631D01*
X0555373Y0083248D01*
X0553762Y0083248D01*
X0551991Y0082348D02*
X0547145Y0082348D01*
X0547743Y0081750D02*
X0551392Y0081750D01*
X0550993Y0081151D02*
X0548142Y0081151D01*
X0548390Y0080553D02*
X0550745Y0080553D01*
X0550518Y0079954D02*
X0548618Y0079954D01*
X0548618Y0079356D02*
X0550518Y0079356D01*
X0550518Y0078757D02*
X0548618Y0078757D01*
X0548521Y0078159D02*
X0550614Y0078159D01*
X0550862Y0077560D02*
X0548273Y0077560D01*
X0548025Y0076962D02*
X0551110Y0076962D01*
X0551675Y0076363D02*
X0547461Y0076363D01*
X0546862Y0075765D02*
X0552273Y0075765D01*
X0553718Y0075166D02*
X0545418Y0075166D01*
X0546522Y0072772D02*
X0552614Y0072772D01*
X0552274Y0072631D02*
X0551134Y0071492D01*
X0550518Y0070003D01*
X0550518Y0068392D01*
X0551134Y0066903D01*
X0552274Y0065764D01*
X0553762Y0065148D01*
X0555373Y0065148D01*
X0556862Y0065764D01*
X0558001Y0066903D01*
X0558618Y0068392D01*
X0558618Y0070003D01*
X0558001Y0071492D01*
X0556862Y0072631D01*
X0555373Y0073248D01*
X0553762Y0073248D01*
X0552274Y0072631D01*
X0551816Y0072173D02*
X0547319Y0072173D01*
X0547918Y0071575D02*
X0551217Y0071575D01*
X0550921Y0070976D02*
X0548215Y0070976D01*
X0548463Y0070378D02*
X0550673Y0070378D01*
X0550518Y0069779D02*
X0548618Y0069779D01*
X0548618Y0069181D02*
X0550518Y0069181D01*
X0550518Y0068582D02*
X0548618Y0068582D01*
X0548449Y0067984D02*
X0550687Y0067984D01*
X0550935Y0067385D02*
X0548201Y0067385D01*
X0547884Y0066787D02*
X0551251Y0066787D01*
X0551849Y0066188D02*
X0547286Y0066188D01*
X0546441Y0065590D02*
X0552695Y0065590D01*
X0556441Y0065590D02*
X0562695Y0065590D01*
X0562274Y0065764D02*
X0563762Y0065148D01*
X0565373Y0065148D01*
X0566862Y0065764D01*
X0568001Y0066903D01*
X0568618Y0068392D01*
X0568618Y0070003D01*
X0568001Y0071492D01*
X0566862Y0072631D01*
X0565373Y0073248D01*
X0563762Y0073248D01*
X0562274Y0072631D01*
X0561134Y0071492D01*
X0560518Y0070003D01*
X0560518Y0068392D01*
X0561134Y0066903D01*
X0562274Y0065764D01*
X0561849Y0066188D02*
X0557286Y0066188D01*
X0557884Y0066787D02*
X0561251Y0066787D01*
X0560935Y0067385D02*
X0558201Y0067385D01*
X0558449Y0067984D02*
X0560687Y0067984D01*
X0560518Y0068582D02*
X0558618Y0068582D01*
X0558618Y0069181D02*
X0560518Y0069181D01*
X0560518Y0069779D02*
X0558618Y0069779D01*
X0558463Y0070378D02*
X0560673Y0070378D01*
X0560921Y0070976D02*
X0558215Y0070976D01*
X0557918Y0071575D02*
X0561217Y0071575D01*
X0561816Y0072173D02*
X0557319Y0072173D01*
X0556522Y0072772D02*
X0562614Y0072772D01*
X0563718Y0075166D02*
X0555418Y0075166D01*
X0556862Y0075765D02*
X0562273Y0075765D01*
X0562274Y0075764D02*
X0563762Y0075148D01*
X0565373Y0075148D01*
X0566862Y0075764D01*
X0568001Y0076903D01*
X0568618Y0078392D01*
X0568618Y0080003D01*
X0568001Y0081492D01*
X0566862Y0082631D01*
X0565373Y0083248D01*
X0563762Y0083248D01*
X0562274Y0082631D01*
X0561134Y0081492D01*
X0560518Y0080003D01*
X0560518Y0078392D01*
X0561134Y0076903D01*
X0562274Y0075764D01*
X0561675Y0076363D02*
X0557461Y0076363D01*
X0558025Y0076962D02*
X0561110Y0076962D01*
X0560862Y0077560D02*
X0558273Y0077560D01*
X0558521Y0078159D02*
X0560614Y0078159D01*
X0560518Y0078757D02*
X0558618Y0078757D01*
X0558618Y0079356D02*
X0560518Y0079356D01*
X0560518Y0079954D02*
X0558618Y0079954D01*
X0558390Y0080553D02*
X0560745Y0080553D01*
X0560993Y0081151D02*
X0558142Y0081151D01*
X0557743Y0081750D02*
X0561392Y0081750D01*
X0561991Y0082348D02*
X0557145Y0082348D01*
X0556100Y0082947D02*
X0563036Y0082947D01*
X0566100Y0082947D02*
X0573036Y0082947D01*
X0573762Y0083248D02*
X0572274Y0082631D01*
X0571134Y0081492D01*
X0570518Y0080003D01*
X0570518Y0078392D01*
X0571134Y0076903D01*
X0572274Y0075764D01*
X0573762Y0075148D01*
X0575373Y0075148D01*
X0576862Y0075764D01*
X0578001Y0076903D01*
X0578618Y0078392D01*
X0578618Y0080003D01*
X0578001Y0081492D01*
X0576862Y0082631D01*
X0575373Y0083248D01*
X0573762Y0083248D01*
X0571991Y0082348D02*
X0567145Y0082348D01*
X0567743Y0081750D02*
X0571392Y0081750D01*
X0570993Y0081151D02*
X0568142Y0081151D01*
X0568390Y0080553D02*
X0570745Y0080553D01*
X0570518Y0079954D02*
X0568618Y0079954D01*
X0568618Y0079356D02*
X0570518Y0079356D01*
X0570518Y0078757D02*
X0568618Y0078757D01*
X0568521Y0078159D02*
X0570614Y0078159D01*
X0570862Y0077560D02*
X0568273Y0077560D01*
X0568025Y0076962D02*
X0571110Y0076962D01*
X0571675Y0076363D02*
X0567461Y0076363D01*
X0566862Y0075765D02*
X0572273Y0075765D01*
X0573718Y0075166D02*
X0565418Y0075166D01*
X0566522Y0072772D02*
X0572614Y0072772D01*
X0572274Y0072631D02*
X0571134Y0071492D01*
X0570518Y0070003D01*
X0570518Y0068392D01*
X0571134Y0066903D01*
X0572274Y0065764D01*
X0573762Y0065148D01*
X0575373Y0065148D01*
X0576862Y0065764D01*
X0578001Y0066903D01*
X0578618Y0068392D01*
X0578618Y0070003D01*
X0578001Y0071492D01*
X0576862Y0072631D01*
X0575373Y0073248D01*
X0573762Y0073248D01*
X0572274Y0072631D01*
X0571816Y0072173D02*
X0567319Y0072173D01*
X0567918Y0071575D02*
X0571217Y0071575D01*
X0570921Y0070976D02*
X0568215Y0070976D01*
X0568463Y0070378D02*
X0570673Y0070378D01*
X0570518Y0069779D02*
X0568618Y0069779D01*
X0568618Y0069181D02*
X0570518Y0069181D01*
X0570518Y0068582D02*
X0568618Y0068582D01*
X0568449Y0067984D02*
X0570687Y0067984D01*
X0570935Y0067385D02*
X0568201Y0067385D01*
X0567884Y0066787D02*
X0571251Y0066787D01*
X0571849Y0066188D02*
X0567286Y0066188D01*
X0566441Y0065590D02*
X0572695Y0065590D01*
X0576441Y0065590D02*
X0582695Y0065590D01*
X0581849Y0066188D02*
X0577286Y0066188D01*
X0577884Y0066787D02*
X0581251Y0066787D01*
X0580935Y0067385D02*
X0578201Y0067385D01*
X0578449Y0067984D02*
X0580687Y0067984D01*
X0580518Y0068582D02*
X0578618Y0068582D01*
X0578618Y0069181D02*
X0580518Y0069181D01*
X0580518Y0069779D02*
X0578618Y0069779D01*
X0578463Y0070378D02*
X0580673Y0070378D01*
X0580921Y0070976D02*
X0578215Y0070976D01*
X0577918Y0071575D02*
X0581217Y0071575D01*
X0581816Y0072173D02*
X0577319Y0072173D01*
X0576522Y0072772D02*
X0582614Y0072772D01*
X0583718Y0075166D02*
X0575418Y0075166D01*
X0576862Y0075765D02*
X0582273Y0075765D01*
X0582274Y0075764D02*
X0583762Y0075148D01*
X0585373Y0075148D01*
X0586862Y0075764D01*
X0588001Y0076903D01*
X0588618Y0078392D01*
X0588618Y0080003D01*
X0588001Y0081492D01*
X0586862Y0082631D01*
X0585373Y0083248D01*
X0583762Y0083248D01*
X0582274Y0082631D01*
X0581134Y0081492D01*
X0580518Y0080003D01*
X0580518Y0078392D01*
X0581134Y0076903D01*
X0582274Y0075764D01*
X0581675Y0076363D02*
X0577461Y0076363D01*
X0578025Y0076962D02*
X0581110Y0076962D01*
X0580862Y0077560D02*
X0578273Y0077560D01*
X0578521Y0078159D02*
X0580614Y0078159D01*
X0580518Y0078757D02*
X0578618Y0078757D01*
X0578618Y0079356D02*
X0580518Y0079356D01*
X0580518Y0079954D02*
X0578618Y0079954D01*
X0578390Y0080553D02*
X0580745Y0080553D01*
X0580993Y0081151D02*
X0578142Y0081151D01*
X0577743Y0081750D02*
X0581392Y0081750D01*
X0581991Y0082348D02*
X0577145Y0082348D01*
X0576100Y0082947D02*
X0583036Y0082947D01*
X0586100Y0082947D02*
X0620000Y0082947D01*
X0620000Y0083545D02*
X0022600Y0083545D01*
X0022600Y0082947D02*
X0413036Y0082947D01*
X0411991Y0082348D02*
X0022600Y0082348D01*
X0022600Y0081750D02*
X0411392Y0081750D01*
X0410993Y0081151D02*
X0022600Y0081151D01*
X0022600Y0080553D02*
X0410745Y0080553D01*
X0410518Y0079954D02*
X0022600Y0079954D01*
X0022600Y0079356D02*
X0115084Y0079356D01*
X0114010Y0078757D02*
X0022600Y0078757D01*
X0022600Y0078159D02*
X0113411Y0078159D01*
X0113078Y0077560D02*
X0022600Y0077560D01*
X0022600Y0076962D02*
X0112830Y0076962D01*
X0112720Y0076363D02*
X0022600Y0076363D01*
X0022600Y0075765D02*
X0112720Y0075765D01*
X0112765Y0075166D02*
X0022600Y0075166D01*
X0022600Y0074568D02*
X0113013Y0074568D01*
X0113261Y0073969D02*
X0022600Y0073969D01*
X0022600Y0073370D02*
X0113852Y0073370D01*
X0114703Y0072772D02*
X0022600Y0072772D01*
X0022600Y0084144D02*
X0620000Y0084144D01*
X0620000Y0084742D02*
X0022600Y0084742D01*
X0022600Y0085341D02*
X0620000Y0085341D01*
X0620000Y0085939D02*
X0022600Y0085939D01*
X0022600Y0086538D02*
X0620000Y0086538D01*
X0620000Y0087136D02*
X0022600Y0087136D01*
X0022600Y0087735D02*
X0620000Y0087735D01*
X0620000Y0088333D02*
X0022600Y0088333D01*
X0022600Y0088932D02*
X0620000Y0088932D01*
X0620000Y0089530D02*
X0022600Y0089530D01*
X0022600Y0090129D02*
X0620000Y0090129D01*
X0620000Y0090727D02*
X0022600Y0090727D01*
X0022600Y0091326D02*
X0620000Y0091326D01*
X0620000Y0091924D02*
X0022600Y0091924D01*
X0022600Y0092523D02*
X0620000Y0092523D01*
X0620000Y0093121D02*
X0022600Y0093121D01*
X0022600Y0093720D02*
X0620000Y0093720D01*
X0620000Y0094318D02*
X0022600Y0094318D01*
X0022600Y0094917D02*
X0620000Y0094917D01*
X0620000Y0095515D02*
X0022600Y0095515D01*
X0022600Y0096114D02*
X0620000Y0096114D01*
X0620000Y0096712D02*
X0022600Y0096712D01*
X0022600Y0097311D02*
X0620000Y0097311D01*
X0620000Y0097909D02*
X0022600Y0097909D01*
X0022600Y0098508D02*
X0620000Y0098508D01*
X0620000Y0099106D02*
X0022600Y0099106D01*
X0022600Y0099705D02*
X0620000Y0099705D01*
X0620000Y0100303D02*
X0022600Y0100303D01*
X0022600Y0100902D02*
X0620000Y0100902D01*
X0620000Y0101501D02*
X0022600Y0101501D01*
X0022600Y0102099D02*
X0620000Y0102099D01*
X0620000Y0102698D02*
X0022600Y0102698D01*
X0022600Y0103296D02*
X0620000Y0103296D01*
X0620000Y0103895D02*
X0022600Y0103895D01*
X0022600Y0104493D02*
X0620000Y0104493D01*
X0620000Y0105092D02*
X0022600Y0105092D01*
X0022600Y0105690D02*
X0620000Y0105690D01*
X0620000Y0106289D02*
X0022600Y0106289D01*
X0022600Y0106887D02*
X0620000Y0106887D01*
X0620000Y0107486D02*
X0022600Y0107486D01*
X0022600Y0108084D02*
X0620000Y0108084D01*
X0620000Y0108683D02*
X0022600Y0108683D01*
X0022600Y0109281D02*
X0620000Y0109281D01*
X0620000Y0109880D02*
X0022600Y0109880D01*
X0022600Y0110478D02*
X0620000Y0110478D01*
X0620000Y0111077D02*
X0022600Y0111077D01*
X0022600Y0111675D02*
X0620000Y0111675D01*
X0620000Y0112274D02*
X0022600Y0112274D01*
X0022600Y0112872D02*
X0185222Y0112872D01*
X0185256Y0112858D02*
X0185947Y0112720D01*
X0186000Y0112720D01*
X0186000Y0116000D01*
X0186600Y0116000D01*
X0186600Y0116600D01*
X0189880Y0116600D01*
X0189880Y0116653D01*
X0189742Y0117344D01*
X0189472Y0117996D01*
X0189080Y0118582D01*
X0188582Y0119080D01*
X0187996Y0119472D01*
X0187344Y0119742D01*
X0186653Y0119880D01*
X0186600Y0119880D01*
X0186600Y0116600D01*
X0186000Y0116600D01*
X0186000Y0119880D01*
X0185947Y0119880D01*
X0185256Y0119742D01*
X0184604Y0119472D01*
X0184018Y0119080D01*
X0183520Y0118582D01*
X0183128Y0117996D01*
X0182858Y0117344D01*
X0182720Y0116653D01*
X0182720Y0116600D01*
X0186000Y0116600D01*
X0186000Y0116000D01*
X0182720Y0116000D01*
X0182720Y0115947D01*
X0182858Y0115256D01*
X0183128Y0114604D01*
X0183520Y0114018D01*
X0184018Y0113520D01*
X0184604Y0113128D01*
X0185256Y0112858D01*
X0186000Y0112872D02*
X0186600Y0112872D01*
X0186600Y0112720D02*
X0186653Y0112720D01*
X0187344Y0112858D01*
X0187996Y0113128D01*
X0188582Y0113520D01*
X0189080Y0114018D01*
X0189472Y0114604D01*
X0189742Y0115256D01*
X0189880Y0115947D01*
X0189880Y0116000D01*
X0186600Y0116000D01*
X0186600Y0112720D01*
X0186600Y0113471D02*
X0186000Y0113471D01*
X0186000Y0114069D02*
X0186600Y0114069D01*
X0186600Y0114668D02*
X0186000Y0114668D01*
X0186000Y0115266D02*
X0186600Y0115266D01*
X0186600Y0115865D02*
X0186000Y0115865D01*
X0186000Y0116463D02*
X0166592Y0116463D01*
X0166592Y0116447D02*
X0166592Y0116500D01*
X0163313Y0116500D01*
X0163313Y0117100D01*
X0166592Y0117100D01*
X0166592Y0117153D01*
X0166455Y0117844D01*
X0166185Y0118496D01*
X0165793Y0119082D01*
X0165294Y0119580D01*
X0164708Y0119972D01*
X0164057Y0120242D01*
X0163365Y0120380D01*
X0163313Y0120380D01*
X0163313Y0117100D01*
X0162713Y0117100D01*
X0162713Y0120380D01*
X0162660Y0120380D01*
X0161968Y0120242D01*
X0161317Y0119972D01*
X0160731Y0119580D01*
X0160232Y0119082D01*
X0159840Y0118496D01*
X0159571Y0117844D01*
X0159433Y0117153D01*
X0159433Y0117100D01*
X0162713Y0117100D01*
X0162713Y0116500D01*
X0163313Y0116500D01*
X0163313Y0113220D01*
X0163365Y0113220D01*
X0164057Y0113358D01*
X0164708Y0113628D01*
X0165294Y0114020D01*
X0165793Y0114518D01*
X0166185Y0115104D01*
X0166455Y0115756D01*
X0166592Y0116447D01*
X0166476Y0115865D02*
X0182737Y0115865D01*
X0182856Y0115266D02*
X0166252Y0115266D01*
X0165893Y0114668D02*
X0183102Y0114668D01*
X0183485Y0114069D02*
X0165344Y0114069D01*
X0164329Y0113471D02*
X0184091Y0113471D01*
X0187378Y0112872D02*
X0234434Y0112872D01*
X0234468Y0112858D02*
X0235160Y0112720D01*
X0235213Y0112720D01*
X0235213Y0116000D01*
X0235813Y0116000D01*
X0235813Y0116600D01*
X0239092Y0116600D01*
X0239092Y0116653D01*
X0238955Y0117344D01*
X0238685Y0117996D01*
X0238293Y0118582D01*
X0237794Y0119080D01*
X0237208Y0119472D01*
X0236557Y0119742D01*
X0235865Y0119880D01*
X0235813Y0119880D01*
X0235813Y0116600D01*
X0235213Y0116600D01*
X0235213Y0119880D01*
X0235160Y0119880D01*
X0234468Y0119742D01*
X0233817Y0119472D01*
X0233231Y0119080D01*
X0232732Y0118582D01*
X0232340Y0117996D01*
X0232071Y0117344D01*
X0231933Y0116653D01*
X0231933Y0116600D01*
X0235213Y0116600D01*
X0235213Y0116000D01*
X0231933Y0116000D01*
X0231933Y0115947D01*
X0232071Y0115256D01*
X0232340Y0114604D01*
X0232732Y0114018D01*
X0233231Y0113520D01*
X0233817Y0113128D01*
X0234468Y0112858D01*
X0235213Y0112872D02*
X0235813Y0112872D01*
X0235813Y0112720D02*
X0235865Y0112720D01*
X0236557Y0112858D01*
X0237208Y0113128D01*
X0237794Y0113520D01*
X0238293Y0114018D01*
X0238685Y0114604D01*
X0238955Y0115256D01*
X0239092Y0115947D01*
X0239092Y0116000D01*
X0235813Y0116000D01*
X0235813Y0112720D01*
X0235813Y0113471D02*
X0235213Y0113471D01*
X0235213Y0114069D02*
X0235813Y0114069D01*
X0235813Y0114668D02*
X0235213Y0114668D01*
X0235213Y0115266D02*
X0235813Y0115266D01*
X0235813Y0115865D02*
X0235213Y0115865D01*
X0235213Y0116463D02*
X0186600Y0116463D01*
X0186600Y0117062D02*
X0186000Y0117062D01*
X0186000Y0117660D02*
X0186600Y0117660D01*
X0186600Y0118259D02*
X0186000Y0118259D01*
X0186000Y0118857D02*
X0186600Y0118857D01*
X0186600Y0119456D02*
X0186000Y0119456D01*
X0184580Y0119456D02*
X0165419Y0119456D01*
X0165943Y0118857D02*
X0183795Y0118857D01*
X0183304Y0118259D02*
X0166283Y0118259D01*
X0166491Y0117660D02*
X0182989Y0117660D01*
X0182802Y0117062D02*
X0163313Y0117062D01*
X0163313Y0117660D02*
X0162713Y0117660D01*
X0162713Y0117062D02*
X0114100Y0117062D01*
X0114100Y0117100D02*
X0117380Y0117100D01*
X0117380Y0117153D01*
X0117242Y0117844D01*
X0116972Y0118496D01*
X0116580Y0119082D01*
X0116082Y0119580D01*
X0115496Y0119972D01*
X0114844Y0120242D01*
X0114153Y0120380D01*
X0114100Y0120380D01*
X0114100Y0117100D01*
X0114100Y0116500D01*
X0117380Y0116500D01*
X0117380Y0116447D01*
X0117242Y0115756D01*
X0116972Y0115104D01*
X0116580Y0114518D01*
X0116082Y0114020D01*
X0115496Y0113628D01*
X0114844Y0113358D01*
X0114153Y0113220D01*
X0114100Y0113220D01*
X0114100Y0116500D01*
X0113500Y0116500D01*
X0113500Y0113220D01*
X0113447Y0113220D01*
X0112756Y0113358D01*
X0112104Y0113628D01*
X0111518Y0114020D01*
X0111020Y0114518D01*
X0110628Y0115104D01*
X0110358Y0115756D01*
X0110220Y0116447D01*
X0110220Y0116500D01*
X0113500Y0116500D01*
X0113500Y0117100D01*
X0113500Y0120380D01*
X0113447Y0120380D01*
X0112756Y0120242D01*
X0112104Y0119972D01*
X0111518Y0119580D01*
X0111020Y0119082D01*
X0110628Y0118496D01*
X0110358Y0117844D01*
X0110220Y0117153D01*
X0110220Y0117100D01*
X0113500Y0117100D01*
X0114100Y0117100D01*
X0114100Y0117660D02*
X0113500Y0117660D01*
X0113500Y0117062D02*
X0022600Y0117062D01*
X0022600Y0117660D02*
X0110321Y0117660D01*
X0110530Y0118259D02*
X0097404Y0118259D01*
X0097208Y0118128D02*
X0097794Y0118520D01*
X0098293Y0119018D01*
X0098685Y0119604D01*
X0098955Y0120256D01*
X0099092Y0120947D01*
X0099092Y0121000D01*
X0095813Y0121000D01*
X0095813Y0121600D01*
X0099092Y0121600D01*
X0099092Y0121653D01*
X0098955Y0122344D01*
X0098685Y0122996D01*
X0098293Y0123582D01*
X0097794Y0124080D01*
X0097208Y0124472D01*
X0096557Y0124742D01*
X0095865Y0124880D01*
X0095813Y0124880D01*
X0095813Y0121600D01*
X0095213Y0121600D01*
X0095213Y0124880D01*
X0095160Y0124880D01*
X0094468Y0124742D01*
X0093817Y0124472D01*
X0093231Y0124080D01*
X0092732Y0123582D01*
X0092340Y0122996D01*
X0092071Y0122344D01*
X0091933Y0121653D01*
X0091933Y0121600D01*
X0095213Y0121600D01*
X0095213Y0121000D01*
X0095813Y0121000D01*
X0095813Y0117720D01*
X0095865Y0117720D01*
X0096557Y0117858D01*
X0097208Y0118128D01*
X0098132Y0118857D02*
X0110870Y0118857D01*
X0111394Y0119456D02*
X0098585Y0119456D01*
X0098871Y0120054D02*
X0112303Y0120054D01*
X0113500Y0120054D02*
X0114100Y0120054D01*
X0114100Y0119456D02*
X0113500Y0119456D01*
X0113500Y0118857D02*
X0114100Y0118857D01*
X0114100Y0118259D02*
X0113500Y0118259D01*
X0113500Y0116463D02*
X0114100Y0116463D01*
X0114100Y0115865D02*
X0113500Y0115865D01*
X0113500Y0115266D02*
X0114100Y0115266D01*
X0114100Y0114668D02*
X0113500Y0114668D01*
X0113500Y0114069D02*
X0114100Y0114069D01*
X0114100Y0113471D02*
X0113500Y0113471D01*
X0112484Y0113471D02*
X0022600Y0113471D01*
X0022600Y0114069D02*
X0111469Y0114069D01*
X0110920Y0114668D02*
X0022600Y0114668D01*
X0022600Y0115266D02*
X0110561Y0115266D01*
X0110336Y0115865D02*
X0022600Y0115865D01*
X0022600Y0116463D02*
X0110220Y0116463D01*
X0115116Y0113471D02*
X0161696Y0113471D01*
X0161968Y0113358D02*
X0162660Y0113220D01*
X0162713Y0113220D01*
X0162713Y0116500D01*
X0159433Y0116500D01*
X0159433Y0116447D01*
X0159571Y0115756D01*
X0159840Y0115104D01*
X0160232Y0114518D01*
X0160731Y0114020D01*
X0161317Y0113628D01*
X0161968Y0113358D01*
X0162713Y0113471D02*
X0163313Y0113471D01*
X0163313Y0114069D02*
X0162713Y0114069D01*
X0162713Y0114668D02*
X0163313Y0114668D01*
X0163313Y0115266D02*
X0162713Y0115266D01*
X0162713Y0115865D02*
X0163313Y0115865D01*
X0163313Y0116463D02*
X0162713Y0116463D01*
X0162713Y0118259D02*
X0163313Y0118259D01*
X0163313Y0118857D02*
X0162713Y0118857D01*
X0162713Y0119456D02*
X0163313Y0119456D01*
X0163313Y0120054D02*
X0162713Y0120054D01*
X0161516Y0120054D02*
X0115297Y0120054D01*
X0116206Y0119456D02*
X0160606Y0119456D01*
X0160082Y0118857D02*
X0116730Y0118857D01*
X0117070Y0118259D02*
X0159742Y0118259D01*
X0159534Y0117660D02*
X0117279Y0117660D01*
X0117380Y0116463D02*
X0159433Y0116463D01*
X0159549Y0115865D02*
X0117264Y0115865D01*
X0117039Y0115266D02*
X0159773Y0115266D01*
X0160132Y0114668D02*
X0116680Y0114668D01*
X0116131Y0114069D02*
X0160681Y0114069D01*
X0164510Y0120054D02*
X0620000Y0120054D01*
X0620000Y0119456D02*
X0237232Y0119456D01*
X0238017Y0118857D02*
X0620000Y0118857D01*
X0620000Y0118259D02*
X0238509Y0118259D01*
X0238824Y0117660D02*
X0620000Y0117660D01*
X0620000Y0117062D02*
X0239011Y0117062D01*
X0239076Y0115865D02*
X0620000Y0115865D01*
X0620000Y0116463D02*
X0235813Y0116463D01*
X0235813Y0117062D02*
X0235213Y0117062D01*
X0235213Y0117660D02*
X0235813Y0117660D01*
X0235813Y0118259D02*
X0235213Y0118259D01*
X0235213Y0118857D02*
X0235813Y0118857D01*
X0235813Y0119456D02*
X0235213Y0119456D01*
X0233793Y0119456D02*
X0188020Y0119456D01*
X0188805Y0118857D02*
X0233008Y0118857D01*
X0232516Y0118259D02*
X0189296Y0118259D01*
X0189611Y0117660D02*
X0232202Y0117660D01*
X0232014Y0117062D02*
X0189798Y0117062D01*
X0189863Y0115865D02*
X0231950Y0115865D01*
X0232069Y0115266D02*
X0189744Y0115266D01*
X0189498Y0114668D02*
X0232314Y0114668D01*
X0232698Y0114069D02*
X0189115Y0114069D01*
X0188509Y0113471D02*
X0233304Y0113471D01*
X0236591Y0112872D02*
X0620000Y0112872D01*
X0620000Y0113471D02*
X0237721Y0113471D01*
X0238327Y0114069D02*
X0620000Y0114069D01*
X0620000Y0114668D02*
X0238711Y0114668D01*
X0238957Y0115266D02*
X0620000Y0115266D01*
X0620000Y0120653D02*
X0099034Y0120653D01*
X0099053Y0121850D02*
X0620000Y0121850D01*
X0620000Y0122448D02*
X0098911Y0122448D01*
X0098650Y0123047D02*
X0620000Y0123047D01*
X0620000Y0123645D02*
X0098229Y0123645D01*
X0097550Y0124244D02*
X0620000Y0124244D01*
X0620000Y0124842D02*
X0096051Y0124842D01*
X0095813Y0124842D02*
X0095213Y0124842D01*
X0094974Y0124842D02*
X0046839Y0124842D01*
X0046653Y0124880D02*
X0046600Y0124880D01*
X0046600Y0121600D01*
X0049880Y0121600D01*
X0049880Y0121653D01*
X0049742Y0122344D01*
X0049472Y0122996D01*
X0049080Y0123582D01*
X0048582Y0124080D01*
X0047996Y0124472D01*
X0047344Y0124742D01*
X0046653Y0124880D01*
X0046600Y0124842D02*
X0046000Y0124842D01*
X0046000Y0124880D02*
X0045947Y0124880D01*
X0045256Y0124742D01*
X0044604Y0124472D01*
X0044018Y0124080D01*
X0043520Y0123582D01*
X0043128Y0122996D01*
X0042858Y0122344D01*
X0042720Y0121653D01*
X0042720Y0121600D01*
X0046000Y0121600D01*
X0046000Y0124880D01*
X0045761Y0124842D02*
X0022600Y0124842D01*
X0022600Y0124244D02*
X0044263Y0124244D01*
X0043583Y0123645D02*
X0022600Y0123645D01*
X0022600Y0123047D02*
X0043162Y0123047D01*
X0042901Y0122448D02*
X0022600Y0122448D01*
X0022600Y0121850D02*
X0042760Y0121850D01*
X0042720Y0121000D02*
X0042720Y0120947D01*
X0042858Y0120256D01*
X0043128Y0119604D01*
X0043520Y0119018D01*
X0044018Y0118520D01*
X0044604Y0118128D01*
X0045256Y0117858D01*
X0045947Y0117720D01*
X0046000Y0117720D01*
X0046000Y0121000D01*
X0046600Y0121000D01*
X0046600Y0121600D01*
X0046000Y0121600D01*
X0046000Y0121000D01*
X0042720Y0121000D01*
X0042779Y0120653D02*
X0022600Y0120653D01*
X0022600Y0121251D02*
X0046000Y0121251D01*
X0046000Y0120653D02*
X0046600Y0120653D01*
X0046600Y0121000D02*
X0046600Y0117720D01*
X0046653Y0117720D01*
X0047344Y0117858D01*
X0047996Y0118128D01*
X0048582Y0118520D01*
X0049080Y0119018D01*
X0049472Y0119604D01*
X0049742Y0120256D01*
X0049880Y0120947D01*
X0049880Y0121000D01*
X0046600Y0121000D01*
X0046600Y0121251D02*
X0095213Y0121251D01*
X0095213Y0121000D02*
X0091933Y0121000D01*
X0091933Y0120947D01*
X0092071Y0120256D01*
X0092340Y0119604D01*
X0092732Y0119018D01*
X0093231Y0118520D01*
X0093817Y0118128D01*
X0094468Y0117858D01*
X0095160Y0117720D01*
X0095213Y0117720D01*
X0095213Y0121000D01*
X0095213Y0120653D02*
X0095813Y0120653D01*
X0095813Y0121251D02*
X0620000Y0121251D01*
X0620000Y0125441D02*
X0022600Y0125441D01*
X0022600Y0126039D02*
X0620000Y0126039D01*
X0620000Y0126638D02*
X0022600Y0126638D01*
X0022600Y0127237D02*
X0331764Y0127237D01*
X0331973Y0127150D02*
X0333127Y0127150D01*
X0334193Y0127591D01*
X0335008Y0128407D01*
X0335450Y0129473D01*
X0335450Y0130627D01*
X0335008Y0131693D01*
X0334193Y0132508D01*
X0333127Y0132950D01*
X0331973Y0132950D01*
X0330907Y0132508D01*
X0330091Y0131693D01*
X0329650Y0130627D01*
X0329650Y0129473D01*
X0330091Y0128407D01*
X0330907Y0127591D01*
X0331973Y0127150D01*
X0333336Y0127237D02*
X0620000Y0127237D01*
X0620000Y0127835D02*
X0334436Y0127835D01*
X0335019Y0128434D02*
X0620000Y0128434D01*
X0620000Y0129032D02*
X0335267Y0129032D01*
X0335450Y0129631D02*
X0620000Y0129631D01*
X0620000Y0130229D02*
X0335450Y0130229D01*
X0335367Y0130828D02*
X0620000Y0130828D01*
X0620000Y0131426D02*
X0335119Y0131426D01*
X0334677Y0132025D02*
X0620000Y0132025D01*
X0620000Y0132623D02*
X0333916Y0132623D01*
X0331184Y0132623D02*
X0320486Y0132623D01*
X0320773Y0132504D02*
X0319817Y0132900D01*
X0318783Y0132900D01*
X0317827Y0132504D01*
X0317096Y0131773D01*
X0316700Y0130817D01*
X0316700Y0129783D01*
X0317096Y0128827D01*
X0317827Y0128096D01*
X0318783Y0127700D01*
X0319817Y0127700D01*
X0320773Y0128096D01*
X0321504Y0128827D01*
X0321900Y0129783D01*
X0321900Y0130817D01*
X0321504Y0131773D01*
X0320773Y0132504D01*
X0321252Y0132025D02*
X0330423Y0132025D01*
X0329981Y0131426D02*
X0321648Y0131426D01*
X0321896Y0130828D02*
X0329733Y0130828D01*
X0329650Y0130229D02*
X0321900Y0130229D01*
X0321837Y0129631D02*
X0329650Y0129631D01*
X0329833Y0129032D02*
X0321589Y0129032D01*
X0321110Y0128434D02*
X0330081Y0128434D01*
X0330664Y0127835D02*
X0320143Y0127835D01*
X0318457Y0127835D02*
X0022600Y0127835D01*
X0022600Y0128434D02*
X0317490Y0128434D01*
X0317011Y0129032D02*
X0022600Y0129032D01*
X0022600Y0129631D02*
X0316763Y0129631D01*
X0316700Y0130229D02*
X0022600Y0130229D01*
X0022600Y0130828D02*
X0316704Y0130828D01*
X0316952Y0131426D02*
X0022600Y0131426D01*
X0022600Y0132025D02*
X0317348Y0132025D01*
X0318114Y0132623D02*
X0236750Y0132623D01*
X0236225Y0132406D02*
X0237540Y0132950D01*
X0238547Y0133957D01*
X0239092Y0135273D01*
X0239092Y0136697D01*
X0238547Y0138013D01*
X0237540Y0139020D01*
X0236225Y0139565D01*
X0234801Y0139565D01*
X0233485Y0139020D01*
X0232478Y0138013D01*
X0231933Y0136697D01*
X0231933Y0135273D01*
X0232478Y0133957D01*
X0233485Y0132950D01*
X0234801Y0132406D01*
X0236225Y0132406D01*
X0237811Y0133222D02*
X0620000Y0133222D01*
X0620000Y0133820D02*
X0238410Y0133820D01*
X0238738Y0134419D02*
X0620000Y0134419D01*
X0620000Y0135017D02*
X0238986Y0135017D01*
X0239092Y0135616D02*
X0620000Y0135616D01*
X0620000Y0136214D02*
X0336891Y0136214D01*
X0336773Y0136096D02*
X0337504Y0136827D01*
X0337900Y0137783D01*
X0337900Y0138817D01*
X0337504Y0139773D01*
X0336773Y0140504D01*
X0335817Y0140900D01*
X0334783Y0140900D01*
X0333827Y0140504D01*
X0333096Y0139773D01*
X0332700Y0138817D01*
X0332700Y0137783D01*
X0333096Y0136827D01*
X0333827Y0136096D01*
X0334783Y0135700D01*
X0335817Y0135700D01*
X0336773Y0136096D01*
X0337490Y0136813D02*
X0620000Y0136813D01*
X0620000Y0137411D02*
X0337746Y0137411D01*
X0337900Y0138010D02*
X0620000Y0138010D01*
X0620000Y0138608D02*
X0337900Y0138608D01*
X0337739Y0139207D02*
X0620000Y0139207D01*
X0620000Y0139805D02*
X0337472Y0139805D01*
X0336873Y0140404D02*
X0620000Y0140404D01*
X0620000Y0141002D02*
X0099092Y0141002D01*
X0099092Y0140404D02*
X0333727Y0140404D01*
X0333128Y0139805D02*
X0164351Y0139805D01*
X0163725Y0140065D02*
X0162301Y0140065D01*
X0160985Y0139520D01*
X0159978Y0138513D01*
X0159433Y0137197D01*
X0159433Y0135773D01*
X0159978Y0134457D01*
X0160985Y0133450D01*
X0162301Y0132906D01*
X0163725Y0132906D01*
X0165040Y0133450D01*
X0166047Y0134457D01*
X0166592Y0135773D01*
X0166592Y0137197D01*
X0166047Y0138513D01*
X0165040Y0139520D01*
X0163725Y0140065D01*
X0165353Y0139207D02*
X0184724Y0139207D01*
X0184272Y0139020D02*
X0183265Y0138013D01*
X0182720Y0136697D01*
X0182720Y0135273D01*
X0183265Y0133957D01*
X0184272Y0132950D01*
X0185588Y0132406D01*
X0187012Y0132406D01*
X0188328Y0132950D01*
X0189335Y0133957D01*
X0189880Y0135273D01*
X0189880Y0136697D01*
X0189335Y0138013D01*
X0188328Y0139020D01*
X0187012Y0139565D01*
X0185588Y0139565D01*
X0184272Y0139020D01*
X0183861Y0138608D02*
X0165952Y0138608D01*
X0166256Y0138010D02*
X0183264Y0138010D01*
X0183016Y0137411D02*
X0166503Y0137411D01*
X0166592Y0136813D02*
X0182768Y0136813D01*
X0182720Y0136214D02*
X0166592Y0136214D01*
X0166527Y0135616D02*
X0182720Y0135616D01*
X0182826Y0135017D02*
X0166279Y0135017D01*
X0166008Y0134419D02*
X0183074Y0134419D01*
X0183403Y0133820D02*
X0165410Y0133820D01*
X0164488Y0133222D02*
X0184001Y0133222D01*
X0185063Y0132623D02*
X0022600Y0132623D01*
X0022600Y0133222D02*
X0112325Y0133222D01*
X0111772Y0133450D02*
X0113088Y0132906D01*
X0114512Y0132906D01*
X0115828Y0133450D01*
X0116835Y0134457D01*
X0117380Y0135773D01*
X0117380Y0137197D01*
X0116835Y0138513D01*
X0115828Y0139520D01*
X0114512Y0140065D01*
X0113088Y0140065D01*
X0111772Y0139520D01*
X0110765Y0138513D01*
X0110220Y0137197D01*
X0110220Y0135773D01*
X0110765Y0134457D01*
X0111772Y0133450D01*
X0111403Y0133820D02*
X0022600Y0133820D01*
X0022600Y0134419D02*
X0110804Y0134419D01*
X0110534Y0135017D02*
X0022600Y0135017D01*
X0022600Y0135616D02*
X0110286Y0135616D01*
X0110220Y0136214D02*
X0022600Y0136214D01*
X0022600Y0136813D02*
X0110220Y0136813D01*
X0110309Y0137411D02*
X0096238Y0137411D01*
X0096225Y0137406D02*
X0097540Y0137950D01*
X0098547Y0138957D01*
X0099092Y0140273D01*
X0099092Y0141697D01*
X0098547Y0143013D01*
X0097540Y0144020D01*
X0096225Y0144565D01*
X0094801Y0144565D01*
X0093485Y0144020D01*
X0092478Y0143013D01*
X0091933Y0141697D01*
X0091933Y0140273D01*
X0092478Y0138957D01*
X0093485Y0137950D01*
X0094801Y0137406D01*
X0096225Y0137406D01*
X0094787Y0137411D02*
X0047026Y0137411D01*
X0047012Y0137406D02*
X0048328Y0137950D01*
X0049335Y0138957D01*
X0049880Y0140273D01*
X0049880Y0141697D01*
X0049335Y0143013D01*
X0048328Y0144020D01*
X0047012Y0144565D01*
X0045588Y0144565D01*
X0044272Y0144020D01*
X0043265Y0143013D01*
X0042720Y0141697D01*
X0042720Y0140273D01*
X0043265Y0138957D01*
X0044272Y0137950D01*
X0045588Y0137406D01*
X0047012Y0137406D01*
X0045574Y0137411D02*
X0022600Y0137411D01*
X0022600Y0138010D02*
X0044213Y0138010D01*
X0043615Y0138608D02*
X0022600Y0138608D01*
X0022600Y0139207D02*
X0043162Y0139207D01*
X0042914Y0139805D02*
X0022600Y0139805D01*
X0022600Y0140404D02*
X0042720Y0140404D01*
X0042720Y0141002D02*
X0022600Y0141002D01*
X0022600Y0141601D02*
X0042720Y0141601D01*
X0042929Y0142199D02*
X0022600Y0142199D01*
X0022600Y0142798D02*
X0043176Y0142798D01*
X0043649Y0143396D02*
X0022600Y0143396D01*
X0022600Y0143995D02*
X0044248Y0143995D01*
X0048352Y0143995D02*
X0093460Y0143995D01*
X0092862Y0143396D02*
X0048951Y0143396D01*
X0049424Y0142798D02*
X0092389Y0142798D01*
X0092141Y0142199D02*
X0049671Y0142199D01*
X0049880Y0141601D02*
X0091933Y0141601D01*
X0091933Y0141002D02*
X0049880Y0141002D01*
X0049880Y0140404D02*
X0091933Y0140404D01*
X0092127Y0139805D02*
X0049686Y0139805D01*
X0049438Y0139207D02*
X0092375Y0139207D01*
X0092827Y0138608D02*
X0048985Y0138608D01*
X0048387Y0138010D02*
X0093426Y0138010D01*
X0097599Y0138010D02*
X0110557Y0138010D01*
X0110861Y0138608D02*
X0098198Y0138608D01*
X0098650Y0139207D02*
X0111459Y0139207D01*
X0112462Y0139805D02*
X0098898Y0139805D01*
X0099092Y0141601D02*
X0620000Y0141601D01*
X0620000Y0142199D02*
X0315876Y0142199D01*
X0315773Y0142096D02*
X0316504Y0142827D01*
X0316900Y0143783D01*
X0316900Y0144817D01*
X0316504Y0145773D01*
X0315773Y0146504D01*
X0314817Y0146900D01*
X0313783Y0146900D01*
X0312827Y0146504D01*
X0312096Y0145773D01*
X0311700Y0144817D01*
X0311700Y0143783D01*
X0312096Y0142827D01*
X0312827Y0142096D01*
X0313783Y0141700D01*
X0314817Y0141700D01*
X0315773Y0142096D01*
X0316475Y0142798D02*
X0620000Y0142798D01*
X0620000Y0143396D02*
X0316740Y0143396D01*
X0316900Y0143995D02*
X0620000Y0143995D01*
X0620000Y0144593D02*
X0316900Y0144593D01*
X0316745Y0145192D02*
X0620000Y0145192D01*
X0620000Y0145790D02*
X0316487Y0145790D01*
X0315888Y0146389D02*
X0620000Y0146389D01*
X0620000Y0146987D02*
X0326511Y0146987D01*
X0326773Y0147096D02*
X0327504Y0147827D01*
X0327900Y0148783D01*
X0620000Y0148783D01*
X0620000Y0149381D02*
X0327900Y0149381D01*
X0327900Y0149817D02*
X0327504Y0150773D01*
X0326773Y0151504D01*
X0325817Y0151900D01*
X0324783Y0151900D01*
X0323827Y0151504D01*
X0323096Y0150773D01*
X0322700Y0149817D01*
X0322700Y0148783D01*
X0305450Y0148783D01*
X0305450Y0148223D02*
X0305008Y0147157D01*
X0304193Y0146341D01*
X0303127Y0145900D01*
X0301973Y0145900D01*
X0300907Y0146341D01*
X0300091Y0147157D01*
X0299650Y0148223D01*
X0299650Y0149377D01*
X0300091Y0150443D01*
X0300907Y0151258D01*
X0301973Y0151700D01*
X0303127Y0151700D01*
X0304193Y0151258D01*
X0305008Y0150443D01*
X0305450Y0149377D01*
X0305450Y0148223D01*
X0305434Y0148184D02*
X0322948Y0148184D01*
X0323096Y0147827D02*
X0323827Y0147096D01*
X0324783Y0146700D01*
X0325817Y0146700D01*
X0326773Y0147096D01*
X0327263Y0147586D02*
X0620000Y0147586D01*
X0620000Y0148184D02*
X0327652Y0148184D01*
X0327900Y0148783D02*
X0327900Y0149817D01*
X0327833Y0149980D02*
X0620000Y0149980D01*
X0620000Y0150578D02*
X0327585Y0150578D01*
X0327100Y0151177D02*
X0620000Y0151177D01*
X0620000Y0151775D02*
X0326118Y0151775D01*
X0324482Y0151775D02*
X0022600Y0151775D01*
X0022600Y0151177D02*
X0300826Y0151177D01*
X0300227Y0150578D02*
X0022600Y0150578D01*
X0022600Y0149980D02*
X0299900Y0149980D01*
X0299652Y0149381D02*
X0022600Y0149381D01*
X0022600Y0148783D02*
X0299650Y0148783D01*
X0299666Y0148184D02*
X0022600Y0148184D01*
X0022600Y0147586D02*
X0299914Y0147586D01*
X0300261Y0146987D02*
X0022600Y0146987D01*
X0022600Y0146389D02*
X0300860Y0146389D01*
X0304240Y0146389D02*
X0312712Y0146389D01*
X0312113Y0145790D02*
X0022600Y0145790D01*
X0022600Y0145192D02*
X0311855Y0145192D01*
X0311700Y0144593D02*
X0022600Y0144593D01*
X0022600Y0152374D02*
X0620000Y0152374D01*
X0620000Y0152972D02*
X0022600Y0152972D01*
X0022600Y0153571D02*
X0620000Y0153571D01*
X0620000Y0154170D02*
X0022600Y0154170D01*
X0022600Y0154768D02*
X0620000Y0154768D01*
X0620000Y0155367D02*
X0022600Y0155367D01*
X0022600Y0155965D02*
X0620000Y0155965D01*
X0620000Y0156564D02*
X0022600Y0156564D01*
X0022600Y0157162D02*
X0620000Y0157162D01*
X0620000Y0157761D02*
X0022600Y0157761D01*
X0022600Y0158359D02*
X0620000Y0158359D01*
X0620000Y0158958D02*
X0022600Y0158958D01*
X0022600Y0159556D02*
X0620000Y0159556D01*
X0620000Y0160155D02*
X0022600Y0160155D01*
X0022600Y0160753D02*
X0620000Y0160753D01*
X0620000Y0161352D02*
X0022600Y0161352D01*
X0022600Y0161950D02*
X0620000Y0161950D01*
X0620000Y0162549D02*
X0022600Y0162549D01*
X0022600Y0163147D02*
X0620000Y0163147D01*
X0620000Y0163746D02*
X0022600Y0163746D01*
X0022600Y0164344D02*
X0620000Y0164344D01*
X0620000Y0164943D02*
X0022600Y0164943D01*
X0022600Y0165541D02*
X0412812Y0165541D01*
X0412274Y0165764D02*
X0413762Y0165148D01*
X0415373Y0165148D01*
X0416862Y0165764D01*
X0418001Y0166903D01*
X0418618Y0168392D01*
X0418618Y0170003D01*
X0418001Y0171492D01*
X0416862Y0172631D01*
X0415373Y0173248D01*
X0413762Y0173248D01*
X0412274Y0172631D01*
X0411134Y0171492D01*
X0410518Y0170003D01*
X0410518Y0168392D01*
X0411134Y0166903D01*
X0412274Y0165764D01*
X0411898Y0166140D02*
X0022600Y0166140D01*
X0022600Y0166738D02*
X0411300Y0166738D01*
X0410955Y0167337D02*
X0022600Y0167337D01*
X0022600Y0167935D02*
X0410707Y0167935D01*
X0410518Y0168534D02*
X0022600Y0168534D01*
X0022600Y0169132D02*
X0410518Y0169132D01*
X0410518Y0169731D02*
X0022600Y0169731D01*
X0022600Y0170329D02*
X0410653Y0170329D01*
X0410901Y0170928D02*
X0022600Y0170928D01*
X0022600Y0171526D02*
X0411169Y0171526D01*
X0411767Y0172125D02*
X0022600Y0172125D01*
X0022600Y0172723D02*
X0412496Y0172723D01*
X0413762Y0175148D02*
X0415373Y0175148D01*
X0416862Y0175764D01*
X0418001Y0176903D01*
X0418618Y0178392D01*
X0418618Y0180003D01*
X0418001Y0181492D01*
X0416862Y0182631D01*
X0415373Y0183248D01*
X0413762Y0183248D01*
X0412274Y0182631D01*
X0411134Y0181492D01*
X0410518Y0180003D01*
X0410518Y0178392D01*
X0411134Y0176903D01*
X0412274Y0175764D01*
X0413762Y0175148D01*
X0412390Y0175716D02*
X0022600Y0175716D01*
X0022600Y0176314D02*
X0411723Y0176314D01*
X0411130Y0176913D02*
X0022600Y0176913D01*
X0022600Y0177511D02*
X0410882Y0177511D01*
X0410635Y0178110D02*
X0167165Y0178110D01*
X0167208Y0178128D02*
X0167794Y0178520D01*
X0168293Y0179018D01*
X0168685Y0179604D01*
X0168955Y0180256D01*
X0169092Y0180947D01*
X0169092Y0181000D01*
X0165813Y0181000D01*
X0165813Y0181600D01*
X0169092Y0181600D01*
X0169092Y0181653D01*
X0168955Y0182344D01*
X0168685Y0182996D01*
X0168293Y0183582D01*
X0167794Y0184080D01*
X0167208Y0184472D01*
X0166557Y0184742D01*
X0165865Y0184880D01*
X0165813Y0184880D01*
X0165813Y0181600D01*
X0165213Y0181600D01*
X0165213Y0184880D01*
X0165160Y0184880D01*
X0164468Y0184742D01*
X0163817Y0184472D01*
X0163231Y0184080D01*
X0162732Y0183582D01*
X0162340Y0182996D01*
X0162071Y0182344D01*
X0161933Y0181653D01*
X0161933Y0181600D01*
X0165213Y0181600D01*
X0165213Y0181000D01*
X0165813Y0181000D01*
X0165813Y0177720D01*
X0165865Y0177720D01*
X0166557Y0177858D01*
X0167208Y0178128D01*
X0167983Y0178708D02*
X0410518Y0178708D01*
X0410518Y0179307D02*
X0168486Y0179307D01*
X0168809Y0179905D02*
X0410518Y0179905D01*
X0410725Y0180504D02*
X0169004Y0180504D01*
X0169082Y0181701D02*
X0411344Y0181701D01*
X0410973Y0181103D02*
X0165813Y0181103D01*
X0165813Y0181701D02*
X0165213Y0181701D01*
X0165213Y0181103D02*
X0116600Y0181103D01*
X0116600Y0181000D02*
X0116600Y0181600D01*
X0119880Y0181600D01*
X0119880Y0181653D01*
X0119742Y0182344D01*
X0119472Y0182996D01*
X0119080Y0183582D01*
X0118582Y0184080D01*
X0117996Y0184472D01*
X0117344Y0184742D01*
X0116653Y0184880D01*
X0116600Y0184880D01*
X0116600Y0181600D01*
X0116000Y0181600D01*
X0116000Y0184880D01*
X0115947Y0184880D01*
X0115256Y0184742D01*
X0114604Y0184472D01*
X0114018Y0184080D01*
X0113520Y0183582D01*
X0113128Y0182996D01*
X0112858Y0182344D01*
X0112720Y0181653D01*
X0112720Y0181600D01*
X0116000Y0181600D01*
X0116000Y0181000D01*
X0116600Y0181000D01*
X0119880Y0181000D01*
X0119880Y0180947D01*
X0119742Y0180256D01*
X0119472Y0179604D01*
X0119080Y0179018D01*
X0118582Y0178520D01*
X0117996Y0178128D01*
X0117344Y0177858D01*
X0116653Y0177720D01*
X0116600Y0177720D01*
X0116600Y0181000D01*
X0116600Y0180504D02*
X0116000Y0180504D01*
X0116000Y0181000D02*
X0116000Y0177720D01*
X0115947Y0177720D01*
X0115256Y0177858D01*
X0114604Y0178128D01*
X0114018Y0178520D01*
X0113520Y0179018D01*
X0113128Y0179604D01*
X0112858Y0180256D01*
X0112720Y0180947D01*
X0112720Y0181000D01*
X0116000Y0181000D01*
X0116000Y0181103D02*
X0022600Y0181103D01*
X0022600Y0181701D02*
X0112730Y0181701D01*
X0112849Y0182300D02*
X0022600Y0182300D01*
X0022600Y0182898D02*
X0113087Y0182898D01*
X0113463Y0183497D02*
X0022600Y0183497D01*
X0022600Y0184095D02*
X0114040Y0184095D01*
X0115139Y0184694D02*
X0022600Y0184694D01*
X0022600Y0185292D02*
X0382150Y0185292D01*
X0382150Y0185627D02*
X0382150Y0184473D01*
X0382591Y0183407D01*
X0383407Y0182591D01*
X0384473Y0182150D01*
X0385627Y0182150D01*
X0386693Y0182591D01*
X0387508Y0183407D01*
X0387950Y0184473D01*
X0387950Y0185627D01*
X0387508Y0186693D01*
X0386693Y0187508D01*
X0385627Y0187950D01*
X0384473Y0187950D01*
X0383407Y0187508D01*
X0382591Y0186693D01*
X0382150Y0185627D01*
X0382259Y0185891D02*
X0022600Y0185891D01*
X0022600Y0186489D02*
X0382507Y0186489D01*
X0382986Y0187088D02*
X0022600Y0187088D01*
X0022600Y0187686D02*
X0383836Y0187686D01*
X0386264Y0187686D02*
X0467372Y0187686D01*
X0467591Y0187157D02*
X0468407Y0186341D01*
X0469473Y0185900D01*
X0470627Y0185900D01*
X0471693Y0186341D01*
X0472508Y0187157D01*
X0472950Y0188223D01*
X0472950Y0189377D01*
X0472508Y0190443D01*
X0471693Y0191258D01*
X0470627Y0191700D01*
X0469473Y0191700D01*
X0468407Y0191258D01*
X0467591Y0190443D01*
X0467150Y0189377D01*
X0467150Y0188223D01*
X0467591Y0187157D01*
X0467661Y0187088D02*
X0387114Y0187088D01*
X0387593Y0186489D02*
X0458964Y0186489D01*
X0459473Y0186700D02*
X0458407Y0186258D01*
X0457591Y0185443D01*
X0457150Y0184377D01*
X0457150Y0183223D01*
X0457591Y0182157D01*
X0458407Y0181341D01*
X0459473Y0180900D01*
X0460627Y0180900D01*
X0460944Y0181031D01*
X0460518Y0180003D01*
X0460518Y0178392D01*
X0461134Y0176903D01*
X0462274Y0175764D01*
X0463762Y0175148D01*
X0465373Y0175148D01*
X0466862Y0175764D01*
X0468001Y0176903D01*
X0468618Y0178392D01*
X0468618Y0180003D01*
X0468001Y0181492D01*
X0466862Y0182631D01*
X0465373Y0183248D01*
X0463762Y0183248D01*
X0462794Y0182847D01*
X0462950Y0183223D01*
X0462950Y0184377D01*
X0462508Y0185443D01*
X0461693Y0186258D01*
X0460627Y0186700D01*
X0459473Y0186700D01*
X0458039Y0185891D02*
X0387841Y0185891D01*
X0387950Y0185292D02*
X0457529Y0185292D01*
X0457281Y0184694D02*
X0387950Y0184694D01*
X0387793Y0184095D02*
X0457150Y0184095D01*
X0457150Y0183497D02*
X0387545Y0183497D01*
X0386999Y0182898D02*
X0412918Y0182898D01*
X0411942Y0182300D02*
X0385988Y0182300D01*
X0384112Y0182300D02*
X0168963Y0182300D01*
X0168725Y0182898D02*
X0383101Y0182898D01*
X0382555Y0183497D02*
X0168350Y0183497D01*
X0167772Y0184095D02*
X0382307Y0184095D01*
X0382150Y0184694D02*
X0166673Y0184694D01*
X0165813Y0184694D02*
X0165213Y0184694D01*
X0165213Y0184095D02*
X0165813Y0184095D01*
X0165813Y0183497D02*
X0165213Y0183497D01*
X0165213Y0182898D02*
X0165813Y0182898D01*
X0165813Y0182300D02*
X0165213Y0182300D01*
X0165213Y0181000D02*
X0161933Y0181000D01*
X0161933Y0180947D01*
X0162071Y0180256D01*
X0162340Y0179604D01*
X0162732Y0179018D01*
X0163231Y0178520D01*
X0163817Y0178128D01*
X0164468Y0177858D01*
X0165160Y0177720D01*
X0165213Y0177720D01*
X0165213Y0181000D01*
X0165213Y0180504D02*
X0165813Y0180504D01*
X0165813Y0179905D02*
X0165213Y0179905D01*
X0165213Y0179307D02*
X0165813Y0179307D01*
X0165813Y0178708D02*
X0165213Y0178708D01*
X0165213Y0178110D02*
X0165813Y0178110D01*
X0163860Y0178110D02*
X0117952Y0178110D01*
X0118771Y0178708D02*
X0163042Y0178708D01*
X0162539Y0179307D02*
X0119273Y0179307D01*
X0119597Y0179905D02*
X0162216Y0179905D01*
X0162021Y0180504D02*
X0119791Y0180504D01*
X0119870Y0181701D02*
X0161943Y0181701D01*
X0162062Y0182300D02*
X0119751Y0182300D01*
X0119512Y0182898D02*
X0162300Y0182898D01*
X0162675Y0183497D02*
X0119137Y0183497D01*
X0118560Y0184095D02*
X0163253Y0184095D01*
X0164352Y0184694D02*
X0117461Y0184694D01*
X0116600Y0184694D02*
X0116000Y0184694D01*
X0116000Y0184095D02*
X0116600Y0184095D01*
X0116600Y0183497D02*
X0116000Y0183497D01*
X0116000Y0182898D02*
X0116600Y0182898D01*
X0116600Y0182300D02*
X0116000Y0182300D01*
X0116000Y0181701D02*
X0116600Y0181701D01*
X0116600Y0179905D02*
X0116000Y0179905D01*
X0116000Y0179307D02*
X0116600Y0179307D01*
X0116600Y0178708D02*
X0116000Y0178708D01*
X0116000Y0178110D02*
X0116600Y0178110D01*
X0114648Y0178110D02*
X0022600Y0178110D01*
X0022600Y0178708D02*
X0113829Y0178708D01*
X0113327Y0179307D02*
X0022600Y0179307D01*
X0022600Y0179905D02*
X0113003Y0179905D01*
X0112809Y0180504D02*
X0022600Y0180504D01*
X0022600Y0175117D02*
X0620000Y0175117D01*
X0620000Y0174519D02*
X0022600Y0174519D01*
X0022600Y0173920D02*
X0620000Y0173920D01*
X0620000Y0173322D02*
X0022600Y0173322D01*
X0022600Y0188285D02*
X0467150Y0188285D01*
X0467150Y0188883D02*
X0022600Y0188883D01*
X0022600Y0189482D02*
X0467193Y0189482D01*
X0467441Y0190080D02*
X0022600Y0190080D01*
X0022600Y0190679D02*
X0467827Y0190679D01*
X0468452Y0191277D02*
X0022600Y0191277D01*
X0022600Y0191876D02*
X0620000Y0191876D01*
X0620000Y0192474D02*
X0067660Y0192474D01*
X0067943Y0192591D02*
X0066877Y0192150D01*
X0065723Y0192150D01*
X0064657Y0192591D01*
X0063841Y0193407D01*
X0063400Y0194473D01*
X0063400Y0195627D01*
X0063841Y0196693D01*
X0064657Y0197508D01*
X0065723Y0197950D01*
X0066877Y0197950D01*
X0067943Y0197508D01*
X0068758Y0196693D01*
X0069200Y0195627D01*
X0069200Y0194473D01*
X0068758Y0193407D01*
X0067943Y0192591D01*
X0068424Y0193073D02*
X0620000Y0193073D01*
X0620000Y0193671D02*
X0068868Y0193671D01*
X0069116Y0194270D02*
X0620000Y0194270D01*
X0620000Y0194868D02*
X0069200Y0194868D01*
X0069200Y0195467D02*
X0620000Y0195467D01*
X0620000Y0196065D02*
X0069018Y0196065D01*
X0068770Y0196664D02*
X0620000Y0196664D01*
X0620000Y0197262D02*
X0068189Y0197262D01*
X0067092Y0197861D02*
X0114489Y0197861D01*
X0114272Y0197950D02*
X0115588Y0197406D01*
X0117012Y0197406D01*
X0118328Y0197950D01*
X0119335Y0198957D01*
X0119880Y0200273D01*
X0119880Y0201697D01*
X0119335Y0203013D01*
X0118328Y0204020D01*
X0117012Y0204565D01*
X0115588Y0204565D01*
X0114272Y0204020D01*
X0113265Y0203013D01*
X0112720Y0201697D01*
X0112720Y0200273D01*
X0113265Y0198957D01*
X0114272Y0197950D01*
X0113763Y0198459D02*
X0022600Y0198459D01*
X0022600Y0197861D02*
X0065508Y0197861D01*
X0064411Y0197262D02*
X0022600Y0197262D01*
X0022600Y0196664D02*
X0063830Y0196664D01*
X0063582Y0196065D02*
X0022600Y0196065D01*
X0022600Y0195467D02*
X0063400Y0195467D01*
X0063400Y0194868D02*
X0022600Y0194868D01*
X0022600Y0194270D02*
X0063484Y0194270D01*
X0063732Y0193671D02*
X0022600Y0193671D01*
X0022600Y0193073D02*
X0064176Y0193073D01*
X0064940Y0192474D02*
X0022600Y0192474D01*
X0022600Y0199058D02*
X0113224Y0199058D01*
X0112976Y0199656D02*
X0022600Y0199656D01*
X0022600Y0200255D02*
X0112728Y0200255D01*
X0112720Y0200853D02*
X0022600Y0200853D01*
X0022600Y0201452D02*
X0112720Y0201452D01*
X0112867Y0202050D02*
X0022600Y0202050D01*
X0022600Y0202649D02*
X0113115Y0202649D01*
X0113500Y0203247D02*
X0022600Y0203247D01*
X0022600Y0203846D02*
X0114099Y0203846D01*
X0115298Y0204444D02*
X0022600Y0204444D01*
X0022600Y0205043D02*
X0620000Y0205043D01*
X0620000Y0205641D02*
X0022600Y0205641D01*
X0022600Y0206240D02*
X0620000Y0206240D01*
X0620000Y0206839D02*
X0022600Y0206839D01*
X0022600Y0207437D02*
X0620000Y0207437D01*
X0620000Y0208036D02*
X0022600Y0208036D01*
X0022600Y0208634D02*
X0620000Y0208634D01*
X0620000Y0209233D02*
X0022600Y0209233D01*
X0022600Y0209831D02*
X0620000Y0209831D01*
X0620000Y0210430D02*
X0022600Y0210430D01*
X0022600Y0211028D02*
X0620000Y0211028D01*
X0620000Y0211627D02*
X0022600Y0211627D01*
X0022600Y0212225D02*
X0620000Y0212225D01*
X0620000Y0212824D02*
X0022600Y0212824D01*
X0022600Y0213422D02*
X0620000Y0213422D01*
X0620000Y0214021D02*
X0022600Y0214021D01*
X0022600Y0214619D02*
X0620000Y0214619D01*
X0620000Y0215218D02*
X0022600Y0215218D01*
X0022600Y0215816D02*
X0620000Y0215816D01*
X0620000Y0216415D02*
X0022600Y0216415D01*
X0022600Y0217013D02*
X0620000Y0217013D01*
X0620000Y0217612D02*
X0022600Y0217612D01*
X0022600Y0218210D02*
X0620000Y0218210D01*
X0620000Y0218809D02*
X0022600Y0218809D01*
X0022600Y0219407D02*
X0620000Y0219407D01*
X0620000Y0220006D02*
X0022600Y0220006D01*
X0022600Y0220604D02*
X0620000Y0220604D01*
X0620000Y0221203D02*
X0022600Y0221203D01*
X0022600Y0221801D02*
X0620000Y0221801D01*
X0620000Y0222400D02*
X0022600Y0222400D01*
X0022600Y0222998D02*
X0620000Y0222998D01*
X0620000Y0223597D02*
X0022600Y0223597D01*
X0022600Y0224195D02*
X0620000Y0224195D01*
X0620000Y0224794D02*
X0022600Y0224794D01*
X0022600Y0225392D02*
X0620000Y0225392D01*
X0620000Y0225991D02*
X0022600Y0225991D01*
X0022600Y0226589D02*
X0620000Y0226589D01*
X0620000Y0227188D02*
X0022600Y0227188D01*
X0022600Y0227786D02*
X0620000Y0227786D01*
X0620000Y0228385D02*
X0022600Y0228385D01*
X0022600Y0228983D02*
X0620000Y0228983D01*
X0620000Y0229582D02*
X0022600Y0229582D01*
X0022600Y0230180D02*
X0620000Y0230180D01*
X0620000Y0230779D02*
X0022600Y0230779D01*
X0022600Y0231377D02*
X0620000Y0231377D01*
X0620000Y0231976D02*
X0022600Y0231976D01*
X0022600Y0232574D02*
X0620000Y0232574D01*
X0620000Y0233173D02*
X0338063Y0233173D01*
X0337996Y0233128D02*
X0338582Y0233520D01*
X0339080Y0234018D01*
X0339472Y0234604D01*
X0339742Y0235256D01*
X0339880Y0235947D01*
X0339880Y0236000D01*
X0336600Y0236000D01*
X0336600Y0236600D01*
X0339880Y0236600D01*
X0339880Y0236653D01*
X0339742Y0237344D01*
X0339472Y0237996D01*
X0339080Y0238582D01*
X0338582Y0239080D01*
X0337996Y0239472D01*
X0337344Y0239742D01*
X0336653Y0239880D01*
X0336600Y0239880D01*
X0336600Y0236600D01*
X0336000Y0236600D01*
X0336000Y0239880D01*
X0335947Y0239880D01*
X0335256Y0239742D01*
X0334604Y0239472D01*
X0334018Y0239080D01*
X0333520Y0238582D01*
X0333128Y0237996D01*
X0332858Y0237344D01*
X0332720Y0236653D01*
X0332720Y0236600D01*
X0336000Y0236600D01*
X0336000Y0236000D01*
X0336600Y0236000D01*
X0336600Y0232720D01*
X0336653Y0232720D01*
X0337344Y0232858D01*
X0337996Y0233128D01*
X0338834Y0233772D02*
X0620000Y0233772D01*
X0620000Y0234370D02*
X0339315Y0234370D01*
X0339623Y0234969D02*
X0620000Y0234969D01*
X0620000Y0235567D02*
X0339804Y0235567D01*
X0339857Y0236764D02*
X0620000Y0236764D01*
X0620000Y0236166D02*
X0336600Y0236166D01*
X0336600Y0236764D02*
X0336000Y0236764D01*
X0336000Y0236166D02*
X0022600Y0236166D01*
X0022600Y0236764D02*
X0332743Y0236764D01*
X0332866Y0237363D02*
X0022600Y0237363D01*
X0022600Y0237961D02*
X0333114Y0237961D01*
X0333505Y0238560D02*
X0022600Y0238560D01*
X0022600Y0239158D02*
X0334135Y0239158D01*
X0335330Y0239757D02*
X0022600Y0239757D01*
X0022600Y0240355D02*
X0517838Y0240355D01*
X0517858Y0240256D02*
X0518128Y0239604D01*
X0518520Y0239018D01*
X0519018Y0238520D01*
X0519604Y0238128D01*
X0520256Y0237858D01*
X0520947Y0237720D01*
X0521000Y0237720D01*
X0521000Y0241000D01*
X0521600Y0241000D01*
X0521600Y0241600D01*
X0524880Y0241600D01*
X0524880Y0241653D01*
X0524742Y0242344D01*
X0524472Y0242996D01*
X0524080Y0243582D01*
X0523582Y0244080D01*
X0522996Y0244472D01*
X0522344Y0244742D01*
X0521653Y0244880D01*
X0521600Y0244880D01*
X0521600Y0241600D01*
X0521000Y0241600D01*
X0521000Y0244880D01*
X0520947Y0244880D01*
X0520256Y0244742D01*
X0519604Y0244472D01*
X0519018Y0244080D01*
X0518520Y0243582D01*
X0518128Y0242996D01*
X0517858Y0242344D01*
X0517720Y0241653D01*
X0517720Y0241600D01*
X0521000Y0241600D01*
X0521000Y0241000D01*
X0517720Y0241000D01*
X0517720Y0240947D01*
X0517858Y0240256D01*
X0518065Y0239757D02*
X0337270Y0239757D01*
X0336600Y0239757D02*
X0336000Y0239757D01*
X0336000Y0239158D02*
X0336600Y0239158D01*
X0336600Y0238560D02*
X0336000Y0238560D01*
X0336000Y0237961D02*
X0336600Y0237961D01*
X0336600Y0237363D02*
X0336000Y0237363D01*
X0336000Y0236000D02*
X0332720Y0236000D01*
X0332720Y0235947D01*
X0332858Y0235256D01*
X0333128Y0234604D01*
X0333520Y0234018D01*
X0334018Y0233520D01*
X0334604Y0233128D01*
X0335256Y0232858D01*
X0335947Y0232720D01*
X0336000Y0232720D01*
X0336000Y0236000D01*
X0336000Y0235567D02*
X0336600Y0235567D01*
X0336600Y0234969D02*
X0336000Y0234969D01*
X0336000Y0234370D02*
X0336600Y0234370D01*
X0336600Y0233772D02*
X0336000Y0233772D01*
X0336000Y0233173D02*
X0336600Y0233173D01*
X0334537Y0233173D02*
X0022600Y0233173D01*
X0022600Y0233772D02*
X0333766Y0233772D01*
X0333284Y0234370D02*
X0022600Y0234370D01*
X0022600Y0234969D02*
X0332977Y0234969D01*
X0332796Y0235567D02*
X0022600Y0235567D01*
X0022600Y0240954D02*
X0517720Y0240954D01*
X0517820Y0242151D02*
X0022600Y0242151D01*
X0022600Y0242749D02*
X0518026Y0242749D01*
X0518363Y0243348D02*
X0022600Y0243348D01*
X0022600Y0243946D02*
X0518884Y0243946D01*
X0519780Y0244545D02*
X0022600Y0244545D01*
X0022600Y0245143D02*
X0620000Y0245143D01*
X0620000Y0244545D02*
X0572033Y0244545D01*
X0572208Y0244472D02*
X0571557Y0244742D01*
X0570865Y0244880D01*
X0570813Y0244880D01*
X0570813Y0241600D01*
X0574092Y0241600D01*
X0574092Y0241653D01*
X0573955Y0242344D01*
X0573685Y0242996D01*
X0573293Y0243582D01*
X0572794Y0244080D01*
X0572208Y0244472D01*
X0572929Y0243946D02*
X0620000Y0243946D01*
X0620000Y0243348D02*
X0573449Y0243348D01*
X0573787Y0242749D02*
X0620000Y0242749D01*
X0620000Y0242151D02*
X0573993Y0242151D01*
X0574092Y0241000D02*
X0570813Y0241000D01*
X0570813Y0241600D01*
X0570213Y0241600D01*
X0570213Y0244880D01*
X0570160Y0244880D01*
X0569468Y0244742D01*
X0568817Y0244472D01*
X0568231Y0244080D01*
X0567732Y0243582D01*
X0567340Y0242996D01*
X0567071Y0242344D01*
X0566933Y0241653D01*
X0566933Y0241600D01*
X0570213Y0241600D01*
X0570213Y0241000D01*
X0570813Y0241000D01*
X0570813Y0237720D01*
X0570865Y0237720D01*
X0571557Y0237858D01*
X0572208Y0238128D01*
X0572794Y0238520D01*
X0573293Y0239018D01*
X0573685Y0239604D01*
X0573955Y0240256D01*
X0574092Y0240947D01*
X0574092Y0241000D01*
X0574092Y0240954D02*
X0620000Y0240954D01*
X0620000Y0241552D02*
X0570813Y0241552D01*
X0570813Y0240954D02*
X0570213Y0240954D01*
X0570213Y0241000D02*
X0570213Y0237720D01*
X0570160Y0237720D01*
X0569468Y0237858D01*
X0568817Y0238128D01*
X0568231Y0238520D01*
X0567732Y0239018D01*
X0567340Y0239604D01*
X0567071Y0240256D01*
X0566933Y0240947D01*
X0566933Y0241000D01*
X0570213Y0241000D01*
X0570213Y0241552D02*
X0521600Y0241552D01*
X0521600Y0241000D02*
X0524880Y0241000D01*
X0524880Y0240947D01*
X0524742Y0240256D01*
X0524472Y0239604D01*
X0524080Y0239018D01*
X0523582Y0238520D01*
X0522996Y0238128D01*
X0522344Y0237858D01*
X0521653Y0237720D01*
X0521600Y0237720D01*
X0521600Y0241000D01*
X0521600Y0240954D02*
X0521000Y0240954D01*
X0521000Y0241552D02*
X0022600Y0241552D01*
X0022600Y0245742D02*
X0620000Y0245742D01*
X0620000Y0246340D02*
X0022600Y0246340D01*
X0022600Y0246939D02*
X0620000Y0246939D01*
X0620000Y0247537D02*
X0022600Y0247537D01*
X0022600Y0248136D02*
X0620000Y0248136D01*
X0620000Y0248734D02*
X0022600Y0248734D01*
X0022600Y0249333D02*
X0620000Y0249333D01*
X0620000Y0249931D02*
X0022600Y0249931D01*
X0022600Y0250530D02*
X0620000Y0250530D01*
X0620000Y0251128D02*
X0022600Y0251128D01*
X0022600Y0251727D02*
X0620000Y0251727D01*
X0620000Y0252325D02*
X0022600Y0252325D01*
X0022600Y0252924D02*
X0620000Y0252924D01*
X0620000Y0253522D02*
X0022600Y0253522D01*
X0022600Y0254121D02*
X0620000Y0254121D01*
X0620000Y0254719D02*
X0022600Y0254719D01*
X0022600Y0255318D02*
X0620000Y0255318D01*
X0620000Y0255916D02*
X0022600Y0255916D01*
X0022600Y0256515D02*
X0620000Y0256515D01*
X0620000Y0257113D02*
X0022600Y0257113D01*
X0022600Y0257712D02*
X0519848Y0257712D01*
X0519272Y0257950D02*
X0520588Y0257406D01*
X0522012Y0257406D01*
X0523328Y0257950D01*
X0524335Y0258957D01*
X0524880Y0260273D01*
X0524880Y0261697D01*
X0524335Y0263013D01*
X0523328Y0264020D01*
X0522012Y0264565D01*
X0520588Y0264565D01*
X0519272Y0264020D01*
X0518265Y0263013D01*
X0517720Y0261697D01*
X0517720Y0260273D01*
X0518265Y0258957D01*
X0519272Y0257950D01*
X0518912Y0258310D02*
X0022600Y0258310D01*
X0022600Y0258909D02*
X0334219Y0258909D01*
X0334272Y0258856D02*
X0335588Y0258311D01*
X0337012Y0258311D01*
X0338328Y0258856D01*
X0339335Y0259863D01*
X0339880Y0261179D01*
X0339880Y0262603D01*
X0339335Y0263918D01*
X0338328Y0264925D01*
X0337012Y0265470D01*
X0335588Y0265470D01*
X0334272Y0264925D01*
X0333265Y0263918D01*
X0332720Y0262603D01*
X0332720Y0261179D01*
X0333265Y0259863D01*
X0334272Y0258856D01*
X0333621Y0259508D02*
X0022600Y0259508D01*
X0022600Y0260106D02*
X0333165Y0260106D01*
X0332917Y0260705D02*
X0022600Y0260705D01*
X0022600Y0261303D02*
X0332720Y0261303D01*
X0332720Y0261902D02*
X0022600Y0261902D01*
X0022600Y0262500D02*
X0332720Y0262500D01*
X0332926Y0263099D02*
X0022600Y0263099D01*
X0022600Y0263697D02*
X0333174Y0263697D01*
X0333643Y0264296D02*
X0022600Y0264296D01*
X0022600Y0264894D02*
X0334241Y0264894D01*
X0338359Y0264894D02*
X0620000Y0264894D01*
X0620000Y0264296D02*
X0571874Y0264296D01*
X0571225Y0264565D02*
X0569801Y0264565D01*
X0568485Y0264020D01*
X0567478Y0263013D01*
X0566933Y0261697D01*
X0566933Y0260273D01*
X0567478Y0258957D01*
X0568485Y0257950D01*
X0569801Y0257406D01*
X0571225Y0257406D01*
X0572540Y0257950D01*
X0573547Y0258957D01*
X0574092Y0260273D01*
X0574092Y0261697D01*
X0573547Y0263013D01*
X0572540Y0264020D01*
X0571225Y0264565D01*
X0572863Y0263697D02*
X0620000Y0263697D01*
X0620000Y0263099D02*
X0573461Y0263099D01*
X0573760Y0262500D02*
X0620000Y0262500D01*
X0620000Y0261902D02*
X0574007Y0261902D01*
X0574092Y0261303D02*
X0620000Y0261303D01*
X0620000Y0260705D02*
X0574092Y0260705D01*
X0574023Y0260106D02*
X0620000Y0260106D01*
X0620000Y0259508D02*
X0573775Y0259508D01*
X0573499Y0258909D02*
X0620000Y0258909D01*
X0620000Y0258310D02*
X0572900Y0258310D01*
X0571964Y0257712D02*
X0620000Y0257712D01*
X0620000Y0265493D02*
X0022600Y0265493D01*
X0022600Y0266091D02*
X0620000Y0266091D01*
X0620000Y0266690D02*
X0022600Y0266690D01*
X0022600Y0267288D02*
X0620000Y0267288D01*
X0620000Y0267887D02*
X0022600Y0267887D01*
X0022600Y0268485D02*
X0388018Y0268485D01*
X0388223Y0268400D02*
X0389377Y0268400D01*
X0390443Y0268841D01*
X0391258Y0269657D01*
X0391700Y0270723D01*
X0391700Y0271877D01*
X0391258Y0272943D01*
X0390443Y0273758D01*
X0389377Y0274200D01*
X0388223Y0274200D01*
X0387157Y0273758D01*
X0386341Y0272943D01*
X0385900Y0271877D01*
X0385900Y0270723D01*
X0386341Y0269657D01*
X0387157Y0268841D01*
X0388223Y0268400D01*
X0389582Y0268485D02*
X0620000Y0268485D01*
X0620000Y0269084D02*
X0390685Y0269084D01*
X0391269Y0269682D02*
X0620000Y0269682D01*
X0620000Y0270281D02*
X0391517Y0270281D01*
X0391700Y0270879D02*
X0620000Y0270879D01*
X0620000Y0271478D02*
X0391700Y0271478D01*
X0391617Y0272076D02*
X0620000Y0272076D01*
X0620000Y0272675D02*
X0391369Y0272675D01*
X0390928Y0273273D02*
X0620000Y0273273D01*
X0620000Y0273872D02*
X0390169Y0273872D01*
X0387431Y0273872D02*
X0022600Y0273872D01*
X0022600Y0274470D02*
X0620000Y0274470D01*
X0620000Y0275069D02*
X0022600Y0275069D01*
X0022600Y0275667D02*
X0620000Y0275667D01*
X0620000Y0276266D02*
X0022600Y0276266D01*
X0022600Y0276864D02*
X0620000Y0276864D01*
X0620000Y0277463D02*
X0022600Y0277463D01*
X0022600Y0278061D02*
X0620000Y0278061D01*
X0620000Y0278660D02*
X0392504Y0278660D01*
X0392943Y0278841D02*
X0393758Y0279657D01*
X0394200Y0280723D01*
X0394200Y0281877D01*
X0393758Y0282943D01*
X0392943Y0283758D01*
X0391877Y0284200D01*
X0390723Y0284200D01*
X0389657Y0283758D01*
X0388841Y0282943D01*
X0388400Y0281877D01*
X0388400Y0280723D01*
X0388841Y0279657D01*
X0389657Y0278841D01*
X0390723Y0278400D01*
X0391877Y0278400D01*
X0392943Y0278841D01*
X0393360Y0279258D02*
X0620000Y0279258D01*
X0620000Y0279857D02*
X0393841Y0279857D01*
X0394089Y0280455D02*
X0620000Y0280455D01*
X0620000Y0281054D02*
X0394200Y0281054D01*
X0394200Y0281652D02*
X0620000Y0281652D01*
X0620000Y0282251D02*
X0394045Y0282251D01*
X0393797Y0282849D02*
X0620000Y0282849D01*
X0620000Y0283448D02*
X0393253Y0283448D01*
X0392247Y0284046D02*
X0620000Y0284046D01*
X0620000Y0284645D02*
X0022600Y0284645D01*
X0022600Y0285243D02*
X0620000Y0285243D01*
X0620000Y0285842D02*
X0022600Y0285842D01*
X0022600Y0286441D02*
X0620000Y0286441D01*
X0620000Y0287039D02*
X0022600Y0287039D01*
X0022600Y0287638D02*
X0620000Y0287638D01*
X0620000Y0288236D02*
X0022600Y0288236D01*
X0022600Y0288835D02*
X0620000Y0288835D01*
X0620000Y0289433D02*
X0022600Y0289433D01*
X0022600Y0290032D02*
X0620000Y0290032D01*
X0620000Y0290630D02*
X0022600Y0290630D01*
X0022600Y0291229D02*
X0620000Y0291229D01*
X0620000Y0291827D02*
X0022600Y0291827D01*
X0022600Y0292426D02*
X0620000Y0292426D01*
X0620000Y0293024D02*
X0022600Y0293024D01*
X0022600Y0293623D02*
X0620000Y0293623D01*
X0620000Y0294221D02*
X0022600Y0294221D01*
X0022600Y0294820D02*
X0620000Y0294820D01*
X0620000Y0295418D02*
X0022600Y0295418D01*
X0022600Y0296017D02*
X0620000Y0296017D01*
X0620000Y0296615D02*
X0022600Y0296615D01*
X0022600Y0297214D02*
X0164929Y0297214D01*
X0165445Y0297000D02*
X0167155Y0297000D01*
X0168736Y0297655D01*
X0169945Y0298864D01*
X0170600Y0300445D01*
X0170600Y0302155D01*
X0169945Y0303736D01*
X0168736Y0304945D01*
X0167155Y0305600D01*
X0165445Y0305600D01*
X0163864Y0304945D01*
X0162655Y0303736D01*
X0162000Y0302155D01*
X0162000Y0300445D01*
X0162655Y0298864D01*
X0163864Y0297655D01*
X0165445Y0297000D01*
X0163707Y0297812D02*
X0022600Y0297812D01*
X0022600Y0298411D02*
X0163108Y0298411D01*
X0162595Y0299009D02*
X0022600Y0299009D01*
X0022600Y0299608D02*
X0162347Y0299608D01*
X0162099Y0300206D02*
X0022600Y0300206D01*
X0022600Y0300805D02*
X0162000Y0300805D01*
X0162000Y0301403D02*
X0022600Y0301403D01*
X0022600Y0302002D02*
X0162000Y0302002D01*
X0162184Y0302600D02*
X0022600Y0302600D01*
X0022600Y0303199D02*
X0162432Y0303199D01*
X0162716Y0303797D02*
X0022600Y0303797D01*
X0022600Y0304396D02*
X0163315Y0304396D01*
X0163983Y0304994D02*
X0022600Y0304994D01*
X0022600Y0305593D02*
X0165428Y0305593D01*
X0167172Y0305593D02*
X0175428Y0305593D01*
X0175445Y0305600D02*
X0173864Y0304945D01*
X0172655Y0303736D01*
X0172000Y0302155D01*
X0172000Y0300445D01*
X0172655Y0298864D01*
X0173864Y0297655D01*
X0175445Y0297000D01*
X0177155Y0297000D01*
X0178736Y0297655D01*
X0179945Y0298864D01*
X0180600Y0300445D01*
X0180600Y0302155D01*
X0179945Y0303736D01*
X0178736Y0304945D01*
X0177155Y0305600D01*
X0175445Y0305600D01*
X0173983Y0304994D02*
X0168617Y0304994D01*
X0169285Y0304396D02*
X0173315Y0304396D01*
X0172716Y0303797D02*
X0169884Y0303797D01*
X0170168Y0303199D02*
X0172432Y0303199D01*
X0172184Y0302600D02*
X0170416Y0302600D01*
X0170600Y0302002D02*
X0172000Y0302002D01*
X0172000Y0301403D02*
X0170600Y0301403D01*
X0170600Y0300805D02*
X0172000Y0300805D01*
X0172099Y0300206D02*
X0170501Y0300206D01*
X0170253Y0299608D02*
X0172347Y0299608D01*
X0172595Y0299009D02*
X0170005Y0299009D01*
X0169492Y0298411D02*
X0173108Y0298411D01*
X0173707Y0297812D02*
X0168893Y0297812D01*
X0167671Y0297214D02*
X0174929Y0297214D01*
X0177671Y0297214D02*
X0184929Y0297214D01*
X0185445Y0297000D02*
X0187155Y0297000D01*
X0188736Y0297655D01*
X0189945Y0298864D01*
X0190600Y0300445D01*
X0190600Y0302155D01*
X0189945Y0303736D01*
X0188736Y0304945D01*
X0187155Y0305600D01*
X0185445Y0305600D01*
X0183864Y0304945D01*
X0182655Y0303736D01*
X0182000Y0302155D01*
X0182000Y0300445D01*
X0182655Y0298864D01*
X0183864Y0297655D01*
X0185445Y0297000D01*
X0183707Y0297812D02*
X0178893Y0297812D01*
X0179492Y0298411D02*
X0183108Y0298411D01*
X0182595Y0299009D02*
X0180005Y0299009D01*
X0180253Y0299608D02*
X0182347Y0299608D01*
X0182099Y0300206D02*
X0180501Y0300206D01*
X0180600Y0300805D02*
X0182000Y0300805D01*
X0182000Y0301403D02*
X0180600Y0301403D01*
X0180600Y0302002D02*
X0182000Y0302002D01*
X0182184Y0302600D02*
X0180416Y0302600D01*
X0180168Y0303199D02*
X0182432Y0303199D01*
X0182716Y0303797D02*
X0179884Y0303797D01*
X0179285Y0304396D02*
X0183315Y0304396D01*
X0183983Y0304994D02*
X0178617Y0304994D01*
X0177172Y0305593D02*
X0185428Y0305593D01*
X0187172Y0305593D02*
X0195428Y0305593D01*
X0195445Y0305600D02*
X0193864Y0304945D01*
X0192655Y0303736D01*
X0192000Y0302155D01*
X0192000Y0300445D01*
X0192655Y0298864D01*
X0193864Y0297655D01*
X0195445Y0297000D01*
X0197155Y0297000D01*
X0198736Y0297655D01*
X0199945Y0298864D01*
X0200600Y0300445D01*
X0200600Y0302155D01*
X0199945Y0303736D01*
X0198736Y0304945D01*
X0197155Y0305600D01*
X0195445Y0305600D01*
X0193983Y0304994D02*
X0188617Y0304994D01*
X0189285Y0304396D02*
X0193315Y0304396D01*
X0192716Y0303797D02*
X0189884Y0303797D01*
X0190168Y0303199D02*
X0192432Y0303199D01*
X0192184Y0302600D02*
X0190416Y0302600D01*
X0190600Y0302002D02*
X0192000Y0302002D01*
X0192000Y0301403D02*
X0190600Y0301403D01*
X0190600Y0300805D02*
X0192000Y0300805D01*
X0192099Y0300206D02*
X0190501Y0300206D01*
X0190253Y0299608D02*
X0192347Y0299608D01*
X0192595Y0299009D02*
X0190005Y0299009D01*
X0189492Y0298411D02*
X0193108Y0298411D01*
X0193707Y0297812D02*
X0188893Y0297812D01*
X0187671Y0297214D02*
X0194929Y0297214D01*
X0197671Y0297214D02*
X0204961Y0297214D01*
X0204649Y0297315D02*
X0205293Y0297106D01*
X0205962Y0297000D01*
X0206000Y0297000D01*
X0206000Y0301000D01*
X0206600Y0301000D01*
X0206600Y0301600D01*
X0210600Y0301600D01*
X0210600Y0301638D01*
X0210494Y0302307D01*
X0210285Y0302951D01*
X0209978Y0303554D01*
X0209580Y0304101D01*
X0209101Y0304580D01*
X0208554Y0304978D01*
X0207951Y0305285D01*
X0207307Y0305494D01*
X0206638Y0305600D01*
X0206600Y0305600D01*
X0206600Y0301600D01*
X0206000Y0301600D01*
X0206000Y0305600D01*
X0205962Y0305600D01*
X0205293Y0305494D01*
X0204649Y0305285D01*
X0204046Y0304978D01*
X0203499Y0304580D01*
X0203020Y0304101D01*
X0202622Y0303554D01*
X0202315Y0302951D01*
X0202106Y0302307D01*
X0202000Y0301638D01*
X0202000Y0301600D01*
X0206000Y0301600D01*
X0206000Y0301000D01*
X0202000Y0301000D01*
X0202000Y0300962D01*
X0202106Y0300293D01*
X0202315Y0299649D01*
X0202622Y0299046D01*
X0203020Y0298499D01*
X0203499Y0298020D01*
X0204046Y0297622D01*
X0204649Y0297315D01*
X0203785Y0297812D02*
X0198893Y0297812D01*
X0199492Y0298411D02*
X0203108Y0298411D01*
X0202649Y0299009D02*
X0200005Y0299009D01*
X0200253Y0299608D02*
X0202336Y0299608D01*
X0202134Y0300206D02*
X0200501Y0300206D01*
X0200600Y0300805D02*
X0202025Y0300805D01*
X0202058Y0302002D02*
X0200600Y0302002D01*
X0200600Y0301403D02*
X0206000Y0301403D01*
X0206000Y0300805D02*
X0206600Y0300805D01*
X0206600Y0301000D02*
X0206600Y0297000D01*
X0206638Y0297000D01*
X0207307Y0297106D01*
X0207951Y0297315D01*
X0208554Y0297622D01*
X0209101Y0298020D01*
X0209580Y0298499D01*
X0209978Y0299046D01*
X0210285Y0299649D01*
X0210494Y0300293D01*
X0210600Y0300962D01*
X0210600Y0301000D01*
X0206600Y0301000D01*
X0206600Y0301403D02*
X0216000Y0301403D01*
X0216000Y0301600D02*
X0216000Y0301000D01*
X0216600Y0301000D01*
X0216600Y0301600D01*
X0220600Y0301600D01*
X0220600Y0301638D01*
X0220494Y0302307D01*
X0220285Y0302951D01*
X0219978Y0303554D01*
X0219580Y0304101D01*
X0219101Y0304580D01*
X0218554Y0304978D01*
X0217951Y0305285D01*
X0217307Y0305494D01*
X0216638Y0305600D01*
X0216600Y0305600D01*
X0216600Y0301600D01*
X0216000Y0301600D01*
X0216000Y0305600D01*
X0215962Y0305600D01*
X0215293Y0305494D01*
X0214649Y0305285D01*
X0214046Y0304978D01*
X0213499Y0304580D01*
X0213020Y0304101D01*
X0212622Y0303554D01*
X0212315Y0302951D01*
X0212106Y0302307D01*
X0212000Y0301638D01*
X0212000Y0301600D01*
X0216000Y0301600D01*
X0216000Y0302002D02*
X0216600Y0302002D01*
X0216600Y0302600D02*
X0216000Y0302600D01*
X0216000Y0303199D02*
X0216600Y0303199D01*
X0216600Y0303797D02*
X0216000Y0303797D01*
X0216000Y0304396D02*
X0216600Y0304396D01*
X0216600Y0304994D02*
X0216000Y0304994D01*
X0216000Y0305593D02*
X0216600Y0305593D01*
X0216683Y0305593D02*
X0405428Y0305593D01*
X0405445Y0305600D02*
X0403864Y0304945D01*
X0402655Y0303736D01*
X0402000Y0302155D01*
X0402000Y0300445D01*
X0402655Y0298864D01*
X0403864Y0297655D01*
X0405445Y0297000D01*
X0407155Y0297000D01*
X0408736Y0297655D01*
X0409945Y0298864D01*
X0410600Y0300445D01*
X0410600Y0302155D01*
X0409945Y0303736D01*
X0408736Y0304945D01*
X0407155Y0305600D01*
X0405445Y0305600D01*
X0403983Y0304994D02*
X0218521Y0304994D01*
X0219285Y0304396D02*
X0403315Y0304396D01*
X0402716Y0303797D02*
X0219801Y0303797D01*
X0220158Y0303199D02*
X0402432Y0303199D01*
X0402184Y0302600D02*
X0220399Y0302600D01*
X0220542Y0302002D02*
X0402000Y0302002D01*
X0402000Y0301403D02*
X0216600Y0301403D01*
X0216600Y0301000D02*
X0220600Y0301000D01*
X0220600Y0300962D01*
X0220494Y0300293D01*
X0220285Y0299649D01*
X0219978Y0299046D01*
X0219580Y0298499D01*
X0219101Y0298020D01*
X0218554Y0297622D01*
X0217951Y0297315D01*
X0217307Y0297106D01*
X0216638Y0297000D01*
X0216600Y0297000D01*
X0216600Y0301000D01*
X0216600Y0300805D02*
X0216000Y0300805D01*
X0216000Y0301000D02*
X0216000Y0297000D01*
X0215962Y0297000D01*
X0215293Y0297106D01*
X0214649Y0297315D01*
X0214046Y0297622D01*
X0213499Y0298020D01*
X0213020Y0298499D01*
X0212622Y0299046D01*
X0212315Y0299649D01*
X0212106Y0300293D01*
X0212000Y0300962D01*
X0212000Y0301000D01*
X0216000Y0301000D01*
X0216000Y0300206D02*
X0216600Y0300206D01*
X0216600Y0299608D02*
X0216000Y0299608D01*
X0216000Y0299009D02*
X0216600Y0299009D01*
X0216600Y0298411D02*
X0216000Y0298411D01*
X0216000Y0297812D02*
X0216600Y0297812D01*
X0216600Y0297214D02*
X0216000Y0297214D01*
X0214961Y0297214D02*
X0207639Y0297214D01*
X0206600Y0297214D02*
X0206000Y0297214D01*
X0206000Y0297812D02*
X0206600Y0297812D01*
X0206600Y0298411D02*
X0206000Y0298411D01*
X0206000Y0299009D02*
X0206600Y0299009D01*
X0206600Y0299608D02*
X0206000Y0299608D01*
X0206000Y0300206D02*
X0206600Y0300206D01*
X0206600Y0302002D02*
X0206000Y0302002D01*
X0206000Y0302600D02*
X0206600Y0302600D01*
X0206600Y0303199D02*
X0206000Y0303199D01*
X0206000Y0303797D02*
X0206600Y0303797D01*
X0206600Y0304396D02*
X0206000Y0304396D01*
X0206000Y0304994D02*
X0206600Y0304994D01*
X0206600Y0305593D02*
X0206000Y0305593D01*
X0205917Y0305593D02*
X0197172Y0305593D01*
X0198617Y0304994D02*
X0204079Y0304994D01*
X0203315Y0304396D02*
X0199285Y0304396D01*
X0199884Y0303797D02*
X0202799Y0303797D01*
X0202442Y0303199D02*
X0200168Y0303199D01*
X0200416Y0302600D02*
X0202201Y0302600D01*
X0206683Y0305593D02*
X0215917Y0305593D01*
X0214079Y0304994D02*
X0208521Y0304994D01*
X0209285Y0304396D02*
X0213315Y0304396D01*
X0212799Y0303797D02*
X0209801Y0303797D01*
X0210158Y0303199D02*
X0212442Y0303199D01*
X0212201Y0302600D02*
X0210399Y0302600D01*
X0210542Y0302002D02*
X0212058Y0302002D01*
X0212025Y0300805D02*
X0210575Y0300805D01*
X0210466Y0300206D02*
X0212134Y0300206D01*
X0212336Y0299608D02*
X0210264Y0299608D01*
X0209951Y0299009D02*
X0212649Y0299009D01*
X0213108Y0298411D02*
X0209492Y0298411D01*
X0208815Y0297812D02*
X0213785Y0297812D01*
X0217639Y0297214D02*
X0404929Y0297214D01*
X0403707Y0297812D02*
X0218815Y0297812D01*
X0219492Y0298411D02*
X0403108Y0298411D01*
X0402595Y0299009D02*
X0219951Y0299009D01*
X0220264Y0299608D02*
X0402347Y0299608D01*
X0402099Y0300206D02*
X0220466Y0300206D01*
X0220575Y0300805D02*
X0402000Y0300805D01*
X0407671Y0297214D02*
X0414929Y0297214D01*
X0415445Y0297000D02*
X0417155Y0297000D01*
X0418736Y0297655D01*
X0419945Y0298864D01*
X0420600Y0300445D01*
X0420600Y0302155D01*
X0419945Y0303736D01*
X0418736Y0304945D01*
X0417155Y0305600D01*
X0415445Y0305600D01*
X0413864Y0304945D01*
X0412655Y0303736D01*
X0412000Y0302155D01*
X0412000Y0300445D01*
X0412655Y0298864D01*
X0413864Y0297655D01*
X0415445Y0297000D01*
X0413707Y0297812D02*
X0408893Y0297812D01*
X0409492Y0298411D02*
X0413108Y0298411D01*
X0412595Y0299009D02*
X0410005Y0299009D01*
X0410253Y0299608D02*
X0412347Y0299608D01*
X0412099Y0300206D02*
X0410501Y0300206D01*
X0410600Y0300805D02*
X0412000Y0300805D01*
X0412000Y0301403D02*
X0410600Y0301403D01*
X0410600Y0302002D02*
X0412000Y0302002D01*
X0412184Y0302600D02*
X0410416Y0302600D01*
X0410168Y0303199D02*
X0412432Y0303199D01*
X0412716Y0303797D02*
X0409884Y0303797D01*
X0409285Y0304396D02*
X0413315Y0304396D01*
X0413983Y0304994D02*
X0408617Y0304994D01*
X0407172Y0305593D02*
X0415428Y0305593D01*
X0417172Y0305593D02*
X0425428Y0305593D01*
X0425445Y0305600D02*
X0423864Y0304945D01*
X0422655Y0303736D01*
X0422000Y0302155D01*
X0422000Y0300445D01*
X0422655Y0298864D01*
X0423864Y0297655D01*
X0425445Y0297000D01*
X0427155Y0297000D01*
X0428736Y0297655D01*
X0429945Y0298864D01*
X0430600Y0300445D01*
X0430600Y0302155D01*
X0429945Y0303736D01*
X0428736Y0304945D01*
X0427155Y0305600D01*
X0425445Y0305600D01*
X0423983Y0304994D02*
X0418617Y0304994D01*
X0419285Y0304396D02*
X0423315Y0304396D01*
X0422716Y0303797D02*
X0419884Y0303797D01*
X0420168Y0303199D02*
X0422432Y0303199D01*
X0422184Y0302600D02*
X0420416Y0302600D01*
X0420600Y0302002D02*
X0422000Y0302002D01*
X0422000Y0301403D02*
X0420600Y0301403D01*
X0420600Y0300805D02*
X0422000Y0300805D01*
X0422099Y0300206D02*
X0420501Y0300206D01*
X0420253Y0299608D02*
X0422347Y0299608D01*
X0422595Y0299009D02*
X0420005Y0299009D01*
X0419492Y0298411D02*
X0423108Y0298411D01*
X0423707Y0297812D02*
X0418893Y0297812D01*
X0417671Y0297214D02*
X0424929Y0297214D01*
X0427671Y0297214D02*
X0434929Y0297214D01*
X0435445Y0297000D02*
X0437155Y0297000D01*
X0438736Y0297655D01*
X0439945Y0298864D01*
X0440600Y0300445D01*
X0440600Y0302155D01*
X0439945Y0303736D01*
X0438736Y0304945D01*
X0437155Y0305600D01*
X0435445Y0305600D01*
X0433864Y0304945D01*
X0432655Y0303736D01*
X0432000Y0302155D01*
X0432000Y0300445D01*
X0432655Y0298864D01*
X0433864Y0297655D01*
X0435445Y0297000D01*
X0433707Y0297812D02*
X0428893Y0297812D01*
X0429492Y0298411D02*
X0433108Y0298411D01*
X0432595Y0299009D02*
X0430005Y0299009D01*
X0430253Y0299608D02*
X0432347Y0299608D01*
X0432099Y0300206D02*
X0430501Y0300206D01*
X0430600Y0300805D02*
X0432000Y0300805D01*
X0432000Y0301403D02*
X0430600Y0301403D01*
X0430600Y0302002D02*
X0432000Y0302002D01*
X0432184Y0302600D02*
X0430416Y0302600D01*
X0430168Y0303199D02*
X0432432Y0303199D01*
X0432716Y0303797D02*
X0429884Y0303797D01*
X0429285Y0304396D02*
X0433315Y0304396D01*
X0433983Y0304994D02*
X0428617Y0304994D01*
X0427172Y0305593D02*
X0435428Y0305593D01*
X0437172Y0305593D02*
X0445917Y0305593D01*
X0445962Y0305600D02*
X0445293Y0305494D01*
X0444649Y0305285D01*
X0444046Y0304978D01*
X0443499Y0304580D01*
X0443020Y0304101D01*
X0442622Y0303554D01*
X0442315Y0302951D01*
X0442106Y0302307D01*
X0442000Y0301638D01*
X0442000Y0301600D01*
X0446000Y0301600D01*
X0446000Y0305600D01*
X0445962Y0305600D01*
X0446000Y0305593D02*
X0446600Y0305593D01*
X0446600Y0305600D02*
X0446638Y0305600D01*
X0447307Y0305494D01*
X0447951Y0305285D01*
X0448554Y0304978D01*
X0449101Y0304580D01*
X0449580Y0304101D01*
X0449978Y0303554D01*
X0450285Y0302951D01*
X0450494Y0302307D01*
X0450600Y0301638D01*
X0450600Y0301600D01*
X0446600Y0301600D01*
X0446600Y0301000D01*
X0450600Y0301000D01*
X0450600Y0300962D01*
X0450494Y0300293D01*
X0450285Y0299649D01*
X0449978Y0299046D01*
X0449580Y0298499D01*
X0449101Y0298020D01*
X0448554Y0297622D01*
X0447951Y0297315D01*
X0447307Y0297106D01*
X0446638Y0297000D01*
X0446600Y0297000D01*
X0446600Y0301000D01*
X0446000Y0301000D01*
X0446000Y0297000D01*
X0445962Y0297000D01*
X0445293Y0297106D01*
X0444649Y0297315D01*
X0444046Y0297622D01*
X0443499Y0298020D01*
X0443020Y0298499D01*
X0442622Y0299046D01*
X0442315Y0299649D01*
X0442106Y0300293D01*
X0442000Y0300962D01*
X0442000Y0301000D01*
X0446000Y0301000D01*
X0446000Y0301600D01*
X0446600Y0301600D01*
X0446600Y0305600D01*
X0446683Y0305593D02*
X0455917Y0305593D01*
X0455962Y0305600D02*
X0455293Y0305494D01*
X0454649Y0305285D01*
X0454046Y0304978D01*
X0453499Y0304580D01*
X0453020Y0304101D01*
X0452622Y0303554D01*
X0452315Y0302951D01*
X0452106Y0302307D01*
X0452000Y0301638D01*
X0452000Y0301600D01*
X0456000Y0301600D01*
X0456000Y0305600D01*
X0455962Y0305600D01*
X0456000Y0305593D02*
X0456600Y0305593D01*
X0456600Y0305600D02*
X0456638Y0305600D01*
X0457307Y0305494D01*
X0457951Y0305285D01*
X0458554Y0304978D01*
X0459101Y0304580D01*
X0459580Y0304101D01*
X0459978Y0303554D01*
X0460285Y0302951D01*
X0460494Y0302307D01*
X0460600Y0301638D01*
X0460600Y0301600D01*
X0456600Y0301600D01*
X0456600Y0301000D01*
X0460600Y0301000D01*
X0460600Y0300962D01*
X0460494Y0300293D01*
X0460285Y0299649D01*
X0459978Y0299046D01*
X0459580Y0298499D01*
X0459101Y0298020D01*
X0458554Y0297622D01*
X0457951Y0297315D01*
X0457307Y0297106D01*
X0456638Y0297000D01*
X0456600Y0297000D01*
X0456600Y0301000D01*
X0456000Y0301000D01*
X0456000Y0297000D01*
X0455962Y0297000D01*
X0455293Y0297106D01*
X0454649Y0297315D01*
X0454046Y0297622D01*
X0453499Y0298020D01*
X0453020Y0298499D01*
X0452622Y0299046D01*
X0452315Y0299649D01*
X0452106Y0300293D01*
X0452000Y0300962D01*
X0452000Y0301000D01*
X0456000Y0301000D01*
X0456000Y0301600D01*
X0456600Y0301600D01*
X0456600Y0305600D01*
X0456683Y0305593D02*
X0620000Y0305593D01*
X0620000Y0306191D02*
X0022600Y0306191D01*
X0022600Y0306790D02*
X0620000Y0306790D01*
X0620000Y0307388D02*
X0022600Y0307388D01*
X0022600Y0307987D02*
X0620000Y0307987D01*
X0620000Y0308585D02*
X0022600Y0308585D01*
X0022600Y0309184D02*
X0620000Y0309184D01*
X0620000Y0309782D02*
X0022600Y0309782D01*
X0022600Y0310381D02*
X0620000Y0310381D01*
X0620000Y0310979D02*
X0022600Y0310979D01*
X0022600Y0311578D02*
X0620000Y0311578D01*
X0620000Y0312177D02*
X0022600Y0312177D01*
X0022600Y0312775D02*
X0620000Y0312775D01*
X0620000Y0313374D02*
X0022600Y0313374D01*
X0022600Y0313972D02*
X0620000Y0313972D01*
X0620000Y0314571D02*
X0022600Y0314571D01*
X0022600Y0315169D02*
X0620000Y0315169D01*
X0620000Y0315768D02*
X0022600Y0315768D01*
X0022600Y0316366D02*
X0620000Y0316366D01*
X0620000Y0316965D02*
X0022600Y0316965D01*
X0022600Y0317563D02*
X0620000Y0317563D01*
X0620000Y0318162D02*
X0022600Y0318162D01*
X0022600Y0318760D02*
X0620000Y0318760D01*
X0620000Y0319359D02*
X0022600Y0319359D01*
X0022600Y0319957D02*
X0620000Y0319957D01*
X0620000Y0304994D02*
X0458521Y0304994D01*
X0459285Y0304396D02*
X0620000Y0304396D01*
X0620000Y0303797D02*
X0459801Y0303797D01*
X0460158Y0303199D02*
X0620000Y0303199D01*
X0620000Y0302600D02*
X0460399Y0302600D01*
X0460542Y0302002D02*
X0620000Y0302002D01*
X0620000Y0301403D02*
X0456600Y0301403D01*
X0456600Y0300805D02*
X0456000Y0300805D01*
X0456000Y0301403D02*
X0446600Y0301403D01*
X0446600Y0300805D02*
X0446000Y0300805D01*
X0446000Y0301403D02*
X0440600Y0301403D01*
X0440600Y0300805D02*
X0442025Y0300805D01*
X0442134Y0300206D02*
X0440501Y0300206D01*
X0440253Y0299608D02*
X0442336Y0299608D01*
X0442649Y0299009D02*
X0440005Y0299009D01*
X0439492Y0298411D02*
X0443108Y0298411D01*
X0443785Y0297812D02*
X0438893Y0297812D01*
X0437671Y0297214D02*
X0444961Y0297214D01*
X0446000Y0297214D02*
X0446600Y0297214D01*
X0446600Y0297812D02*
X0446000Y0297812D01*
X0446000Y0298411D02*
X0446600Y0298411D01*
X0446600Y0299009D02*
X0446000Y0299009D01*
X0446000Y0299608D02*
X0446600Y0299608D01*
X0446600Y0300206D02*
X0446000Y0300206D01*
X0446000Y0302002D02*
X0446600Y0302002D01*
X0446600Y0302600D02*
X0446000Y0302600D01*
X0446000Y0303199D02*
X0446600Y0303199D01*
X0446600Y0303797D02*
X0446000Y0303797D01*
X0446000Y0304396D02*
X0446600Y0304396D01*
X0446600Y0304994D02*
X0446000Y0304994D01*
X0444079Y0304994D02*
X0438617Y0304994D01*
X0439285Y0304396D02*
X0443315Y0304396D01*
X0442799Y0303797D02*
X0439884Y0303797D01*
X0440168Y0303199D02*
X0442442Y0303199D01*
X0442201Y0302600D02*
X0440416Y0302600D01*
X0440600Y0302002D02*
X0442058Y0302002D01*
X0448521Y0304994D02*
X0454079Y0304994D01*
X0453315Y0304396D02*
X0449285Y0304396D01*
X0449801Y0303797D02*
X0452799Y0303797D01*
X0452442Y0303199D02*
X0450158Y0303199D01*
X0450399Y0302600D02*
X0452201Y0302600D01*
X0452058Y0302002D02*
X0450542Y0302002D01*
X0450575Y0300805D02*
X0452025Y0300805D01*
X0452134Y0300206D02*
X0450466Y0300206D01*
X0450264Y0299608D02*
X0452336Y0299608D01*
X0452649Y0299009D02*
X0449951Y0299009D01*
X0449492Y0298411D02*
X0453108Y0298411D01*
X0453785Y0297812D02*
X0448815Y0297812D01*
X0447639Y0297214D02*
X0454961Y0297214D01*
X0456000Y0297214D02*
X0456600Y0297214D01*
X0456600Y0297812D02*
X0456000Y0297812D01*
X0456000Y0298411D02*
X0456600Y0298411D01*
X0456600Y0299009D02*
X0456000Y0299009D01*
X0456000Y0299608D02*
X0456600Y0299608D01*
X0456600Y0300206D02*
X0456000Y0300206D01*
X0456000Y0302002D02*
X0456600Y0302002D01*
X0456600Y0302600D02*
X0456000Y0302600D01*
X0456000Y0303199D02*
X0456600Y0303199D01*
X0456600Y0303797D02*
X0456000Y0303797D01*
X0456000Y0304396D02*
X0456600Y0304396D01*
X0456600Y0304994D02*
X0456000Y0304994D01*
X0460575Y0300805D02*
X0620000Y0300805D01*
X0620000Y0300206D02*
X0460466Y0300206D01*
X0460264Y0299608D02*
X0620000Y0299608D01*
X0620000Y0299009D02*
X0459951Y0299009D01*
X0459492Y0298411D02*
X0620000Y0298411D01*
X0620000Y0297812D02*
X0458815Y0297812D01*
X0457639Y0297214D02*
X0620000Y0297214D01*
X0569151Y0264296D02*
X0522661Y0264296D01*
X0523650Y0263697D02*
X0568162Y0263697D01*
X0567564Y0263099D02*
X0524249Y0263099D01*
X0524547Y0262500D02*
X0567266Y0262500D01*
X0567018Y0261902D02*
X0524795Y0261902D01*
X0524880Y0261303D02*
X0566933Y0261303D01*
X0566933Y0260705D02*
X0524880Y0260705D01*
X0524810Y0260106D02*
X0567002Y0260106D01*
X0567250Y0259508D02*
X0524562Y0259508D01*
X0524286Y0258909D02*
X0567526Y0258909D01*
X0568125Y0258310D02*
X0523688Y0258310D01*
X0522752Y0257712D02*
X0569061Y0257712D01*
X0568992Y0244545D02*
X0522820Y0244545D01*
X0523716Y0243946D02*
X0568097Y0243946D01*
X0567576Y0243348D02*
X0524237Y0243348D01*
X0524574Y0242749D02*
X0567238Y0242749D01*
X0567032Y0242151D02*
X0524780Y0242151D01*
X0524880Y0240954D02*
X0566933Y0240954D01*
X0567051Y0240355D02*
X0524762Y0240355D01*
X0524535Y0239757D02*
X0567277Y0239757D01*
X0567639Y0239158D02*
X0524174Y0239158D01*
X0523622Y0238560D02*
X0568191Y0238560D01*
X0569220Y0237961D02*
X0522593Y0237961D01*
X0521600Y0237961D02*
X0521000Y0237961D01*
X0521000Y0238560D02*
X0521600Y0238560D01*
X0521600Y0239158D02*
X0521000Y0239158D01*
X0521000Y0239757D02*
X0521600Y0239757D01*
X0521600Y0240355D02*
X0521000Y0240355D01*
X0521000Y0242151D02*
X0521600Y0242151D01*
X0521600Y0242749D02*
X0521000Y0242749D01*
X0521000Y0243348D02*
X0521600Y0243348D01*
X0521600Y0243946D02*
X0521000Y0243946D01*
X0521000Y0244545D02*
X0521600Y0244545D01*
X0518426Y0239158D02*
X0338465Y0239158D01*
X0339095Y0238560D02*
X0518978Y0238560D01*
X0520007Y0237961D02*
X0339486Y0237961D01*
X0339734Y0237363D02*
X0620000Y0237363D01*
X0620000Y0237961D02*
X0571806Y0237961D01*
X0570813Y0237961D02*
X0570213Y0237961D01*
X0570213Y0238560D02*
X0570813Y0238560D01*
X0570813Y0239158D02*
X0570213Y0239158D01*
X0570213Y0239757D02*
X0570813Y0239757D01*
X0570813Y0240355D02*
X0570213Y0240355D01*
X0570213Y0242151D02*
X0570813Y0242151D01*
X0570813Y0242749D02*
X0570213Y0242749D01*
X0570213Y0243348D02*
X0570813Y0243348D01*
X0570813Y0243946D02*
X0570213Y0243946D01*
X0570213Y0244545D02*
X0570813Y0244545D01*
X0573974Y0240355D02*
X0620000Y0240355D01*
X0620000Y0239757D02*
X0573748Y0239757D01*
X0573386Y0239158D02*
X0620000Y0239158D01*
X0620000Y0238560D02*
X0572834Y0238560D01*
X0620000Y0204444D02*
X0166515Y0204444D01*
X0166225Y0204565D02*
X0164801Y0204565D01*
X0163485Y0204020D01*
X0162478Y0203013D01*
X0161933Y0201697D01*
X0161933Y0200273D01*
X0162478Y0198957D01*
X0163485Y0197950D01*
X0164801Y0197406D01*
X0166225Y0197406D01*
X0167540Y0197950D01*
X0168547Y0198957D01*
X0169092Y0200273D01*
X0169092Y0201697D01*
X0168547Y0203013D01*
X0167540Y0204020D01*
X0166225Y0204565D01*
X0167714Y0203846D02*
X0620000Y0203846D01*
X0620000Y0203247D02*
X0168312Y0203247D01*
X0168698Y0202649D02*
X0620000Y0202649D01*
X0620000Y0202050D02*
X0168946Y0202050D01*
X0169092Y0201452D02*
X0620000Y0201452D01*
X0620000Y0200853D02*
X0169092Y0200853D01*
X0169085Y0200255D02*
X0620000Y0200255D01*
X0620000Y0199656D02*
X0168837Y0199656D01*
X0168589Y0199058D02*
X0620000Y0199058D01*
X0620000Y0198459D02*
X0168049Y0198459D01*
X0167324Y0197861D02*
X0620000Y0197861D01*
X0620000Y0191277D02*
X0471648Y0191277D01*
X0472273Y0190679D02*
X0620000Y0190679D01*
X0620000Y0190080D02*
X0472659Y0190080D01*
X0472907Y0189482D02*
X0620000Y0189482D01*
X0620000Y0188883D02*
X0472950Y0188883D01*
X0472950Y0188285D02*
X0620000Y0188285D01*
X0620000Y0187686D02*
X0472728Y0187686D01*
X0472439Y0187088D02*
X0620000Y0187088D01*
X0620000Y0186489D02*
X0471840Y0186489D01*
X0468260Y0186489D02*
X0461136Y0186489D01*
X0462061Y0185891D02*
X0620000Y0185891D01*
X0620000Y0185292D02*
X0462571Y0185292D01*
X0462819Y0184694D02*
X0620000Y0184694D01*
X0620000Y0184095D02*
X0462950Y0184095D01*
X0462950Y0183497D02*
X0620000Y0183497D01*
X0620000Y0182898D02*
X0586217Y0182898D01*
X0586862Y0182631D02*
X0585373Y0183248D01*
X0583762Y0183248D01*
X0582274Y0182631D01*
X0581134Y0181492D01*
X0580518Y0180003D01*
X0580518Y0178392D01*
X0581134Y0176903D01*
X0582274Y0175764D01*
X0583762Y0175148D01*
X0585373Y0175148D01*
X0586862Y0175764D01*
X0588001Y0176903D01*
X0588618Y0178392D01*
X0588618Y0180003D01*
X0588001Y0181492D01*
X0586862Y0182631D01*
X0587193Y0182300D02*
X0620000Y0182300D01*
X0620000Y0181701D02*
X0587792Y0181701D01*
X0588162Y0181103D02*
X0620000Y0181103D01*
X0620000Y0180504D02*
X0588410Y0180504D01*
X0588618Y0179905D02*
X0620000Y0179905D01*
X0620000Y0179307D02*
X0588618Y0179307D01*
X0588618Y0178708D02*
X0620000Y0178708D01*
X0620000Y0178110D02*
X0588501Y0178110D01*
X0588253Y0177511D02*
X0620000Y0177511D01*
X0620000Y0176913D02*
X0588005Y0176913D01*
X0587412Y0176314D02*
X0620000Y0176314D01*
X0620000Y0175716D02*
X0586745Y0175716D01*
X0585373Y0173248D02*
X0583762Y0173248D01*
X0582274Y0172631D01*
X0581134Y0171492D01*
X0580518Y0170003D01*
X0580518Y0168392D01*
X0581134Y0166903D01*
X0582274Y0165764D01*
X0583762Y0165148D01*
X0585373Y0165148D01*
X0586862Y0165764D01*
X0588001Y0166903D01*
X0588618Y0168392D01*
X0588618Y0170003D01*
X0588001Y0171492D01*
X0586862Y0172631D01*
X0585373Y0173248D01*
X0586639Y0172723D02*
X0620000Y0172723D01*
X0620000Y0172125D02*
X0587368Y0172125D01*
X0587967Y0171526D02*
X0620000Y0171526D01*
X0620000Y0170928D02*
X0588235Y0170928D01*
X0588483Y0170329D02*
X0620000Y0170329D01*
X0620000Y0169731D02*
X0588618Y0169731D01*
X0588618Y0169132D02*
X0620000Y0169132D01*
X0620000Y0168534D02*
X0588618Y0168534D01*
X0588429Y0167935D02*
X0620000Y0167935D01*
X0620000Y0167337D02*
X0588181Y0167337D01*
X0587836Y0166738D02*
X0620000Y0166738D01*
X0620000Y0166140D02*
X0587237Y0166140D01*
X0586324Y0165541D02*
X0620000Y0165541D01*
X0582812Y0165541D02*
X0576324Y0165541D01*
X0576862Y0165764D02*
X0578001Y0166903D01*
X0578618Y0168392D01*
X0578618Y0170003D01*
X0578001Y0171492D01*
X0576862Y0172631D01*
X0575373Y0173248D01*
X0573762Y0173248D01*
X0572274Y0172631D01*
X0571134Y0171492D01*
X0570518Y0170003D01*
X0570518Y0168392D01*
X0571134Y0166903D01*
X0572274Y0165764D01*
X0573762Y0165148D01*
X0575373Y0165148D01*
X0576862Y0165764D01*
X0577237Y0166140D02*
X0581898Y0166140D01*
X0581300Y0166738D02*
X0577836Y0166738D01*
X0578181Y0167337D02*
X0580955Y0167337D01*
X0580707Y0167935D02*
X0578429Y0167935D01*
X0578618Y0168534D02*
X0580518Y0168534D01*
X0580518Y0169132D02*
X0578618Y0169132D01*
X0578618Y0169731D02*
X0580518Y0169731D01*
X0580653Y0170329D02*
X0578483Y0170329D01*
X0578235Y0170928D02*
X0580901Y0170928D01*
X0581169Y0171526D02*
X0577967Y0171526D01*
X0577368Y0172125D02*
X0581767Y0172125D01*
X0582496Y0172723D02*
X0576639Y0172723D01*
X0575373Y0175148D02*
X0576862Y0175764D01*
X0578001Y0176903D01*
X0578618Y0178392D01*
X0578618Y0180003D01*
X0578001Y0181492D01*
X0576862Y0182631D01*
X0575373Y0183248D01*
X0573762Y0183248D01*
X0572274Y0182631D01*
X0571134Y0181492D01*
X0570518Y0180003D01*
X0570518Y0178392D01*
X0571134Y0176903D01*
X0572274Y0175764D01*
X0573762Y0175148D01*
X0575373Y0175148D01*
X0576745Y0175716D02*
X0582390Y0175716D01*
X0581723Y0176314D02*
X0577412Y0176314D01*
X0578005Y0176913D02*
X0581130Y0176913D01*
X0580882Y0177511D02*
X0578253Y0177511D01*
X0578501Y0178110D02*
X0580635Y0178110D01*
X0580518Y0178708D02*
X0578618Y0178708D01*
X0578618Y0179307D02*
X0580518Y0179307D01*
X0580518Y0179905D02*
X0578618Y0179905D01*
X0578410Y0180504D02*
X0580725Y0180504D01*
X0580973Y0181103D02*
X0578162Y0181103D01*
X0577792Y0181701D02*
X0581344Y0181701D01*
X0581942Y0182300D02*
X0577193Y0182300D01*
X0576217Y0182898D02*
X0582918Y0182898D01*
X0572918Y0182898D02*
X0566217Y0182898D01*
X0566862Y0182631D02*
X0565373Y0183248D01*
X0563762Y0183248D01*
X0562274Y0182631D01*
X0561134Y0181492D01*
X0560518Y0180003D01*
X0560518Y0178392D01*
X0561134Y0176903D01*
X0562274Y0175764D01*
X0563762Y0175148D01*
X0565373Y0175148D01*
X0566862Y0175764D01*
X0568001Y0176903D01*
X0568618Y0178392D01*
X0568618Y0180003D01*
X0568001Y0181492D01*
X0566862Y0182631D01*
X0567193Y0182300D02*
X0571942Y0182300D01*
X0571344Y0181701D02*
X0567792Y0181701D01*
X0568162Y0181103D02*
X0570973Y0181103D01*
X0570725Y0180504D02*
X0568410Y0180504D01*
X0568618Y0179905D02*
X0570518Y0179905D01*
X0570518Y0179307D02*
X0568618Y0179307D01*
X0568618Y0178708D02*
X0570518Y0178708D01*
X0570635Y0178110D02*
X0568501Y0178110D01*
X0568253Y0177511D02*
X0570882Y0177511D01*
X0571130Y0176913D02*
X0568005Y0176913D01*
X0567412Y0176314D02*
X0571723Y0176314D01*
X0572390Y0175716D02*
X0566745Y0175716D01*
X0565373Y0173248D02*
X0566862Y0172631D01*
X0568001Y0171492D01*
X0568618Y0170003D01*
X0568618Y0168392D01*
X0568001Y0166903D01*
X0566862Y0165764D01*
X0565373Y0165148D01*
X0563762Y0165148D01*
X0562274Y0165764D01*
X0561134Y0166903D01*
X0560518Y0168392D01*
X0560518Y0170003D01*
X0561134Y0171492D01*
X0562274Y0172631D01*
X0563762Y0173248D01*
X0565373Y0173248D01*
X0566639Y0172723D02*
X0572496Y0172723D01*
X0571767Y0172125D02*
X0567368Y0172125D01*
X0567967Y0171526D02*
X0571169Y0171526D01*
X0570901Y0170928D02*
X0568235Y0170928D01*
X0568483Y0170329D02*
X0570653Y0170329D01*
X0570518Y0169731D02*
X0568618Y0169731D01*
X0568618Y0169132D02*
X0570518Y0169132D01*
X0570518Y0168534D02*
X0568618Y0168534D01*
X0568429Y0167935D02*
X0570707Y0167935D01*
X0570955Y0167337D02*
X0568181Y0167337D01*
X0567836Y0166738D02*
X0571300Y0166738D01*
X0571898Y0166140D02*
X0567237Y0166140D01*
X0566324Y0165541D02*
X0572812Y0165541D01*
X0562812Y0165541D02*
X0556324Y0165541D01*
X0556862Y0165764D02*
X0558001Y0166903D01*
X0558618Y0168392D01*
X0558618Y0170003D01*
X0558001Y0171492D01*
X0556862Y0172631D01*
X0555373Y0173248D01*
X0553762Y0173248D01*
X0552274Y0172631D01*
X0551134Y0171492D01*
X0550518Y0170003D01*
X0550518Y0168392D01*
X0551134Y0166903D01*
X0552274Y0165764D01*
X0553762Y0165148D01*
X0555373Y0165148D01*
X0556862Y0165764D01*
X0557237Y0166140D02*
X0561898Y0166140D01*
X0561300Y0166738D02*
X0557836Y0166738D01*
X0558181Y0167337D02*
X0560955Y0167337D01*
X0560707Y0167935D02*
X0558429Y0167935D01*
X0558618Y0168534D02*
X0560518Y0168534D01*
X0560518Y0169132D02*
X0558618Y0169132D01*
X0558618Y0169731D02*
X0560518Y0169731D01*
X0560653Y0170329D02*
X0558483Y0170329D01*
X0558235Y0170928D02*
X0560901Y0170928D01*
X0561169Y0171526D02*
X0557967Y0171526D01*
X0557368Y0172125D02*
X0561767Y0172125D01*
X0562496Y0172723D02*
X0556639Y0172723D01*
X0555373Y0175148D02*
X0556862Y0175764D01*
X0558001Y0176903D01*
X0558618Y0178392D01*
X0558618Y0180003D01*
X0558001Y0181492D01*
X0556862Y0182631D01*
X0555373Y0183248D01*
X0553762Y0183248D01*
X0552274Y0182631D01*
X0551134Y0181492D01*
X0550518Y0180003D01*
X0550518Y0178392D01*
X0551134Y0176903D01*
X0552274Y0175764D01*
X0553762Y0175148D01*
X0555373Y0175148D01*
X0556745Y0175716D02*
X0562390Y0175716D01*
X0561723Y0176314D02*
X0557412Y0176314D01*
X0558005Y0176913D02*
X0561130Y0176913D01*
X0560882Y0177511D02*
X0558253Y0177511D01*
X0558501Y0178110D02*
X0560635Y0178110D01*
X0560518Y0178708D02*
X0558618Y0178708D01*
X0558618Y0179307D02*
X0560518Y0179307D01*
X0560518Y0179905D02*
X0558618Y0179905D01*
X0558410Y0180504D02*
X0560725Y0180504D01*
X0560973Y0181103D02*
X0558162Y0181103D01*
X0557792Y0181701D02*
X0561344Y0181701D01*
X0561942Y0182300D02*
X0557193Y0182300D01*
X0556217Y0182898D02*
X0562918Y0182898D01*
X0552918Y0182898D02*
X0546217Y0182898D01*
X0546862Y0182631D02*
X0545373Y0183248D01*
X0543762Y0183248D01*
X0542274Y0182631D01*
X0541134Y0181492D01*
X0540518Y0180003D01*
X0540518Y0178392D01*
X0541134Y0176903D01*
X0542274Y0175764D01*
X0543762Y0175148D01*
X0545373Y0175148D01*
X0546862Y0175764D01*
X0548001Y0176903D01*
X0548618Y0178392D01*
X0548618Y0180003D01*
X0548001Y0181492D01*
X0546862Y0182631D01*
X0547193Y0182300D02*
X0551942Y0182300D01*
X0551344Y0181701D02*
X0547792Y0181701D01*
X0548162Y0181103D02*
X0550973Y0181103D01*
X0550725Y0180504D02*
X0548410Y0180504D01*
X0548618Y0179905D02*
X0550518Y0179905D01*
X0550518Y0179307D02*
X0548618Y0179307D01*
X0548618Y0178708D02*
X0550518Y0178708D01*
X0550635Y0178110D02*
X0548501Y0178110D01*
X0548253Y0177511D02*
X0550882Y0177511D01*
X0551130Y0176913D02*
X0548005Y0176913D01*
X0547412Y0176314D02*
X0551723Y0176314D01*
X0552390Y0175716D02*
X0546745Y0175716D01*
X0545373Y0173248D02*
X0546862Y0172631D01*
X0548001Y0171492D01*
X0548618Y0170003D01*
X0548618Y0168392D01*
X0548001Y0166903D01*
X0546862Y0165764D01*
X0545373Y0165148D01*
X0543762Y0165148D01*
X0542274Y0165764D01*
X0541134Y0166903D01*
X0540518Y0168392D01*
X0540518Y0170003D01*
X0541134Y0171492D01*
X0542274Y0172631D01*
X0543762Y0173248D01*
X0545373Y0173248D01*
X0546639Y0172723D02*
X0552496Y0172723D01*
X0551767Y0172125D02*
X0547368Y0172125D01*
X0547967Y0171526D02*
X0551169Y0171526D01*
X0550901Y0170928D02*
X0548235Y0170928D01*
X0548483Y0170329D02*
X0550653Y0170329D01*
X0550518Y0169731D02*
X0548618Y0169731D01*
X0548618Y0169132D02*
X0550518Y0169132D01*
X0550518Y0168534D02*
X0548618Y0168534D01*
X0548429Y0167935D02*
X0550707Y0167935D01*
X0550955Y0167337D02*
X0548181Y0167337D01*
X0547836Y0166738D02*
X0551300Y0166738D01*
X0551898Y0166140D02*
X0547237Y0166140D01*
X0546324Y0165541D02*
X0552812Y0165541D01*
X0542812Y0165541D02*
X0536324Y0165541D01*
X0536862Y0165764D02*
X0538001Y0166903D01*
X0538618Y0168392D01*
X0538618Y0170003D01*
X0538001Y0171492D01*
X0536862Y0172631D01*
X0535373Y0173248D01*
X0533762Y0173248D01*
X0532274Y0172631D01*
X0531134Y0171492D01*
X0530518Y0170003D01*
X0530518Y0168392D01*
X0531134Y0166903D01*
X0532274Y0165764D01*
X0533762Y0165148D01*
X0535373Y0165148D01*
X0536862Y0165764D01*
X0537237Y0166140D02*
X0541898Y0166140D01*
X0541300Y0166738D02*
X0537836Y0166738D01*
X0538181Y0167337D02*
X0540955Y0167337D01*
X0540707Y0167935D02*
X0538429Y0167935D01*
X0538618Y0168534D02*
X0540518Y0168534D01*
X0540518Y0169132D02*
X0538618Y0169132D01*
X0538618Y0169731D02*
X0540518Y0169731D01*
X0540653Y0170329D02*
X0538483Y0170329D01*
X0538235Y0170928D02*
X0540901Y0170928D01*
X0541169Y0171526D02*
X0537967Y0171526D01*
X0537368Y0172125D02*
X0541767Y0172125D01*
X0542496Y0172723D02*
X0536639Y0172723D01*
X0535373Y0175148D02*
X0536862Y0175764D01*
X0538001Y0176903D01*
X0538618Y0178392D01*
X0538618Y0180003D01*
X0538001Y0181492D01*
X0536862Y0182631D01*
X0535373Y0183248D01*
X0533762Y0183248D01*
X0532274Y0182631D01*
X0531134Y0181492D01*
X0530518Y0180003D01*
X0530518Y0178392D01*
X0531134Y0176903D01*
X0532274Y0175764D01*
X0533762Y0175148D01*
X0535373Y0175148D01*
X0536745Y0175716D02*
X0542390Y0175716D01*
X0541723Y0176314D02*
X0537412Y0176314D01*
X0538005Y0176913D02*
X0541130Y0176913D01*
X0540882Y0177511D02*
X0538253Y0177511D01*
X0538501Y0178110D02*
X0540635Y0178110D01*
X0540518Y0178708D02*
X0538618Y0178708D01*
X0538618Y0179307D02*
X0540518Y0179307D01*
X0540518Y0179905D02*
X0538618Y0179905D01*
X0538410Y0180504D02*
X0540725Y0180504D01*
X0540973Y0181103D02*
X0538162Y0181103D01*
X0537792Y0181701D02*
X0541344Y0181701D01*
X0541942Y0182300D02*
X0537193Y0182300D01*
X0536217Y0182898D02*
X0542918Y0182898D01*
X0532918Y0182898D02*
X0526217Y0182898D01*
X0526862Y0182631D02*
X0525373Y0183248D01*
X0523762Y0183248D01*
X0522274Y0182631D01*
X0521134Y0181492D01*
X0520518Y0180003D01*
X0520518Y0178392D01*
X0521134Y0176903D01*
X0522274Y0175764D01*
X0523762Y0175148D01*
X0525373Y0175148D01*
X0526862Y0175764D01*
X0528001Y0176903D01*
X0528618Y0178392D01*
X0528618Y0180003D01*
X0528001Y0181492D01*
X0526862Y0182631D01*
X0527193Y0182300D02*
X0531942Y0182300D01*
X0531344Y0181701D02*
X0527792Y0181701D01*
X0528162Y0181103D02*
X0530973Y0181103D01*
X0530725Y0180504D02*
X0528410Y0180504D01*
X0528618Y0179905D02*
X0530518Y0179905D01*
X0530518Y0179307D02*
X0528618Y0179307D01*
X0528618Y0178708D02*
X0530518Y0178708D01*
X0530635Y0178110D02*
X0528501Y0178110D01*
X0528253Y0177511D02*
X0530882Y0177511D01*
X0531130Y0176913D02*
X0528005Y0176913D01*
X0527412Y0176314D02*
X0531723Y0176314D01*
X0532390Y0175716D02*
X0526745Y0175716D01*
X0525373Y0173248D02*
X0523762Y0173248D01*
X0522274Y0172631D01*
X0521134Y0171492D01*
X0520518Y0170003D01*
X0520518Y0168392D01*
X0521134Y0166903D01*
X0522274Y0165764D01*
X0523762Y0165148D01*
X0525373Y0165148D01*
X0526862Y0165764D01*
X0528001Y0166903D01*
X0528618Y0168392D01*
X0528618Y0170003D01*
X0528001Y0171492D01*
X0526862Y0172631D01*
X0525373Y0173248D01*
X0526639Y0172723D02*
X0532496Y0172723D01*
X0531767Y0172125D02*
X0527368Y0172125D01*
X0527967Y0171526D02*
X0531169Y0171526D01*
X0530901Y0170928D02*
X0528235Y0170928D01*
X0528483Y0170329D02*
X0530653Y0170329D01*
X0530518Y0169731D02*
X0528618Y0169731D01*
X0528618Y0169132D02*
X0530518Y0169132D01*
X0530518Y0168534D02*
X0528618Y0168534D01*
X0528429Y0167935D02*
X0530707Y0167935D01*
X0530955Y0167337D02*
X0528181Y0167337D01*
X0527836Y0166738D02*
X0531300Y0166738D01*
X0531898Y0166140D02*
X0527237Y0166140D01*
X0526324Y0165541D02*
X0532812Y0165541D01*
X0522812Y0165541D02*
X0516324Y0165541D01*
X0516486Y0165609D02*
X0517149Y0166052D01*
X0517714Y0166616D01*
X0518157Y0167279D01*
X0518462Y0168016D01*
X0518618Y0168799D01*
X0518618Y0168898D01*
X0514868Y0168898D01*
X0514868Y0169498D01*
X0514268Y0169498D01*
X0514268Y0173248D01*
X0514169Y0173248D01*
X0513386Y0173092D01*
X0512649Y0172787D01*
X0511986Y0172343D01*
X0511422Y0171779D01*
X0510979Y0171116D01*
X0510673Y0170379D01*
X0510518Y0169597D01*
X0510518Y0169498D01*
X0514268Y0169498D01*
X0514268Y0168898D01*
X0510518Y0168898D01*
X0510518Y0168799D01*
X0510673Y0168016D01*
X0510979Y0167279D01*
X0511422Y0166616D01*
X0511986Y0166052D01*
X0512649Y0165609D01*
X0513386Y0165303D01*
X0514169Y0165148D01*
X0514268Y0165148D01*
X0514268Y0168898D01*
X0514868Y0168898D01*
X0514868Y0165148D01*
X0514967Y0165148D01*
X0515749Y0165303D01*
X0516486Y0165609D01*
X0517237Y0166140D02*
X0521898Y0166140D01*
X0521300Y0166738D02*
X0517795Y0166738D01*
X0518181Y0167337D02*
X0520955Y0167337D01*
X0520707Y0167935D02*
X0518429Y0167935D01*
X0518565Y0168534D02*
X0520518Y0168534D01*
X0520518Y0169132D02*
X0514868Y0169132D01*
X0514868Y0169498D02*
X0518618Y0169498D01*
X0518618Y0169597D01*
X0518462Y0170379D01*
X0518157Y0171116D01*
X0517714Y0171779D01*
X0517149Y0172343D01*
X0516486Y0172787D01*
X0515749Y0173092D01*
X0514967Y0173248D01*
X0514868Y0173248D01*
X0514868Y0169498D01*
X0514868Y0169731D02*
X0514268Y0169731D01*
X0514268Y0170329D02*
X0514868Y0170329D01*
X0514868Y0170928D02*
X0514268Y0170928D01*
X0514268Y0171526D02*
X0514868Y0171526D01*
X0514868Y0172125D02*
X0514268Y0172125D01*
X0514268Y0172723D02*
X0514868Y0172723D01*
X0516581Y0172723D02*
X0522496Y0172723D01*
X0521767Y0172125D02*
X0517368Y0172125D01*
X0517883Y0171526D02*
X0521169Y0171526D01*
X0520901Y0170928D02*
X0518235Y0170928D01*
X0518472Y0170329D02*
X0520653Y0170329D01*
X0520518Y0169731D02*
X0518591Y0169731D01*
X0514868Y0168534D02*
X0514268Y0168534D01*
X0514268Y0169132D02*
X0508618Y0169132D01*
X0508618Y0168534D02*
X0510570Y0168534D01*
X0510707Y0167935D02*
X0508429Y0167935D01*
X0508618Y0168392D02*
X0508001Y0166903D01*
X0506862Y0165764D01*
X0505373Y0165148D01*
X0503762Y0165148D01*
X0502274Y0165764D01*
X0501134Y0166903D01*
X0500518Y0168392D01*
X0500518Y0170003D01*
X0501134Y0171492D01*
X0502274Y0172631D01*
X0503762Y0173248D01*
X0505373Y0173248D01*
X0506862Y0172631D01*
X0508001Y0171492D01*
X0508618Y0170003D01*
X0508618Y0168392D01*
X0508181Y0167337D02*
X0510955Y0167337D01*
X0511340Y0166738D02*
X0507836Y0166738D01*
X0507237Y0166140D02*
X0511898Y0166140D01*
X0512812Y0165541D02*
X0506324Y0165541D01*
X0502812Y0165541D02*
X0496324Y0165541D01*
X0496862Y0165764D02*
X0498001Y0166903D01*
X0498618Y0168392D01*
X0498618Y0170003D01*
X0498001Y0171492D01*
X0496862Y0172631D01*
X0495373Y0173248D01*
X0493762Y0173248D01*
X0492274Y0172631D01*
X0491134Y0171492D01*
X0490518Y0170003D01*
X0490518Y0168392D01*
X0491134Y0166903D01*
X0492274Y0165764D01*
X0493762Y0165148D01*
X0495373Y0165148D01*
X0496862Y0165764D01*
X0497237Y0166140D02*
X0501898Y0166140D01*
X0501300Y0166738D02*
X0497836Y0166738D01*
X0498181Y0167337D02*
X0500955Y0167337D01*
X0500707Y0167935D02*
X0498429Y0167935D01*
X0498618Y0168534D02*
X0500518Y0168534D01*
X0500518Y0169132D02*
X0498618Y0169132D01*
X0498618Y0169731D02*
X0500518Y0169731D01*
X0500653Y0170329D02*
X0498483Y0170329D01*
X0498235Y0170928D02*
X0500901Y0170928D01*
X0501169Y0171526D02*
X0497967Y0171526D01*
X0497368Y0172125D02*
X0501767Y0172125D01*
X0502496Y0172723D02*
X0496639Y0172723D01*
X0495373Y0175148D02*
X0493762Y0175148D01*
X0492274Y0175764D01*
X0491134Y0176903D01*
X0490518Y0178392D01*
X0490518Y0180003D01*
X0491134Y0181492D01*
X0492274Y0182631D01*
X0493762Y0183248D01*
X0495373Y0183248D01*
X0496862Y0182631D01*
X0498001Y0181492D01*
X0498618Y0180003D01*
X0498618Y0178392D01*
X0498001Y0176903D01*
X0496862Y0175764D01*
X0495373Y0175148D01*
X0496745Y0175716D02*
X0502390Y0175716D01*
X0502274Y0175764D02*
X0503762Y0175148D01*
X0505373Y0175148D01*
X0506862Y0175764D01*
X0508001Y0176903D01*
X0508618Y0178392D01*
X0508618Y0180003D01*
X0508001Y0181492D01*
X0506862Y0182631D01*
X0505373Y0183248D01*
X0503762Y0183248D01*
X0502274Y0182631D01*
X0501134Y0181492D01*
X0500518Y0180003D01*
X0500518Y0178392D01*
X0501134Y0176903D01*
X0502274Y0175764D01*
X0501723Y0176314D02*
X0497412Y0176314D01*
X0498005Y0176913D02*
X0501130Y0176913D01*
X0500882Y0177511D02*
X0498253Y0177511D01*
X0498501Y0178110D02*
X0500635Y0178110D01*
X0500518Y0178708D02*
X0498618Y0178708D01*
X0498618Y0179307D02*
X0500518Y0179307D01*
X0500518Y0179905D02*
X0498618Y0179905D01*
X0498410Y0180504D02*
X0500725Y0180504D01*
X0500973Y0181103D02*
X0498162Y0181103D01*
X0497792Y0181701D02*
X0501344Y0181701D01*
X0501942Y0182300D02*
X0497193Y0182300D01*
X0496217Y0182898D02*
X0502918Y0182898D01*
X0506217Y0182898D02*
X0512918Y0182898D01*
X0512274Y0182631D02*
X0511134Y0181492D01*
X0510518Y0180003D01*
X0510518Y0178392D01*
X0511134Y0176903D01*
X0512274Y0175764D01*
X0513762Y0175148D01*
X0515373Y0175148D01*
X0516862Y0175764D01*
X0518001Y0176903D01*
X0518618Y0178392D01*
X0518618Y0180003D01*
X0518001Y0181492D01*
X0516862Y0182631D01*
X0515373Y0183248D01*
X0513762Y0183248D01*
X0512274Y0182631D01*
X0511942Y0182300D02*
X0507193Y0182300D01*
X0507792Y0181701D02*
X0511344Y0181701D01*
X0510973Y0181103D02*
X0508162Y0181103D01*
X0508410Y0180504D02*
X0510725Y0180504D01*
X0510518Y0179905D02*
X0508618Y0179905D01*
X0508618Y0179307D02*
X0510518Y0179307D01*
X0510518Y0178708D02*
X0508618Y0178708D01*
X0508501Y0178110D02*
X0510635Y0178110D01*
X0510882Y0177511D02*
X0508253Y0177511D01*
X0508005Y0176913D02*
X0511130Y0176913D01*
X0511723Y0176314D02*
X0507412Y0176314D01*
X0506745Y0175716D02*
X0512390Y0175716D01*
X0512555Y0172723D02*
X0506639Y0172723D01*
X0507368Y0172125D02*
X0511767Y0172125D01*
X0511253Y0171526D02*
X0507967Y0171526D01*
X0508235Y0170928D02*
X0510901Y0170928D01*
X0510663Y0170329D02*
X0508483Y0170329D01*
X0508618Y0169731D02*
X0510544Y0169731D01*
X0514268Y0167935D02*
X0514868Y0167935D01*
X0514868Y0167337D02*
X0514268Y0167337D01*
X0514268Y0166738D02*
X0514868Y0166738D01*
X0514868Y0166140D02*
X0514268Y0166140D01*
X0514268Y0165541D02*
X0514868Y0165541D01*
X0516745Y0175716D02*
X0522390Y0175716D01*
X0521723Y0176314D02*
X0517412Y0176314D01*
X0518005Y0176913D02*
X0521130Y0176913D01*
X0520882Y0177511D02*
X0518253Y0177511D01*
X0518501Y0178110D02*
X0520635Y0178110D01*
X0520518Y0178708D02*
X0518618Y0178708D01*
X0518618Y0179307D02*
X0520518Y0179307D01*
X0520518Y0179905D02*
X0518618Y0179905D01*
X0518410Y0180504D02*
X0520725Y0180504D01*
X0520973Y0181103D02*
X0518162Y0181103D01*
X0517792Y0181701D02*
X0521344Y0181701D01*
X0521942Y0182300D02*
X0517193Y0182300D01*
X0516217Y0182898D02*
X0522918Y0182898D01*
X0492918Y0182898D02*
X0486217Y0182898D01*
X0486862Y0182631D02*
X0485373Y0183248D01*
X0483762Y0183248D01*
X0482274Y0182631D01*
X0481134Y0181492D01*
X0480518Y0180003D01*
X0480518Y0178392D01*
X0481134Y0176903D01*
X0482274Y0175764D01*
X0483762Y0175148D01*
X0485373Y0175148D01*
X0486862Y0175764D01*
X0488001Y0176903D01*
X0488618Y0178392D01*
X0488618Y0180003D01*
X0488001Y0181492D01*
X0486862Y0182631D01*
X0487193Y0182300D02*
X0491942Y0182300D01*
X0491344Y0181701D02*
X0487792Y0181701D01*
X0488162Y0181103D02*
X0490973Y0181103D01*
X0490725Y0180504D02*
X0488410Y0180504D01*
X0488618Y0179905D02*
X0490518Y0179905D01*
X0490518Y0179307D02*
X0488618Y0179307D01*
X0488618Y0178708D02*
X0490518Y0178708D01*
X0490635Y0178110D02*
X0488501Y0178110D01*
X0488253Y0177511D02*
X0490882Y0177511D01*
X0491130Y0176913D02*
X0488005Y0176913D01*
X0487412Y0176314D02*
X0491723Y0176314D01*
X0492390Y0175716D02*
X0486745Y0175716D01*
X0485749Y0173092D02*
X0484967Y0173248D01*
X0484868Y0173248D01*
X0484868Y0169498D01*
X0484268Y0169498D01*
X0484268Y0173248D01*
X0484169Y0173248D01*
X0483386Y0173092D01*
X0482649Y0172787D01*
X0481986Y0172343D01*
X0481422Y0171779D01*
X0480979Y0171116D01*
X0480673Y0170379D01*
X0480518Y0169597D01*
X0480518Y0169498D01*
X0484268Y0169498D01*
X0484268Y0168898D01*
X0480518Y0168898D01*
X0480518Y0168799D01*
X0480673Y0168016D01*
X0480979Y0167279D01*
X0481422Y0166616D01*
X0481986Y0166052D01*
X0482649Y0165609D01*
X0483386Y0165303D01*
X0484169Y0165148D01*
X0484268Y0165148D01*
X0484268Y0168898D01*
X0484868Y0168898D01*
X0484868Y0169498D01*
X0488618Y0169498D01*
X0488618Y0169597D01*
X0488462Y0170379D01*
X0488157Y0171116D01*
X0487714Y0171779D01*
X0487149Y0172343D01*
X0486486Y0172787D01*
X0485749Y0173092D01*
X0486581Y0172723D02*
X0492496Y0172723D01*
X0491767Y0172125D02*
X0487368Y0172125D01*
X0487883Y0171526D02*
X0491169Y0171526D01*
X0490901Y0170928D02*
X0488235Y0170928D01*
X0488472Y0170329D02*
X0490653Y0170329D01*
X0490518Y0169731D02*
X0488591Y0169731D01*
X0488618Y0168898D02*
X0484868Y0168898D01*
X0484868Y0165148D01*
X0484967Y0165148D01*
X0485749Y0165303D01*
X0486486Y0165609D01*
X0487149Y0166052D01*
X0487714Y0166616D01*
X0488157Y0167279D01*
X0488462Y0168016D01*
X0488618Y0168799D01*
X0488618Y0168898D01*
X0488565Y0168534D02*
X0490518Y0168534D01*
X0490518Y0169132D02*
X0484868Y0169132D01*
X0484868Y0168534D02*
X0484268Y0168534D01*
X0484268Y0169132D02*
X0478618Y0169132D01*
X0478618Y0168534D02*
X0480570Y0168534D01*
X0480707Y0167935D02*
X0478429Y0167935D01*
X0478618Y0168392D02*
X0478001Y0166903D01*
X0476862Y0165764D01*
X0475373Y0165148D01*
X0473762Y0165148D01*
X0472274Y0165764D01*
X0471134Y0166903D01*
X0470518Y0168392D01*
X0470518Y0170003D01*
X0471134Y0171492D01*
X0472274Y0172631D01*
X0473762Y0173248D01*
X0475373Y0173248D01*
X0476862Y0172631D01*
X0478001Y0171492D01*
X0478618Y0170003D01*
X0478618Y0168392D01*
X0478181Y0167337D02*
X0480955Y0167337D01*
X0481340Y0166738D02*
X0477836Y0166738D01*
X0477237Y0166140D02*
X0481898Y0166140D01*
X0482812Y0165541D02*
X0476324Y0165541D01*
X0472812Y0165541D02*
X0466324Y0165541D01*
X0466862Y0165764D02*
X0468001Y0166903D01*
X0468618Y0168392D01*
X0468618Y0170003D01*
X0468001Y0171492D01*
X0466862Y0172631D01*
X0465373Y0173248D01*
X0463762Y0173248D01*
X0462274Y0172631D01*
X0461134Y0171492D01*
X0460518Y0170003D01*
X0460518Y0168392D01*
X0461134Y0166903D01*
X0462274Y0165764D01*
X0463762Y0165148D01*
X0465373Y0165148D01*
X0466862Y0165764D01*
X0467237Y0166140D02*
X0471898Y0166140D01*
X0471300Y0166738D02*
X0467836Y0166738D01*
X0468181Y0167337D02*
X0470955Y0167337D01*
X0470707Y0167935D02*
X0468429Y0167935D01*
X0468618Y0168534D02*
X0470518Y0168534D01*
X0470518Y0169132D02*
X0468618Y0169132D01*
X0468618Y0169731D02*
X0470518Y0169731D01*
X0470653Y0170329D02*
X0468483Y0170329D01*
X0468235Y0170928D02*
X0470901Y0170928D01*
X0471169Y0171526D02*
X0467967Y0171526D01*
X0467368Y0172125D02*
X0471767Y0172125D01*
X0472496Y0172723D02*
X0466639Y0172723D01*
X0466745Y0175716D02*
X0472390Y0175716D01*
X0472274Y0175764D02*
X0473762Y0175148D01*
X0475373Y0175148D01*
X0476862Y0175764D01*
X0478001Y0176903D01*
X0478618Y0178392D01*
X0478618Y0180003D01*
X0478001Y0181492D01*
X0476862Y0182631D01*
X0475373Y0183248D01*
X0473762Y0183248D01*
X0472274Y0182631D01*
X0471134Y0181492D01*
X0470518Y0180003D01*
X0470518Y0178392D01*
X0471134Y0176903D01*
X0472274Y0175764D01*
X0471723Y0176314D02*
X0467412Y0176314D01*
X0468005Y0176913D02*
X0471130Y0176913D01*
X0470882Y0177511D02*
X0468253Y0177511D01*
X0468501Y0178110D02*
X0470635Y0178110D01*
X0470518Y0178708D02*
X0468618Y0178708D01*
X0468618Y0179307D02*
X0470518Y0179307D01*
X0470518Y0179905D02*
X0468618Y0179905D01*
X0468410Y0180504D02*
X0470725Y0180504D01*
X0470973Y0181103D02*
X0468162Y0181103D01*
X0467792Y0181701D02*
X0471344Y0181701D01*
X0471942Y0182300D02*
X0467193Y0182300D01*
X0466217Y0182898D02*
X0472918Y0182898D01*
X0476217Y0182898D02*
X0482918Y0182898D01*
X0481942Y0182300D02*
X0477193Y0182300D01*
X0477792Y0181701D02*
X0481344Y0181701D01*
X0480973Y0181103D02*
X0478162Y0181103D01*
X0478410Y0180504D02*
X0480725Y0180504D01*
X0480518Y0179905D02*
X0478618Y0179905D01*
X0478618Y0179307D02*
X0480518Y0179307D01*
X0480518Y0178708D02*
X0478618Y0178708D01*
X0478501Y0178110D02*
X0480635Y0178110D01*
X0480882Y0177511D02*
X0478253Y0177511D01*
X0478005Y0176913D02*
X0481130Y0176913D01*
X0481723Y0176314D02*
X0477412Y0176314D01*
X0476745Y0175716D02*
X0482390Y0175716D01*
X0482555Y0172723D02*
X0476639Y0172723D01*
X0477368Y0172125D02*
X0481767Y0172125D01*
X0481253Y0171526D02*
X0477967Y0171526D01*
X0478235Y0170928D02*
X0480901Y0170928D01*
X0480663Y0170329D02*
X0478483Y0170329D01*
X0478618Y0169731D02*
X0480544Y0169731D01*
X0484268Y0169731D02*
X0484868Y0169731D01*
X0484868Y0170329D02*
X0484268Y0170329D01*
X0484268Y0170928D02*
X0484868Y0170928D01*
X0484868Y0171526D02*
X0484268Y0171526D01*
X0484268Y0172125D02*
X0484868Y0172125D01*
X0484868Y0172723D02*
X0484268Y0172723D01*
X0484268Y0167935D02*
X0484868Y0167935D01*
X0484868Y0167337D02*
X0484268Y0167337D01*
X0484268Y0166738D02*
X0484868Y0166738D01*
X0484868Y0166140D02*
X0484268Y0166140D01*
X0484268Y0165541D02*
X0484868Y0165541D01*
X0486324Y0165541D02*
X0492812Y0165541D01*
X0491898Y0166140D02*
X0487237Y0166140D01*
X0487795Y0166738D02*
X0491300Y0166738D01*
X0490955Y0167337D02*
X0488181Y0167337D01*
X0488429Y0167935D02*
X0490707Y0167935D01*
X0462812Y0165541D02*
X0456324Y0165541D01*
X0456862Y0165764D02*
X0458001Y0166903D01*
X0458618Y0168392D01*
X0458618Y0170003D01*
X0458001Y0171492D01*
X0456862Y0172631D01*
X0455373Y0173248D01*
X0453762Y0173248D01*
X0452274Y0172631D01*
X0451134Y0171492D01*
X0450518Y0170003D01*
X0450518Y0168392D01*
X0451134Y0166903D01*
X0452274Y0165764D01*
X0453762Y0165148D01*
X0455373Y0165148D01*
X0456862Y0165764D01*
X0457237Y0166140D02*
X0461898Y0166140D01*
X0461300Y0166738D02*
X0457836Y0166738D01*
X0458181Y0167337D02*
X0460955Y0167337D01*
X0460707Y0167935D02*
X0458429Y0167935D01*
X0458618Y0168534D02*
X0460518Y0168534D01*
X0460518Y0169132D02*
X0458618Y0169132D01*
X0458618Y0169731D02*
X0460518Y0169731D01*
X0460653Y0170329D02*
X0458483Y0170329D01*
X0458235Y0170928D02*
X0460901Y0170928D01*
X0461169Y0171526D02*
X0457967Y0171526D01*
X0457368Y0172125D02*
X0461767Y0172125D01*
X0462496Y0172723D02*
X0456639Y0172723D01*
X0455373Y0175148D02*
X0456862Y0175764D01*
X0458001Y0176903D01*
X0458618Y0178392D01*
X0458618Y0180003D01*
X0458001Y0181492D01*
X0456862Y0182631D01*
X0455373Y0183248D01*
X0453762Y0183248D01*
X0452274Y0182631D01*
X0451134Y0181492D01*
X0450518Y0180003D01*
X0450518Y0178392D01*
X0451134Y0176903D01*
X0452274Y0175764D01*
X0453762Y0175148D01*
X0455373Y0175148D01*
X0456745Y0175716D02*
X0462390Y0175716D01*
X0461723Y0176314D02*
X0457412Y0176314D01*
X0458005Y0176913D02*
X0461130Y0176913D01*
X0460882Y0177511D02*
X0458253Y0177511D01*
X0458501Y0178110D02*
X0460635Y0178110D01*
X0460518Y0178708D02*
X0458618Y0178708D01*
X0458618Y0179307D02*
X0460518Y0179307D01*
X0460518Y0179905D02*
X0458618Y0179905D01*
X0458410Y0180504D02*
X0460725Y0180504D01*
X0458984Y0181103D02*
X0458162Y0181103D01*
X0458048Y0181701D02*
X0457792Y0181701D01*
X0457533Y0182300D02*
X0457193Y0182300D01*
X0457285Y0182898D02*
X0456217Y0182898D01*
X0452918Y0182898D02*
X0446217Y0182898D01*
X0446862Y0182631D02*
X0445373Y0183248D01*
X0443762Y0183248D01*
X0442274Y0182631D01*
X0441134Y0181492D01*
X0440518Y0180003D01*
X0440518Y0178392D01*
X0441134Y0176903D01*
X0442274Y0175764D01*
X0443762Y0175148D01*
X0445373Y0175148D01*
X0446862Y0175764D01*
X0448001Y0176903D01*
X0448618Y0178392D01*
X0448618Y0180003D01*
X0448001Y0181492D01*
X0446862Y0182631D01*
X0447193Y0182300D02*
X0451942Y0182300D01*
X0451344Y0181701D02*
X0447792Y0181701D01*
X0448162Y0181103D02*
X0450973Y0181103D01*
X0450725Y0180504D02*
X0448410Y0180504D01*
X0448618Y0179905D02*
X0450518Y0179905D01*
X0450518Y0179307D02*
X0448618Y0179307D01*
X0448618Y0178708D02*
X0450518Y0178708D01*
X0450635Y0178110D02*
X0448501Y0178110D01*
X0448253Y0177511D02*
X0450882Y0177511D01*
X0451130Y0176913D02*
X0448005Y0176913D01*
X0447412Y0176314D02*
X0451723Y0176314D01*
X0452390Y0175716D02*
X0446745Y0175716D01*
X0445373Y0173248D02*
X0443762Y0173248D01*
X0442274Y0172631D01*
X0441134Y0171492D01*
X0440518Y0170003D01*
X0440518Y0168392D01*
X0441134Y0166903D01*
X0442274Y0165764D01*
X0443762Y0165148D01*
X0445373Y0165148D01*
X0446862Y0165764D01*
X0448001Y0166903D01*
X0448618Y0168392D01*
X0448618Y0170003D01*
X0448001Y0171492D01*
X0446862Y0172631D01*
X0445373Y0173248D01*
X0446639Y0172723D02*
X0452496Y0172723D01*
X0451767Y0172125D02*
X0447368Y0172125D01*
X0447967Y0171526D02*
X0451169Y0171526D01*
X0450901Y0170928D02*
X0448235Y0170928D01*
X0448483Y0170329D02*
X0450653Y0170329D01*
X0450518Y0169731D02*
X0448618Y0169731D01*
X0448618Y0169132D02*
X0450518Y0169132D01*
X0450518Y0168534D02*
X0448618Y0168534D01*
X0448429Y0167935D02*
X0450707Y0167935D01*
X0450955Y0167337D02*
X0448181Y0167337D01*
X0447836Y0166738D02*
X0451300Y0166738D01*
X0451898Y0166140D02*
X0447237Y0166140D01*
X0446324Y0165541D02*
X0452812Y0165541D01*
X0442812Y0165541D02*
X0436324Y0165541D01*
X0436862Y0165764D02*
X0438001Y0166903D01*
X0438618Y0168392D01*
X0438618Y0170003D01*
X0438001Y0171492D01*
X0436862Y0172631D01*
X0435373Y0173248D01*
X0433762Y0173248D01*
X0432274Y0172631D01*
X0431134Y0171492D01*
X0430518Y0170003D01*
X0430518Y0168392D01*
X0431134Y0166903D01*
X0432274Y0165764D01*
X0433762Y0165148D01*
X0435373Y0165148D01*
X0436862Y0165764D01*
X0437237Y0166140D02*
X0441898Y0166140D01*
X0441300Y0166738D02*
X0437836Y0166738D01*
X0438181Y0167337D02*
X0440955Y0167337D01*
X0440707Y0167935D02*
X0438429Y0167935D01*
X0438618Y0168534D02*
X0440518Y0168534D01*
X0440518Y0169132D02*
X0438618Y0169132D01*
X0438618Y0169731D02*
X0440518Y0169731D01*
X0440653Y0170329D02*
X0438483Y0170329D01*
X0438235Y0170928D02*
X0440901Y0170928D01*
X0441169Y0171526D02*
X0437967Y0171526D01*
X0437368Y0172125D02*
X0441767Y0172125D01*
X0442496Y0172723D02*
X0436639Y0172723D01*
X0435373Y0175148D02*
X0436862Y0175764D01*
X0438001Y0176903D01*
X0438618Y0178392D01*
X0438618Y0180003D01*
X0438001Y0181492D01*
X0436862Y0182631D01*
X0435373Y0183248D01*
X0433762Y0183248D01*
X0432274Y0182631D01*
X0431134Y0181492D01*
X0430518Y0180003D01*
X0430518Y0178392D01*
X0431134Y0176903D01*
X0432274Y0175764D01*
X0433762Y0175148D01*
X0435373Y0175148D01*
X0436745Y0175716D02*
X0442390Y0175716D01*
X0441723Y0176314D02*
X0437412Y0176314D01*
X0438005Y0176913D02*
X0441130Y0176913D01*
X0440882Y0177511D02*
X0438253Y0177511D01*
X0438501Y0178110D02*
X0440635Y0178110D01*
X0440518Y0178708D02*
X0438618Y0178708D01*
X0438618Y0179307D02*
X0440518Y0179307D01*
X0440518Y0179905D02*
X0438618Y0179905D01*
X0438410Y0180504D02*
X0440725Y0180504D01*
X0440973Y0181103D02*
X0438162Y0181103D01*
X0437792Y0181701D02*
X0441344Y0181701D01*
X0441942Y0182300D02*
X0437193Y0182300D01*
X0436217Y0182898D02*
X0442918Y0182898D01*
X0432918Y0182898D02*
X0426217Y0182898D01*
X0426862Y0182631D02*
X0425373Y0183248D01*
X0423762Y0183248D01*
X0422274Y0182631D01*
X0421134Y0181492D01*
X0420518Y0180003D01*
X0420518Y0178392D01*
X0421134Y0176903D01*
X0422274Y0175764D01*
X0423762Y0175148D01*
X0425373Y0175148D01*
X0426862Y0175764D01*
X0428001Y0176903D01*
X0428618Y0178392D01*
X0428618Y0180003D01*
X0428001Y0181492D01*
X0426862Y0182631D01*
X0427193Y0182300D02*
X0431942Y0182300D01*
X0431344Y0181701D02*
X0427792Y0181701D01*
X0428162Y0181103D02*
X0430973Y0181103D01*
X0430725Y0180504D02*
X0428410Y0180504D01*
X0428618Y0179905D02*
X0430518Y0179905D01*
X0430518Y0179307D02*
X0428618Y0179307D01*
X0428618Y0178708D02*
X0430518Y0178708D01*
X0430635Y0178110D02*
X0428501Y0178110D01*
X0428253Y0177511D02*
X0430882Y0177511D01*
X0431130Y0176913D02*
X0428005Y0176913D01*
X0427412Y0176314D02*
X0431723Y0176314D01*
X0432390Y0175716D02*
X0426745Y0175716D01*
X0425373Y0173248D02*
X0423762Y0173248D01*
X0422274Y0172631D01*
X0421134Y0171492D01*
X0420518Y0170003D01*
X0420518Y0168392D01*
X0421134Y0166903D01*
X0422274Y0165764D01*
X0423762Y0165148D01*
X0425373Y0165148D01*
X0426862Y0165764D01*
X0428001Y0166903D01*
X0428618Y0168392D01*
X0428618Y0170003D01*
X0428001Y0171492D01*
X0426862Y0172631D01*
X0425373Y0173248D01*
X0426639Y0172723D02*
X0432496Y0172723D01*
X0431767Y0172125D02*
X0427368Y0172125D01*
X0427967Y0171526D02*
X0431169Y0171526D01*
X0430901Y0170928D02*
X0428235Y0170928D01*
X0428483Y0170329D02*
X0430653Y0170329D01*
X0430518Y0169731D02*
X0428618Y0169731D01*
X0428618Y0169132D02*
X0430518Y0169132D01*
X0430518Y0168534D02*
X0428618Y0168534D01*
X0428429Y0167935D02*
X0430707Y0167935D01*
X0430955Y0167337D02*
X0428181Y0167337D01*
X0427836Y0166738D02*
X0431300Y0166738D01*
X0431898Y0166140D02*
X0427237Y0166140D01*
X0426324Y0165541D02*
X0432812Y0165541D01*
X0422812Y0165541D02*
X0416324Y0165541D01*
X0417237Y0166140D02*
X0421898Y0166140D01*
X0421300Y0166738D02*
X0417836Y0166738D01*
X0418181Y0167337D02*
X0420955Y0167337D01*
X0420707Y0167935D02*
X0418429Y0167935D01*
X0418618Y0168534D02*
X0420518Y0168534D01*
X0420518Y0169132D02*
X0418618Y0169132D01*
X0418618Y0169731D02*
X0420518Y0169731D01*
X0420653Y0170329D02*
X0418483Y0170329D01*
X0418235Y0170928D02*
X0420901Y0170928D01*
X0421169Y0171526D02*
X0417967Y0171526D01*
X0417368Y0172125D02*
X0421767Y0172125D01*
X0422496Y0172723D02*
X0416639Y0172723D01*
X0416745Y0175716D02*
X0422390Y0175716D01*
X0421723Y0176314D02*
X0417412Y0176314D01*
X0418005Y0176913D02*
X0421130Y0176913D01*
X0420882Y0177511D02*
X0418253Y0177511D01*
X0418501Y0178110D02*
X0420635Y0178110D01*
X0420518Y0178708D02*
X0418618Y0178708D01*
X0418618Y0179307D02*
X0420518Y0179307D01*
X0420518Y0179905D02*
X0418618Y0179905D01*
X0418410Y0180504D02*
X0420725Y0180504D01*
X0420973Y0181103D02*
X0418162Y0181103D01*
X0417792Y0181701D02*
X0421344Y0181701D01*
X0421942Y0182300D02*
X0417193Y0182300D01*
X0416217Y0182898D02*
X0422918Y0182898D01*
X0462815Y0182898D02*
X0462918Y0182898D01*
X0518314Y0258909D02*
X0338381Y0258909D01*
X0338979Y0259508D02*
X0518038Y0259508D01*
X0517790Y0260106D02*
X0339435Y0260106D01*
X0339683Y0260705D02*
X0517720Y0260705D01*
X0517720Y0261303D02*
X0339880Y0261303D01*
X0339880Y0261902D02*
X0517805Y0261902D01*
X0518053Y0262500D02*
X0339880Y0262500D01*
X0339674Y0263099D02*
X0518351Y0263099D01*
X0518950Y0263697D02*
X0339426Y0263697D01*
X0338957Y0264296D02*
X0519939Y0264296D01*
X0390096Y0278660D02*
X0022600Y0278660D01*
X0022600Y0279258D02*
X0389240Y0279258D01*
X0388759Y0279857D02*
X0022600Y0279857D01*
X0022600Y0280455D02*
X0388511Y0280455D01*
X0388400Y0281054D02*
X0022600Y0281054D01*
X0022600Y0281652D02*
X0388400Y0281652D01*
X0388555Y0282251D02*
X0022600Y0282251D01*
X0022600Y0282849D02*
X0388803Y0282849D01*
X0389347Y0283448D02*
X0022600Y0283448D01*
X0022600Y0284046D02*
X0390353Y0284046D01*
X0386672Y0273273D02*
X0022600Y0273273D01*
X0022600Y0272675D02*
X0386231Y0272675D01*
X0385983Y0272076D02*
X0022600Y0272076D01*
X0022600Y0271478D02*
X0385900Y0271478D01*
X0385900Y0270879D02*
X0022600Y0270879D01*
X0022600Y0270281D02*
X0386083Y0270281D01*
X0386331Y0269682D02*
X0022600Y0269682D01*
X0022600Y0269084D02*
X0386915Y0269084D01*
X0323500Y0151177D02*
X0304274Y0151177D01*
X0304873Y0150578D02*
X0323015Y0150578D01*
X0322767Y0149980D02*
X0305200Y0149980D01*
X0305448Y0149381D02*
X0322700Y0149381D01*
X0322700Y0148783D02*
X0323096Y0147827D01*
X0323337Y0147586D02*
X0305186Y0147586D01*
X0304839Y0146987D02*
X0324089Y0146987D01*
X0332861Y0139207D02*
X0237088Y0139207D01*
X0237952Y0138608D02*
X0332700Y0138608D01*
X0332700Y0138010D02*
X0238548Y0138010D01*
X0238796Y0137411D02*
X0332854Y0137411D01*
X0333110Y0136813D02*
X0239044Y0136813D01*
X0239092Y0136214D02*
X0333709Y0136214D01*
X0312724Y0142199D02*
X0098884Y0142199D01*
X0098636Y0142798D02*
X0312125Y0142798D01*
X0311860Y0143396D02*
X0098164Y0143396D01*
X0097565Y0143995D02*
X0311700Y0143995D01*
X0233937Y0139207D02*
X0187876Y0139207D01*
X0188739Y0138608D02*
X0233074Y0138608D01*
X0232477Y0138010D02*
X0189336Y0138010D01*
X0189584Y0137411D02*
X0232229Y0137411D01*
X0231981Y0136813D02*
X0189832Y0136813D01*
X0189880Y0136214D02*
X0231933Y0136214D01*
X0231933Y0135616D02*
X0189880Y0135616D01*
X0189774Y0135017D02*
X0232039Y0135017D01*
X0232287Y0134419D02*
X0189526Y0134419D01*
X0189197Y0133820D02*
X0232615Y0133820D01*
X0233214Y0133222D02*
X0188599Y0133222D01*
X0187537Y0132623D02*
X0234275Y0132623D01*
X0161537Y0133222D02*
X0115275Y0133222D01*
X0116197Y0133820D02*
X0160615Y0133820D01*
X0160017Y0134419D02*
X0116796Y0134419D01*
X0117066Y0135017D02*
X0159746Y0135017D01*
X0159498Y0135616D02*
X0117314Y0135616D01*
X0117380Y0136214D02*
X0159433Y0136214D01*
X0159433Y0136813D02*
X0117380Y0136813D01*
X0117291Y0137411D02*
X0159522Y0137411D01*
X0159770Y0138010D02*
X0117043Y0138010D01*
X0116739Y0138608D02*
X0160074Y0138608D01*
X0160672Y0139207D02*
X0116141Y0139207D01*
X0115138Y0139805D02*
X0161675Y0139805D01*
X0095813Y0124244D02*
X0095213Y0124244D01*
X0095213Y0123645D02*
X0095813Y0123645D01*
X0095813Y0123047D02*
X0095213Y0123047D01*
X0095213Y0122448D02*
X0095813Y0122448D01*
X0095813Y0121850D02*
X0095213Y0121850D01*
X0095213Y0120054D02*
X0095813Y0120054D01*
X0095813Y0119456D02*
X0095213Y0119456D01*
X0095213Y0118857D02*
X0095813Y0118857D01*
X0095813Y0118259D02*
X0095213Y0118259D01*
X0093621Y0118259D02*
X0048192Y0118259D01*
X0048920Y0118857D02*
X0092893Y0118857D01*
X0092440Y0119456D02*
X0049373Y0119456D01*
X0049658Y0120054D02*
X0092154Y0120054D01*
X0091992Y0120653D02*
X0049821Y0120653D01*
X0049840Y0121850D02*
X0091972Y0121850D01*
X0092114Y0122448D02*
X0049699Y0122448D01*
X0049438Y0123047D02*
X0092375Y0123047D01*
X0092796Y0123645D02*
X0049017Y0123645D01*
X0048337Y0124244D02*
X0093476Y0124244D01*
X0046600Y0124244D02*
X0046000Y0124244D01*
X0046000Y0123645D02*
X0046600Y0123645D01*
X0046600Y0123047D02*
X0046000Y0123047D01*
X0046000Y0122448D02*
X0046600Y0122448D01*
X0046600Y0121850D02*
X0046000Y0121850D01*
X0046000Y0120054D02*
X0046600Y0120054D01*
X0046600Y0119456D02*
X0046000Y0119456D01*
X0046000Y0118857D02*
X0046600Y0118857D01*
X0046600Y0118259D02*
X0046000Y0118259D01*
X0044408Y0118259D02*
X0022600Y0118259D01*
X0022600Y0118857D02*
X0043680Y0118857D01*
X0043227Y0119456D02*
X0022600Y0119456D01*
X0022600Y0120054D02*
X0042941Y0120054D01*
X0118111Y0197861D02*
X0163701Y0197861D01*
X0162976Y0198459D02*
X0118837Y0198459D01*
X0119376Y0199058D02*
X0162436Y0199058D01*
X0162188Y0199656D02*
X0119624Y0199656D01*
X0119872Y0200255D02*
X0161941Y0200255D01*
X0161933Y0200853D02*
X0119880Y0200853D01*
X0119880Y0201452D02*
X0161933Y0201452D01*
X0162079Y0202050D02*
X0119733Y0202050D01*
X0119485Y0202649D02*
X0162327Y0202649D01*
X0162713Y0203247D02*
X0119100Y0203247D01*
X0118501Y0203846D02*
X0163311Y0203846D01*
X0164511Y0204444D02*
X0117302Y0204444D01*
X0168552Y0073969D02*
X0620000Y0073969D01*
X0620000Y0073370D02*
X0167960Y0073370D01*
X0586862Y0075765D02*
X0620000Y0075765D01*
X0620000Y0076363D02*
X0587461Y0076363D01*
X0588025Y0076962D02*
X0620000Y0076962D01*
X0620000Y0077560D02*
X0588273Y0077560D01*
X0588521Y0078159D02*
X0620000Y0078159D01*
X0620000Y0078757D02*
X0588618Y0078757D01*
X0588618Y0079356D02*
X0620000Y0079356D01*
X0620000Y0079954D02*
X0588618Y0079954D01*
X0588390Y0080553D02*
X0620000Y0080553D01*
X0620000Y0081151D02*
X0588142Y0081151D01*
X0587743Y0081750D02*
X0620000Y0081750D01*
X0620000Y0082348D02*
X0587145Y0082348D01*
M02*
